<svg xmlns="http://www.w3.org/2000/svg" width="500" height="620" version="1.0"><path d="m34.266 242.053.018 8.122c.114 2.495-5.052 1.439-13.124 1.822-6.258.297-9.389-1.817-9.676-5.974-.287-4.158 4.557-7.811 10.812-8.156 6.256-.344 10.322.301 11.97 4.186z" style="fill:#d62c26;fill-opacity:1;fill-rule:nonzero;stroke:#000;stroke-width:1;stroke-linecap:square;stroke-linejoin:round;stroke-miterlimit:4;stroke-opacity:1" transform="matrix(2.23168 0 0 2.18724 -24.497 -123.996)"/><path d="M43.677 271.26c1.722 3.415 3.811 8.656 3.975 12.217 10.55.126 16.56-7.296 18.033-13.277-1.242-1.997-2.88-5.024-3.502-8.393z" style="fill:#d62c26;fill-opacity:1;fill-rule:evenodd;stroke:#000;stroke-width:1px;stroke-linecap:butt;stroke-linejoin:miter;stroke-opacity:1" transform="matrix(2.23168 0 0 2.18724 -24.497 -123.996)"/><path d="m20.71 252.143-.008-7.775c4.187 2.711 10.272 1.023 13.489-1.672l.059 7.075z" style="fill:#d62c26;fill-opacity:1;fill-rule:nonzero;stroke:#000;stroke-width:1;stroke-linecap:square;stroke-linejoin:round;stroke-miterlimit:4;stroke-opacity:1" transform="matrix(2.23168 0 0 2.18724 -24.497 -123.996)"/><path d="M11.643 247.054c10.751 11.674 29.898-4.984 38.686-2.619 2.233 6.868 6.652 11.276 11.949 17.085-21.142 16.746-45.903 16.424-50.54 8.524 1.317-8.947.23-17.175-.095-22.99zM202.323 271.26c-1.722 3.415-3.811 8.656-3.975 12.217-10.55.126-16.56-7.296-18.033-13.277 1.242-1.997 2.88-5.024 3.502-8.393z" style="fill:#d62c26;fill-opacity:1;fill-rule:evenodd;stroke:#000;stroke-width:1px;stroke-linecap:butt;stroke-linejoin:miter;stroke-opacity:1" transform="matrix(2.23168 0 0 2.18724 -24.497 -123.996)"/><path d="m211.734 242.053-.018 8.122c-.114 2.495 5.052 1.439 13.124 1.822 6.258.297 9.389-1.817 9.676-5.974.287-4.158-4.557-7.811-10.812-8.156-6.256-.344-10.322.301-11.97 4.186z" style="fill:#d62c26;fill-opacity:1;fill-rule:nonzero;stroke:#000;stroke-width:1;stroke-linecap:square;stroke-linejoin:round;stroke-miterlimit:4;stroke-opacity:1" transform="matrix(2.23168 0 0 2.18724 -24.497 -123.996)"/><path d="m225.29 252.143.008-7.775c-4.187 2.711-10.272 1.023-13.489-1.672l-.059 7.075z" style="fill:#d62c26;fill-opacity:1;fill-rule:nonzero;stroke:#000;stroke-width:1;stroke-linecap:square;stroke-linejoin:round;stroke-miterlimit:4;stroke-opacity:1" transform="matrix(2.23168 0 0 2.18724 -24.497 -123.996)"/><path d="M234.357 247.054c-10.751 11.674-29.898-4.984-38.686-2.619-2.233 6.868-6.652 11.276-11.949 17.085 21.142 16.746 45.903 16.424 50.54 8.524-1.317-8.947-.23-17.175.095-22.99zM122.987 314.5c30.09-.653 62.1-9.886 77.11-30.156.435-2.667-15.413-15.305-19.719-15.219-.287.006-.543.062-.719.188-15.694 14.1-37.275 21.065-56.656 20.906-19.38.16-40.994-6.806-56.688-20.906-.176-.126-.4-.182-.687-.188-4.306-.086-20.154 12.552-19.719 15.219 15.01 20.27 46.988 29.503 77.078 30.156z" style="fill:#d62c26;fill-opacity:1;fill-rule:evenodd;stroke:#000;stroke-width:1px;stroke-linecap:butt;stroke-linejoin:miter;stroke-opacity:1" transform="matrix(2.23168 0 0 2.18724 -24.497 -123.996)"/><path d="m63.623 293.802 6.822-14.193 2.789 1.34 1.253 12.27 4.556-9.478 2.662 1.28-6.822 14.193-2.875-1.382-1.273-12.006-4.45 9.256zm19.991 8.847 5.256-14.845 2.998 1.062-5.256 14.845zm15.179 4.512 2.669-12.809-4.575-.953.543-2.608 12.252 2.553-.544 2.608-4.564-.951-2.669 12.809zm15.779 2.44.137-15.748 11.677.102-.024 2.664-8.496-.074-.03 3.49 7.905.07-.023 2.653-7.906-.069-.037 4.286 8.797.077-.023 2.653zm20.79-.752-2.906-15.478 6.578-1.235q2.48-.465 3.679-.254 1.207.2 2.083 1.14.876.939 1.134 2.311.327 1.742-.483 3.075-.812 1.322-2.794 2 1.125.401 1.912.985.798.584 2.256 2.178l2.457 2.665-3.738.701-2.891-2.943q-1.543-1.58-2.074-1.96-.532-.393-1.06-.468-.531-.087-1.607.116l-.634.119 1.214 6.461zm1.447-9.519 2.313-.434q2.249-.422 2.772-.717.524-.295.754-.82t.098-1.22q-.147-.782-.658-1.177-.502-.409-1.287-.393-.39.02-2.29.376l-2.44.458zm16.795-2.445q-.803-2.268-.67-4.048.106-1.312.657-2.523.562-1.212 1.45-2.018 1.18-1.078 2.993-1.72 3.28-1.161 5.966.178 2.695 1.337 3.978 4.962 1.273 3.595.04 6.322-1.237 2.717-4.509 3.875-3.31 1.173-5.979-.15-2.671-1.334-3.926-4.878m3.053-1.195q.892 2.522 2.52 3.416 1.623.884 3.415.249t2.481-2.326q.696-1.706-.218-4.287-.904-2.552-2.472-3.41-1.56-.86-3.412-.205-1.853.657-2.535 2.334-.686 1.667.22 4.23m-.657-9.067.326-3.522 3.19-1.13-1.713 4.014zm22.343 9.027-6.52-14.335 2.893-1.316 6.522 14.334z" style="font-size:22px;font-style:normal;font-weight:400;fill:#fff;fill-opacity:1;stroke:none;stroke-width:1px;stroke-linecap:butt;stroke-linejoin:miter;stroke-opacity:1;font-family:Bitstream Vera Sans" transform="matrix(2.23168 0 0 2.18724 -23.66 -119.895)"/><path d="m19.916 271.442-1.56-.265 1.685-9.94q-.654.443-1.664.824-1.001.384-1.774.529l.255-1.508a9.6 9.6 0 0 0 2.54-1.103q1.128-.709 1.675-1.464l1.005.17zm3.75-3.138 1.64-.302q.3 1.19 1.026 1.736.732.538 1.677.445 1.137-.11 1.84-1.045.705-.935.565-2.352-.132-1.347-.97-2.05-.827-.705-2.052-.586-.762.075-1.34.485a2.64 2.64 0 0 0-.874.986l-1.497-.047.597-6.709 6.376-.624.148 1.504-5.117.502-.354 3.514q1.076-.918 2.344-1.042 1.68-.165 2.948.885 1.27 1.05 1.448 2.879.171 1.74-.72 3.108-1.08 1.679-3.215 1.887-1.75.171-2.956-.7-1.2-.87-1.514-2.474m7.672-8.68-.37-1.476 8.092-2.026.299 1.194q-.876 1.57-1.525 3.97a21.3 21.3 0 0 0-.723 4.783q-.067 1.684.272 3.584l-1.577.395q-.345-1.481-.313-3.71.031-2.226.578-4.42.554-2.205 1.389-3.828zm11.083 5.219 1.392-.78q.75 1.148 1.576 1.463.829.304 1.704-.044 1.036-.412 1.462-1.413.432-1.005.01-2.066-.403-1.013-1.323-1.403-.925-.4-1.946.007-.417.165-.972.576l-.35-1.356q.153-.042.243-.078a3.26 3.26 0 0 0 1.496-1.162q.556-.789.15-1.81-.32-.807-1.079-1.121t-1.624.03q-.858.342-1.215 1.108-.357.765-.092 1.91l-1.574.322q-.318-1.585.316-2.774.63-1.196 2.052-1.761a4.2 4.2 0 0 1 1.974-.293q.99.088 1.712.643a3.15 3.15 0 0 1 1.055 1.369 2.7 2.7 0 0 1 .145 1.578q-.164.803-.83 1.503 1.158-.177 2.055.365.894.533 1.354 1.694.624 1.567-.084 3.117-.712 1.54-2.46 2.236-1.576.626-2.995.103-1.41-.528-2.152-1.963" style="font-size:12.0518446px;fill:#fff;fill-opacity:1;font-family:Arial" transform="matrix(2.68607 0 0 2.84924 -39.708 -306.523)"/><path d="m195.989 265.2-1.7-.922 5.88-10.828q-.93.252-2.25.294-1.309.047-2.26-.091l.891-1.643q1.79.105 3.374-.27t2.515-1.03l1.095.594zm9.733-5.651q-1.048-.737-1.397-1.677-.348-.938-.053-2.038.446-1.66 1.943-2.47t3.478-.279q1.992.534 2.894 2.023.905 1.477.459 3.137-.285 1.059-1.056 1.697-.759.63-2.004.752 1.278.832 1.73 2.044.464 1.215.086 2.625-.525 1.95-2.26 2.908-1.737.958-3.988.353-2.252-.604-3.275-2.303-1.02-1.709-.485-3.7.398-1.485 1.412-2.28 1.028-.803 2.516-.792m.476-3.265q-.29 1.08.221 1.95.512.871 1.622 1.17 1.078.29 1.945-.2a2.34 2.34 0 0 0 1.143-1.484q.276-1.027-.253-1.915-.516-.895-1.575-1.179-1.069-.287-1.957.208-.89.495-1.146 1.45m-2.488 6.862a3.54 3.54 0 0 0-.041 1.646q.183.85.818 1.466.639.605 1.5.836 1.339.36 2.44-.267 1.103-.627 1.46-1.955.362-1.35-.304-2.473-.655-1.122-2.004-1.484-1.317-.354-2.423.284-1.095.64-1.446 1.947m9.24 2.818 1.949-.056q.16 1.67.875 2.479.727.8 1.87.919 1.357.14 2.384-.701 1.039-.842 1.184-2.231.138-1.325-.638-2.27-.774-.956-2.11-1.096-.544-.057-1.38.072l.39-1.666q.191.042.309.054a4 4 0 0 0 2.278-.41q1.05-.538 1.19-1.874.11-1.058-.533-1.827t-1.776-.887q-1.121-.117-1.943.51t-1.183 2.014l-1.887-.542q.555-1.897 1.915-2.824 1.362-.938 3.22-.744a5.1 5.1 0 0 1 2.304.803q1.022.657 1.489 1.667a3.85 3.85 0 0 1 .366 2.08 3.32 3.32 0 0 1-.738 1.791q-.633.777-1.752 1.156 1.355.466 2.018 1.561.665 1.085.506 2.602-.214 2.052-1.86 3.327-1.644 1.265-3.93 1.026-2.062-.216-3.301-1.588-1.23-1.37-1.217-3.345m11.304 1.251 1.996-.408q.397 1.446 1.296 2.097.91.64 2.06.504 1.388-.162 2.225-1.321t.633-2.887q-.193-1.643-1.233-2.483-1.029-.841-2.523-.666-.927.109-1.624.624a3.23 3.23 0 0 0-1.046 1.226l-1.83-.023.569-8.211 7.777-.916.216 1.835-6.24.735-.349 4.303q1.292-1.147 2.84-1.33 2.048-.24 3.623 1.012 1.575 1.254 1.838 3.483.25 2.124-.806 3.816-1.28 2.076-3.884 2.382-2.133.252-3.629-.784-1.485-1.036-1.909-2.988" style="font-size:22px;font-style:normal;font-weight:400;fill:#fff;fill-opacity:1;stroke:none;stroke-width:1px;stroke-linecap:butt;stroke-linejoin:miter;stroke-opacity:1;font-family:Bitstream Vera Sans" transform="matrix(2.23168 0 0 2.42482 -29.23 -188.484)"/><path d="m77.043 327.357 1.06-17.481c7.14-4.137 12.557-.953 12.55 4.857l-.914 17.531c-4.49-4.185-8.438-5.481-12.696-4.907z" style="fill:#d62c26;fill-opacity:1;fill-rule:evenodd;stroke:#000;stroke-width:1px;stroke-linecap:butt;stroke-linejoin:miter;stroke-opacity:1" transform="matrix(2.19504 0 0 2.2198 -19.994 -131.488)"/><path d="m82.346 311.094-.53 5.657c1.454.371 2.911.712 4.596-1.68 1.926-2.057-.853-5.134-4.066-3.977z" style="fill:#d62c26;fill-opacity:1;fill-rule:evenodd;stroke:#000;stroke-width:1px;stroke-linecap:butt;stroke-linejoin:miter;stroke-opacity:1" transform="matrix(2.19504 0 0 2.2198 -19.994 -131.488)"/><path d="M86.235 315.513c-2.422 5.496-5.243 10.902-4.95 18.208-3.79-.158-9.222-1.635-7.6-3.889 1.809-2.516 3.557-11.704 4.242-18.562 1.46 2.88 3.16 5.512 8.308 4.243zM168.957 327.357l-1.06-17.481c-7.265-5.262-12.557-.953-12.55 4.857l.207 17.885c4.49-4.186 9.145-5.835 13.403-5.26z" style="fill:#d62c26;fill-opacity:1;fill-rule:evenodd;stroke:#000;stroke-width:1px;stroke-linecap:butt;stroke-linejoin:miter;stroke-opacity:1" transform="matrix(2.19504 0 0 2.2198 -19.994 -131.488)"/><path d="m163.654 311.094.53 5.657c-1.454.371-2.911.712-4.596-1.68-1.926-2.057.853-5.134 4.066-3.977z" style="fill:#d62c26;fill-opacity:1;fill-rule:evenodd;stroke:#000;stroke-width:1px;stroke-linecap:butt;stroke-linejoin:miter;stroke-opacity:1" transform="matrix(2.19504 0 0 2.2198 -19.994 -131.488)"/><path d="M159.765 315.513c2.422 5.496 5.243 10.902 4.95 18.208 3.79-.158 9.222-1.635 7.6-3.889-1.809-2.516-3.557-11.704-4.242-18.562-1.46 2.88-3.16 5.512-8.308 4.243zM123 338.031c5.84.089 33.35-.47 35.36-3.219 2.183-2.983-4.739-.77-2.5-19.843-6.351 1.636-31.047 1-32.86 1-1.9 0-26.538.636-32.89-1 2.24 19.073-4.651 16.86-2.469 19.844 2.011 2.748 29.431 3.13 35.36 3.218z" style="fill:#d62c26;fill-opacity:1;fill-rule:evenodd;stroke:#000;stroke-width:1px;stroke-linecap:butt;stroke-linejoin:miter;stroke-opacity:1" transform="matrix(2.19504 0 0 2.2198 -19.994 -131.488)"/><path d="m107.222 334.735-1.928-.146.931-12.286q-.745.61-1.932 1.19-1.175.578-2.1.842l.141-1.864a11.7 11.7 0 0 0 2.968-1.628q1.293-.99 1.873-1.97l1.243.095zm8.112-8.166q-1.194-.466-1.756-1.294t-.539-1.967q.037-1.719 1.297-2.863 1.26-1.145 3.311-1.1 2.063.043 3.293 1.273 1.232 1.218 1.195 2.937-.024 1.095-.62 1.9-.587.792-1.767 1.208 1.44.504 2.169 1.572.74 1.068.71 2.53-.045 2.017-1.501 3.363-1.458 1.344-3.789 1.294-2.33-.05-3.73-1.454-1.399-1.417-1.354-3.478.032-1.536.828-2.55.805-1.025 2.253-1.37m-.317-3.285q-.024 1.118.68 1.841.705.725 1.854.749 1.117.024 1.84-.66.736-.693.757-1.713.022-1.063-.703-1.799-.714-.745-1.81-.769-1.107-.024-1.852.67t-.766 1.681m-.778 7.258a3.54 3.54 0 0 0 .353 1.608q.38.781 1.145 1.228.764.436 1.656.454 1.385.03 2.306-.842t.95-2.247q.03-1.396-.885-2.33-.904-.932-2.3-.962-1.365-.028-2.285.854-.91.885-.94 2.237m17.465 4.517-1.933.053-.336-12.317q-.68.685-1.8 1.382-1.11.696-2.002 1.054l-.05-1.869a11.7 11.7 0 0 0 2.784-1.924q1.184-1.117 1.66-2.152l1.246-.033zm4.965-3.825 1.84-.318q.337 1.287 1.05 1.824.71.536 1.749.453.888-.07 1.52-.53a3.34 3.34 0 0 0 1.017-1.169q.375-.72.571-1.899.198-1.18.102-2.379a10 10 0 0 0-.041-.384 4.46 4.46 0 0 1-1.466 1.625 4.3 4.3 0 0 1-2.118.74q-1.95.154-3.41-1.152-1.462-1.307-1.646-3.62-.189-2.388 1.098-3.955 1.297-1.569 3.418-1.738a5.02 5.02 0 0 1 2.86.603q1.34.723 2.115 2.203.785 1.467 1.014 4.359.24 3.008-.272 4.85-.512 1.828-1.734 2.863-1.21 1.034-2.945 1.172-1.842.146-3.09-.778-1.25-.936-1.632-2.77m7.342-7.555q-.132-1.66-1.098-2.564-.956-.904-2.198-.806-1.285.102-2.155 1.228t-.737 2.795q.12 1.5 1.094 2.37.984.86 2.312.754 1.339-.106 2.121-1.106.793-1.01.66-2.671" style="font-size:22px;font-style:normal;font-weight:400;fill:#fff;fill-opacity:1;stroke:none;stroke-width:1px;stroke-linecap:butt;stroke-linejoin:miter;stroke-opacity:1;font-family:Bitstream Vera Sans" transform="matrix(2.19504 0 0 2.2198 -19.994 -131.488)"/><path d="M131.944 13.324c-.76.143-1.324.193-1.704.878-.063 1.083-.13 2.169-.162 3.28-.032.315-.125.485-.315.741-1.076.029-2.15.09-3.226.147-.253-.058-.508-.118-.76-.147-.222-.142-.41-.251-.6-.365-.79-1.426.439-3.486-1.46-4.342a28 28 0 0 1-.599-.082c-2.025.028-4.369-.256-6.3.228-1.614.97-.443 2.937-1.044 4.305-.158.057-.31.116-.437.201-1.234.2-2.976.37-4.18.028-.41-.371-.443-.822-.506-1.307-.032-.799-.061-1.57-.061-2.34-.158-.627-.797-.89-1.43-1.033-1.741-.171-6.706-.314-6.706 2.139.316 1.283.626 2.6.974 3.912.221.342.448.68.67 1.051.79 1.055 1.61 2.03 2.18 3.2.095.427.188.85.315 1.279 0 2.224-.408 4.54-.63 6.763-1.012-.028-2.03-.027-3.042-.027-.918.143-1.515.22-1.705 1.133.127 1.198.288 2.395.447 3.592-.982.057-1.963.116-2.912.202-.221-1.141-.45-2.252-.639-3.364-.222-.599-.404-.737-.974-1.051-1.393-.314-3.103.342-4.464.228-.696-2.053-1.68-4.222-2.028-6.361 0-1.996 1.105-3.713 1.897-5.567.031-1.483.099-2.959.162-4.442-.317-.77-.95-.971-1.836-1.142-1.868-.171-5.287-.285-6.3 1.426 0 1.14.383 2.25.446 3.39-.095.4-.26.569-.608.768-.76.143-3.605.948-4.302.32-.664-1.483-.155-3.538-2.18-3.994-1.995 0-4.054.516-6.017.887-.38.17-.637.281-.953.566-.665 1.027-.057 2.654.101 3.766a.8.8 0 0 0-.132.283c-.76 1.084-3.125 1.225-4.423 1.225-.063-.057-.13-.08-.192-.11-.697-1.083-.825-2.714-1.268-3.911-.127-.086-.25-.172-.345-.229-2.152-.542-4.72.492-6.493 1.49-.696.827-.791 1.506-.791 2.504l1.522 2.742c.6.542 1.203 1.085 1.836 1.627 1.487.856 3.231 2.023 4.149 3.391.063.229.118.458.213.686.126 1.74.258 3.478.416 5.246-1.203.143-3.45.028-3.703 1.454.158 1.254.565 2.484.913 3.71q-1.09.257-2.181.512c-.032-.028-.06-.064-.091-.064-.38-1.14-.758-2.277-1.106-3.418-.538-.656-.827-.658-1.745-.658a46 46 0 0 0-2.15.548c-.032-.028-.07-.064-.102-.064-1.108-2.395-2.21-4.79-3.287-7.156-.032-1.426-.03-2.852-.03-4.278-.127-1.597-.068-4.221-1.745-5.22-1.646-.37-3.735.372-5.286.714-1.202.485-2.184.777-1.836 2.203.412.998.856 1.99 1.299 2.988-.443.2-.857.404-1.268.604a58 58 0 0 0-2.405.795c-.126 0-.219-.001-.314.027-.665-.912-1.198-2.255-1.704-3.254-.728-.827-1.869-.483-2.881-.283-1.203.428-2.535 1.033-3.358 1.974-.633 1.141.193 2.473.7 3.528.348.485.695.977 1.075 1.49.317.285.974.591 1.228.905 1.076.713 2.189 1.461 3.297 2.203.095.114.189.25.284.393.38.941.785 1.919 1.197 2.888.284.257.227 1.307.639 1.307.411 1.483 1.328 2.97 1.866 4.424.412.97.825 1.937 1.268 2.907.539 1.255 1.105 2.51 1.674 3.793.253.599.508 1.192.761 1.791.981 2.196 1.96 4.421 2.942 6.645.127.314.259.628.386.942 1.297 2.994 2.627 5.99 3.956 8.985.032.17.089.376.152.575-.475.514-.947 1.026-1.106 1.682v1.161c.317.884.854 1.488 1.867 1.773q.71.042 1.42.082a1384 1384 0 0 1 2.76 6.307c.031.171.088.34.152.512-1.073.967-1.518 2.199-.913 3.519h7.294l.02-.01c1.867-.541 3.731-1.085 5.63-1.599l9.587-2.394a610 610 0 0 1 7.76-1.6c4.463-.741 8.987-1.45 13.513-1.992 4.558-.428 9.117-.773 13.675-.887h7.05c8.83.228 17.664 1.167 26.336 2.678 4.346.8 23.3 4.75 24.56 5.804h7.527c.393-1.312.454-1.924-.243-3.18.79-2.14 1.892-4.334 2.81-6.445.38-.085.765-.171 1.176-.228.792-.428 1.364-.912 1.776-1.682.443-1.198.253-2.22-.538-3.217a3 3 0 0 1-.325-.256v-.174c4.97-11.407 9.943-22.815 14.943-34.193 1.045-.713 2.09-1.427 3.166-2.112.506-.399 1.044-.798 1.582-1.197.317-.485.636-.942.984-1.398.348-.713.693-1.534.883-2.304v-.777c-.792-1.597-4.331-3.221-6.199-2.394-.854 1.026-1.302 2.478-1.998 3.62-.791-.286-1.583-.54-2.374-.796-.506-.2-1.015-.395-1.522-.594-.094-.086 1.14-2.859 1.299-3.4 0-1.198-.694-1.54-1.897-1.91-1.646-.4-3.8-1.194-5.478-.595-1.551 1.283-1.426 3.451-1.552 5.22-.032 1.397-.061 2.788-.061 4.185-.095.143-.16.286-.223.457a491 491 0 0 0-3.196 7.048.22.22 0 0 0-.122.11q-1.044-.257-2.09-.513c-.917 0-1.363.063-1.775.805-.38 1.112-.727 2.224-1.075 3.336-.76-.171-1.524-.35-2.252-.521.316-1.283.832-2.619.832-3.93a5 5 0 0 1-.325-.512c-.981-.428-2.089-.516-3.165-.658.158-2.11.348-4.224.538-6.334.98-1.797 3.2-2.991 4.94-4.132.601-.542 1.171-1.145 1.583-1.8l.852-1.71c.411-.37.227-1.343.132-1.828-.19-.342-.38-.682-.538-.996-.823-.428-1.65-.885-2.536-1.17-1.171-.285-3.451-.995-4.464-.082-.538.827-.66 2.166-.882 3.107-.222.428-.282.887-.883.887-1.171-.143-2.658-.262-3.703-.804-.918-.827-.322-1.797-.132-2.852 0-1.255-.16-1.961-1.552-2.303a333 333 0 0 0-4.717-.805c-1.298 0-1.77.033-2.435 1.088-.221.941-.438 1.882-.66 2.852a1.3 1.3 0 0 0-.324.228c-1.36.114-3.128-.23-4.362-.658a1.6 1.6 0 0 0-.193-.228c-.316-1.198.345-2.567.345-3.794-.918-1.654-3.982-1.48-5.69-1.48-1.077.228-1.992.198-2.436 1.225.032 1.483.09 2.967.153 4.478l1.613 3.592c.253.827.289 1.768.162 2.624-.665 1.996-1.334 3.99-1.999 5.986-.917-.057-1.832-.107-2.718-.164-.38 0-.757-.001-1.136.027-.57.286-.67.428-.954.942-.222 1.14-.438 2.304-.66 3.473-1.044-.086-2.06-.17-3.073-.256a76 76 0 0 1 .345-2.65c0-.885.13-1.54-.883-1.91-1.36-.172-2.788-.11-4.15-.11-.316-2.11-.597-4.226-.882-6.307.032-.485.064-.741.254-1.198.19-.313.407-.627.629-.941l1.146-1.371c1.076-.941 1.957-1.967 2.78-3.108.348-1.112.893-2.424.893-3.564-.19-.4-.389-.772-.579-1.143a7 7 0 0 0-.375-.457c-1.583-.941-3.835-.905-5.67-.905" style="font-size:12px;fill:#000;fill-opacity:1;fill-rule:evenodd;stroke:none;stroke-width:1.05830002;stroke-dasharray:none;stroke-opacity:1" transform="matrix(2.05714 0 0 2.0611 3.474 -27.462)"/><g style="fill:#fde100;fill-opacity:1"><path d="M47.657 70.359c-1.265-.826-.88-1.954.055-2.89 3.632-1.513 7.347-2.806 11.09-4.045a299 299 0 0 1 5.31-1.54 415 415 0 0 1 6.246-1.541c3.66-.716 7.346-1.404 11.034-1.927 1.045-.137 2.09-.275 3.164-.385 1.43-.137 2.862-.275 4.292-.385 2.394-.138 4.816-.248 7.237-.358 3.467 0 6.989.028 10.456.193 6.219.385 12.41 1.183 18.546 2.311a202 202 0 0 1 15.6 3.852c1.597.496 3.193 1.019 4.816 1.541 2.064.716 4.293 1.431 6.301 2.34.853.852.688 1.953-.165 2.724h-1.926c-3.33-1.046-6.659-2.064-9.96-3.082a608 608 0 0 0-5.751-1.541c-5.944-1.404-11.887-2.614-17.94-3.467-1.101-.138-2.202-.276-3.275-.386-2.532-.192-5.063-.385-7.567-.578-4.843-.137-9.74-.165-14.556.138-5.805.413-11.584 1.238-17.28 2.312-8.2 1.65-16.289 3.934-24.186 6.658-.523 0-1.045.028-1.54.056M151.859 66.506c-.936-.335-2.553-1.02-3.274-1.21 0-.716.467-1.652.77-2.284.028-.028.083-.028.138-.028 1.1.413 2.2.826 3.33 1.266a1 1 0 0 0-.056.302c-.256.59-.492 1.538-.908 1.954M47.85 66.341c-.22-.55-1.018-2.009-1.018-2.724 1.045-.44 2.091-.88 3.164-1.32h.11c.275.935.578 1.87.88 2.806zM147.622 64.965c-.055-.055-.11-.082-.138-.11-1.32-.44-2.614-.88-3.907-1.293 0-.743.413-1.679.77-2.311 1.349.44 2.697.88 4.073 1.348-.275.77-.55 1.568-.798 2.366M51.95 64.773c-.303-.936-.688-1.899-.908-2.834 1.348-.496 2.724-.991 4.1-1.459h.22c.247.908.495 1.844.77 2.78-1.403.495-2.806.99-4.182 1.513M153.153 63.37c-.275-.276-1.21-.634-1.651-.634v-.165c.303-.825.605-1.65.936-2.476.605.193 1.21.413 1.843.633a73 73 0 0 0-1.046 2.586c-.027 0-.055.028-.082.055M142.559 63.26c-1.458-.468-2.917-.909-4.375-1.35.248-.77.495-1.54.77-2.283l2.725.743c.55.165 1.128.358 1.706.55-.276.77-.55 1.541-.826 2.34M57.095 62.984c-.275-.963-.55-1.899-.825-2.834 1.458-.44 2.916-.88 4.402-1.32.22.935.468 1.898.716 2.86-1.431.414-2.862.854-4.293 1.294M46.42 62.681c-.359-.908-.716-1.816-1.047-2.724.413-.165 1.019-.495 1.459-.495.33.88.66 1.761 1.018 2.67-.495.164-.963.357-1.43.55M150.511 62.351c-1.1-.413-2.174-.825-3.247-1.21.303-.826.605-1.651.936-2.45 1.018.303 2.036.633 3.081.964.055.027.11.055.193.11a71 71 0 0 0-.88 2.586zM48.73 61.773c-.33-.908-.66-1.788-.963-2.669 1.156-.413 2.312-.825 3.495-1.21h.165c.083.302.908 2.476.77 2.614-1.155.412-2.311.825-3.467 1.265M137.166 61.69a6 6 0 0 0-.523-.192c-1.32-.33-2.614-.66-3.907-.963.193-.825.385-1.623.578-2.421 1.568.385 3.137.798 4.705 1.21a60 60 0 0 0-.77 2.367zM62.35 61.388c-.275-.935-.522-1.843-.77-2.751a.6.6 0 0 1 .083-.138c1.43-.385 2.889-.743 4.347-1.1.193.852.413 1.733.633 2.613-.027.055-.027.138-.027.22-1.431.386-2.862.77-4.265 1.156M146.219 60.865l-4.623-1.486.66-2.393c0-.11.193-.083.248-.083 1.541.468 3.11.936 4.678 1.403 0 .028.028.055.055.11-.303.798-.605 1.596-.88 2.394a.2.2 0 0 0-.138.055M131.69 60.288c-1.54-.358-3.082-.716-4.595-1.074.165-.798.358-1.596.55-2.394 1.569.33 3.165.688 4.76 1.046-.22.77-.44 1.568-.632 2.366-.028 0-.055.028-.083.056M53.188 60.15c-.083-.303-.963-2.504-.798-2.67l4.127-1.237c.22.852.468 1.706.716 2.586zM67.634 59.985c-.22-.936-.44-1.871-.66-2.78 1.513-.357 3.026-.687 4.54-1.017a.3.3 0 0 1 .137.027c.165.908.33 1.844.523 2.78z" style="font-size:12px;fill:#fde100;fill-opacity:1;stroke:none;stroke-width:1.05830002;stroke-dasharray:none;stroke-opacity:1" transform="matrix(2.36624 0 0 2.13605 13.942 -.29)"/><path d="M154.969 59.957c-1.54-.523-3.054-1.045-4.568-1.568-4.375-1.459-8.86-2.697-13.29-3.908l-.082-.082c-2.67-.605-5.31-1.183-7.952-1.761-3.852-.688-7.732-1.404-11.612-1.926-2.421-.276-4.815-.523-7.21-.77-2.008-.138-3.989-.276-5.97-.386-5.558-.138-11.144-.11-16.702.193-5.97.412-11.97 1.21-17.858 2.311-4.32.88-8.612 1.926-12.877 3.082-4.21 1.238-8.392 2.724-12.52 4.155-.99 0-1.486-.248-1.843-1.128 0-.936.302-1.211.908-1.899a764 764 0 0 1 8.447-3.082 360 360 0 0 1 5.118-1.54 389 389 0 0 1 6.053-1.542c1.184-.275 2.367-.523 3.577-.77 5.146-.936 10.291-1.761 15.492-2.312 1.513-.137 3.027-.275 4.567-.385 1.761-.11 3.522-.22 5.311-.303 5.283-.137 10.649-.137 15.932.138 1.76.11 3.55.248 5.338.385 10.236.963 20.444 2.587 30.35 5.394 3.99 1.128 7.952 2.504 11.886 3.852.33.138.688.275 1.046.44.385.523.605.798.605 1.514-.137.633-.413 1.018-.825 1.513-.248.11-.495.22-.743.358-.193 0-.385 0-.578.027" style="font-size:12px;fill:#fde100;fill-opacity:1;stroke:none;stroke-width:1.05830002;stroke-dasharray:none;stroke-opacity:1" transform="matrix(2.36624 0 0 2.13605 13.942 -.29)"/><path d="m126.105 59.077-4.21-.826.495-2.394c1.431.248 2.862.496 4.32.77a64 64 0 0 0-.522 2.45zM140.523 59.077c-1.43-.413-2.834-.826-4.237-1.211.192-.825.385-1.651.577-2.449 1.459.385 2.945.77 4.43 1.156l.083.082a62 62 0 0 0-.688 2.422zM73.192 58.802l-.578-2.807c1.403-.248 2.807-.495 4.237-.716.028 0 .083.028.138.055.138.908.275 1.817.44 2.725-1.43.247-2.834.495-4.237.743M58.168 58.554c-.22-.88-.44-1.734-.66-2.587 1.54-.412 3.247-1.018 4.843-1.238l.578 2.477c-1.596.44-3.192.88-4.76 1.348M120.656 58.114c-1.32-.22-2.642-.44-3.962-.633.11-.826.22-1.651.357-2.45 1.459.22 2.917.441 4.403.661-.165.798-.33 1.596-.468 2.422zM78.337 57.866a93 93 0 0 1-.385-2.724c1.43-.193 2.862-.385 4.32-.55.11.908.22 1.816.33 2.751-1.43.165-2.861.33-4.265.523M135.295 57.646c-1.513-.385-3.027-.77-4.54-1.128.165-.826.33-1.651.523-2.45 1.513.358 3.054.716 4.595 1.074 0 .77-.33 1.76-.495 2.504zM115.456 57.398l-4.127-.495c.055-.853.11-1.679.165-2.504 1.513.165 3.054.33 4.595.523-.11.825-.22 1.65-.303 2.476zM83.538 57.206l-.33-2.725c1.568-.137 3.164-.275 4.76-.412.055.88.11 1.788.192 2.696-1.54.138-3.081.276-4.622.44M63.892 56.958c-.303-.77-.496-1.679-.578-2.504 1.43-.358 2.861-.688 4.292-1.018.138-.028.275-.028.413-.028.137.798.275 1.624.44 2.45-1.54.357-3.054.715-4.567 1.1M110.146 56.875c-1.596-.137-3.192-.247-4.76-.357 0-.88.027-1.734.055-2.587 1.706.11 3.412.248 5.145.385-.082.853-.137 1.706-.192 2.56zM89.068 56.71c-.082-.908-.137-1.816-.192-2.696 1.458-.083 2.944-.165 4.43-.22.055.88.11 1.788.193 2.696-1.486.055-2.972.138-4.43.22M103.707 56.49c-1.43-.055-2.862-.082-4.292-.11 0-.88.027-1.761.055-2.642 1.65.056 3.329.11 5.007.166a76 76 0 0 0-.055 2.531c-.247 0-.495.028-.715.055M94.462 56.435a85 85 0 0 1-.193-2.642 223 223 0 0 1 4.292-.054 78 78 0 0 0-.11 2.586 188 188 0 0 0-3.99.11M129.572 56.298c-1.568-.33-3.137-.66-4.678-.964a63 63 0 0 1 .44-2.421c1.651.303 3.33.633 5.008.963a60 60 0 0 0-.55 2.367.5.5 0 0 0-.22.054M69.422 55.665a95 95 0 0 1-.468-2.45c1.404-.275 2.835-.522 4.265-.77.11.798.22 1.596.358 2.394-1.403.275-2.779.55-4.155.826" style="font-size:12px;fill:#fde100;fill-opacity:1;stroke:none;stroke-width:1.05830002;stroke-dasharray:none;stroke-opacity:1" transform="matrix(2.36624 0 0 2.13605 13.942 -.29)"/><path d="M156.097 55.335c-.055-.056-.11-.083-.138-.11-1.54-.55-3.081-1.101-4.595-1.652 1.459-4.21 2.972-8.502 4.926-12.492.935-1.706 1.816-3.137 3.494-4.183.303-.137.606-.247.908-.357.606-.083 1.156-.193 1.761-.193l.99.165c-.027.083-.027.165-.027.275a3711 3711 0 0 0-7.319 18.547" style="font-size:12px;fill:#000;fill-opacity:1;stroke:none;stroke-width:1.05830002;stroke-dasharray:none;stroke-opacity:1" transform="matrix(2.36624 0 0 2.13605 13.942 -.29)"/><path d="M123.683 55.142c-1.32-.248-2.642-.468-3.935-.688a71 71 0 0 1 .275-2.394l4.375.66c-.165.77-.33 1.569-.467 2.367-.083 0-.165.027-.248.055" style="font-size:12px;fill:#fde100;fill-opacity:1;stroke:none;stroke-width:1.05830002;stroke-dasharray:none;stroke-opacity:1" transform="matrix(2.36624 0 0 2.13605 13.942 -.29)"/><path d="M43.365 55.087a8687 8687 0 0 1-7.32-18.794l1.321-.165c.413.027.853.082 1.294.137 1.623.523 2.586 1.486 3.577 2.835.412.715.825 1.458 1.265 2.201 1.761 3.907 3.192 8.035 4.65 12.052z" style="font-size:12px;fill:#000;fill-opacity:1;stroke:none;stroke-width:1.05830002;stroke-dasharray:none;stroke-opacity:1" transform="matrix(2.36624 0 0 2.13605 13.942 -.29)"/><path d="M74.54 54.702c-.137-.826-.275-1.651-.385-2.45 1.596-.247 3.22-.467 4.843-.687.082.715.165 1.43.275 2.174-.028.082-.028.165-.028.247-1.568.22-3.136.468-4.705.716M118.538 54.316a1864 1864 0 0 1-4.43-.578c.055-.825.11-1.65.193-2.449 1.596.193 3.191.386 4.815.606-.11.798-.22 1.596-.33 2.421zM80.263 53.876a10.5 10.5 0 0 1-.302-2.449c1.54-.165 3.22-.495 4.76-.495l.165 2.476c-.33 0-.66 0-.963.028-1.238.137-2.449.275-3.66.44M113.09 53.628l-4.87-.412c.055-.826.11-1.651.192-2.477 1.651.138 3.302.275 4.98.44-.082.798-.137 1.624-.192 2.45zM85.85 53.298c-.083-.825-.138-1.65-.194-2.449 1.486-.11 2.972-.22 4.458-.302 0 .825.028 1.65.055 2.476-1.458.083-2.89.165-4.32.275M150.401 53.298c-.523-.192-1.018-.385-1.513-.578-.028-.055-.028-.082-.028-.11.963-2.806 2.174-5.668 3.274-8.42 1.376-3.027 2.697-6.108 4.843-8.695l.908-.825c.33-.248.66-.468 1.018-.688.688-.193 1.266-.413 1.982-.468.577.027 1.155.082 1.76.137.55.193 1.101.386 1.679.578 0 .028.027.055.055.11l-.495 1.239c-2.036-.248-3.467-.276-5.228.797-2.78 2.174-3.963 5.669-5.256 8.806l-2.889 8.007a.22.22 0 0 0-.11.11M106.596 53.106l-4.155-.248c0-.825.028-1.651.055-2.449 1.651.083 3.302.165 4.953.275-.055.798-.11 1.596-.138 2.422zM49.116 53.05c-.055-.054-.083-.11-.11-.137a400 400 0 0 0-3.743-10.099 66 66 0 0 0-.577-1.348c-1.184-2.311-2.34-4.678-4.788-5.889a42 42 0 0 0-1.541-.385c-.908 0-1.816.028-2.724.138-.165-.44-.33-.88-.495-1.293.77-.276 1.458-.688 2.283-.77h1.101c4.072.274 5.916 4.622 7.54 7.786.385.88.935 1.844 1.155 2.78.11.192.22.385.33.605l3.137 8.09c-.523.165-1.046.33-1.568.523M91.077 52.968c-.027-.826-.027-1.651-.027-2.449l4.65-.165c.055.825.11 1.65.192 2.476-1.623.028-3.219.083-4.815.138M100.68 52.858c-1.293-.028-2.587-.028-3.852-.028l-.165-2.476c1.623 0 3.274.028 4.925.055a68 68 0 0 0-.11 2.421c-.275 0-.55 0-.798.028M147.815 52.39c-.633-.248-1.266-.468-1.899-.688.193-.55.413-1.1.633-1.65.303-.744.606-1.487.908-2.202.606.248 1.211.495 1.844.743a3 3 0 0 0-.138.55c-.44 1.046-.853 2.119-1.265 3.192-.028 0-.055.028-.083.055M51.62 52.143c-.468-1.266-.936-2.532-1.376-3.77.605-.248 1.21-.495 1.843-.716.496 1.266 1.018 2.532 1.541 3.825-.688.22-1.348.44-2.008.66M144.045 51.427l-2.064-.578c.303-1.403.606-2.779.908-4.155.523.11 1.046.248 1.596.386-.11 1.43-.22 2.889-.303 4.347zM55.417 51.097c-.11-1.348-.22-2.697-.303-4.045a27 27 0 0 1 1.596-.44c.275 1.265.55 2.531.853 3.825zM145.146 50.904c.165-2.641.358-5.283.55-7.897.826.193 1.651.413 2.477.633a813 813 0 0 0-3.027 7.264M54.399 50.794c-.413-1.018-.826-2.036-1.239-3.027v-.137c.33-.138.688-.248 1.046-.358.055 1.156.11 2.339.193 3.522M140.963 50.602c-.578-.165-1.128-.33-1.678-.468l.99-4.21c.55.165 1.128.33 1.706.495a866 866 0 0 0-.908 3.935v.248zM58.499 50.216c-.303-1.32-.606-2.614-.881-3.907l1.733-.413c.276 1.294.578 2.587.881 3.88-.578.138-1.156.275-1.733.44M138.212 49.941c-.468-.275-1.1-.33-1.623-.385.743-3.66 1.596-7.347 2.256-11.007.082-.77.192-1.54.303-2.311 0-.88 0-1.761.027-2.642a8.9 8.9 0 0 0-.853-3.247 19 19 0 0 0-.578-.77c-.743-.633-1.486-1.128-2.421-1.459-.578-.137-1.156-.275-1.706-.385-1.1-.082-2.036-.137-3.137.083-.578.165-1.1.495-1.623.798-1.294 1.1-1.954 2.504-2.532 4.072-1.376 4.678-1.843 9.631-2.586 14.447-.633-.11-1.266-.193-1.899-.276-.027-.055-.027-.11-.027-.137a834 834 0 0 1 1.54-8.806c.688-3.219 1.349-6.604 3.33-9.3.963-1.046 1.816-1.789 3.192-2.284 2.091-.523 4.017-.303 6.08.33l1.321.578c.578.44 1.184.88 1.789 1.348.275.358.55.716.826 1.101.412.826.687 1.706.935 2.587.055.55.11 1.128.193 1.706 0 2.063-.248 4.127-.578 6.163-.688 3.247-1.376 6.522-2.064 9.796zM61.14 49.556c-.633-3-1.266-5.999-1.899-8.97-.357-2.202-.687-4.376-.687-6.604.137-1.459.357-2.725.963-4.045.412-.66.797-1.184 1.32-1.706.44-.33.88-.66 1.321-.964 1.1-.495 2.174-.908 3.357-1.155.358-.055.743-.11 1.128-.138h1.541c.688.083 1.348.275 2.009.468.908.385 1.733 1.046 2.421 1.733.165.22.358.468.55.716.275.495.55.99.853 1.486.276.688.578 1.376.88 2.064.386 1.485.771 2.971 1.156 4.485.55 3.192 1.129 6.411 1.707 9.63-.66.083-1.294.166-1.927.248-.522-3.247-1.018-6.494-1.513-9.74-.55-2.862-1.156-6.164-3.302-8.31-.302-.22-.605-.413-.908-.606-.358-.138-.688-.275-1.018-.385-1.238-.275-2.559-.22-3.797.027-.468.11-.908.248-1.348.386-.798.302-1.954.908-2.34 1.678-1.925 2.587-1.182 6.549-.742 9.493l2.063 9.824c-.605.11-1.21.247-1.788.385" style="font-size:12px;fill:#fde100;fill-opacity:1;stroke:none;stroke-width:1.05830002;stroke-dasharray:none;stroke-opacity:1" transform="matrix(2.36624 0 0 2.13605 13.942 -.29)"/><path d="M135.515 49.308c-3.605-.77-7.264-1.43-10.869-2.063.523-3.275 1.046-6.55 1.569-9.796.55-2.835 1.018-5.476 2.944-7.677.33-.248.66-.496 1.018-.716.495-.165.99-.303 1.513-.44h1.293c1.486.247 2.56.55 3.77 1.458.193.248.413.523.633.798.743 1.404.908 2.752.908 4.32-.11 1.486-.33 3-.578 4.486a994 994 0 0 0-2.036 9.63zM63.892 48.923c-.66-2.944-1.294-5.889-1.927-8.805-.357-2.23-.77-4.43-.632-6.687.275-1.953.935-3.302 2.724-4.265.357-.137.715-.275 1.1-.385 1.1-.22 2.092-.303 3.22-.193 1.128.303 1.706.77 2.504 1.569 1.293 1.843 1.843 3.962 2.31 6.136l1.734 10.649c-1.926.11-3.962.578-5.888.908-1.734.358-3.44.715-5.145 1.073" style="font-size:12px;fill:#000;fill-opacity:1;stroke:none;stroke-width:1.05830002;stroke-dasharray:none;stroke-opacity:1" transform="matrix(2.36624 0 0 2.13605 13.942 -.29)"/><path d="M149.686 47.712a87 87 0 0 0-1.761-.77c-.028-.055-.028-.083-.028-.11.44-1.1.881-2.174 1.349-3.247.027-.028.055-.055.082-.055.578.248 1.156.495 1.761.77a434 434 0 0 0-1.403 3.412M49.831 47.465c-.44-1.101-.88-2.174-1.293-3.247-.028-.055-.055-.11-.055-.165.385-.165 1.293-.716 1.816-.716.165.44 1.458 3.082 1.293 3.412-.605.22-1.183.468-1.761.716M52.775 46.86c-.55-1.294-1.073-2.56-1.596-3.825.22-.22.468-.22.798-.33.386 1.265.77 2.53 1.183 3.824v.165c-.137.055-.275.11-.385.165M120.739 46.75c-.578-.083-1.128-.166-1.678-.248.22-1.431.44-2.862.688-4.266.605.056 1.21.11 1.816.193 0 1.431-.66 2.89-.66 4.32zM53.93 46.42c-.384-1.322-.77-2.615-1.127-3.908.33-.083.66-.165 1.018-.248.082 1.348.165 2.724.275 4.1-.055 0-.11.028-.165.055M78.668 46.42c-.22-1.377-.44-2.725-.66-4.073a35 35 0 0 1 1.76-.193c.083.358.165.715.275 1.073.138.99.275 1.981.44 3-.605.055-1.21.11-1.815.192M117.96 46.42q-.99-.125-1.981-.249c.413-1.43.853-2.861 1.293-4.292.468.055.963.137 1.458.22 0 1.376-.412 2.944-.633 4.32zM81.447 46.116l-.66-4.127a27 27 0 0 1 1.54-.138c.413 1.349.826 2.697 1.238 4.073-.715.055-1.43.11-2.118.192M144.485 46.116a221 221 0 0 0-4.045-1.1c.248-1.238.495-2.45.77-3.66 1.184.275 2.367.55 3.55.853a176 176 0 0 0-.192 3.907zM55.087 46.034c-.11-1.321-.22-2.614-.303-3.907 1.183-.303 2.366-.578 3.55-.854.247 1.156.522 2.34.797 3.523 0 .825-3.164.66-4.044 1.238M114.108 46.034c-.688-.083-1.376-.138-2.036-.193l.165-4.623c.523.028 1.073.083 1.623.138.193 1.54.386 3.11.578 4.678zM84.528 45.841c-.44-1.376-.88-2.751-1.293-4.127.633-.028 1.293-.055 1.954-.083a218 218 0 0 0-.468 4.21zM85.684 45.731c.138-1.403.275-2.806.44-4.182.496-.055.99-.11 1.486-.138.028.11.055.248.083.385l.082 3.798a50 50 0 0 0-2.091.137M110.503 45.731l-1.156-.082.083-4.623c.605.027 1.238.082 1.87.137a244 244 0 0 0-.192 4.568zM108.219 45.594l-1.678-.083c.027-3.935.055-7.842.11-11.75-.083-2.036-.303-4.1-1.046-6.026-.248-.44-.495-.88-.743-1.293-.248-.275-.495-.523-.715-.77a79 79 0 0 0-1.349-.77c-.55-.139-1.1-.276-1.65-.386-1.266 0-2.532-.083-3.743.248-.357.11-.688.247-1.018.385-.523.302-1.238.688-1.513 1.238-.605.303-1.046 1.844-1.21 2.394-.11.44-.221.88-.303 1.348a37 37 0 0 0-.193 1.734c-.028 1.54-.028 3.082-.028 4.623.11 2.944.22 5.888.358 8.86-.66.027-1.293.055-1.926.11l-.165-6.301c0-4.32-.385-8.833 1.568-12.768.55-.798 1.018-1.596 1.871-2.091 2.724-2.037 7.32-1.899 10.099-.055.357.33.743.66 1.128 1.018.633.935 1.183 1.926 1.596 3 .192.852.385 1.733.578 2.613.522 4.843.275 9.851.165 14.722zM88.766 45.539c-.055-1.404-.083-2.807-.11-4.21.605-.056 1.21-.083 1.843-.11.028 1.403.055 2.806.11 4.237-.632.027-1.238.055-1.843.082" style="font-size:12px;fill:#fde100;fill-opacity:1;stroke:none;stroke-width:1.05830002;stroke-dasharray:none;stroke-opacity:1" transform="matrix(2.36624 0 0 2.13605 13.942 -.29)"/><path d="M105.11 45.456c-3.55-.22-7.154-.138-10.704-.11-.165-4.568-.522-9.19-.275-13.758.165-1.376.413-2.477.963-3.715.303-.413.606-.826.936-1.238a16 16 0 0 1 1.128-.716c1.486-.605 3.274-.688 4.815-.247 1.403.55 2.201 1.485 2.862 2.834l.578 2.064.33 3.384a1583 1583 0 0 0-.11 11.502z" style="font-size:12px;fill:#000;fill-opacity:1;stroke:none;stroke-width:1.05830002;stroke-dasharray:none;stroke-opacity:1" transform="matrix(2.36624 0 0 2.13605 13.942 -.29)"/><path d="m115.263 45.126-.908-7.512c1.046.055 2.091.137 3.164.22a565 565 0 0 0-2.201 7.292zM151.364 43.392c-.358-.358-1.21-.55-1.678-.743v-.137c.44-1.101.88-2.202 1.348-3.275.027-.027.055-.055.082-.055.55.358 1.321.495 1.871.853-.522 1.1-1.018 2.202-1.513 3.302-.055 0-.082.028-.11.055M48.098 43.145c-.248-.55-.496-1.101-.716-1.624-.303-.468-.605-1.21-.825-1.733.275-.138 1.623-.908 1.926-.77a439 439 0 0 1 1.403 3.439c-.605.22-1.21.44-1.789.688M148.392 42.704c-.853-.275-1.733-.468-2.614-.66.083-1.238.165-2.45.248-3.66.11 0 .247 0 .385.028 1.156.33 2.311.688 3.494 1.045a377 377 0 0 0-1.32 3.192c-.083 0-.138.028-.193.055M50.794 42.044c-.275-.66-.523-1.293-.77-1.926-.22-.33-.523-.963-.523-1.349.385-.137.77-.275 1.156-.385l2.889-.743c.055 1.156.275 2.504.165 3.66-.99.248-1.954.495-2.917.743M121.62 41.494c-1.348-.166-2.669-.33-3.99-.496-.027-.027-.055-.055-.055-.082.358-1.183.716-2.34 1.073-3.495l3.797.413c-.22 1.21-.44 2.421-.632 3.66zM77.815 41.411c-.22-1.21-.44-2.421-.633-3.605 1.238-.137 2.476-.275 3.742-.412.357 1.155.715 2.311 1.073 3.494-1.403.165-2.807.33-4.183.523M144.733 41.218l-3.302-.825.413-3.22c1.073.22 2.174.468 3.274.716-.082 1.1-.165 2.201-.248 3.33zM54.729 41.163c-.083-1.128-.165-2.256-.22-3.357l3.219-.743c.138 1.074.303 2.174.468 3.275zM82.988 40.916l-.991-3.467c.495-.083.99-.138 1.486-.193.082 1.21.165 2.422.275 3.632-.275 0-.523 0-.77.028M84.638 40.778c-.055-1.21-.11-2.421-.137-3.605l1.155-.082c-.137 1.21-.275 2.421-.385 3.632-.22 0-.44.028-.633.055M86.234 40.586c.11-1.239.248-2.477.386-3.688 1.21-.192 2.504-.275 3.742-.357.027 1.238.082 2.476.137 3.714-1.43.11-2.861.22-4.265.33M113.42 40.393c-1.32-.11-2.642-.193-3.935-.275 0-1.266.028-2.532.055-3.77 1.21.028 2.45.083 3.687.138.165 1.293.33 2.586.496 3.907zM153.345 39.1a51 51 0 0 0-1.816-.77c-.028-.056-.055-.083-.055-.11.385-.964.77-1.927 1.156-2.863a.5.5 0 0 1 .22-.055c.605.248 1.623.578 2.228.963a94 94 0 0 0-1.595 2.835zM46.061 38.852a234 234 0 0 0-1.568-2.697v-.137c.798-.33 1.596-.66 2.394-.963.385.99.798 2.008 1.21 3.026-.687.248-1.375.496-2.036.771M150.263 38.577c-.523-.193-1.046-.385-1.568-.55 0-.881.577-2.257.825-3.11.66 0 1.403.358 2.036.523-.44 1.046-.88 2.091-1.293 3.137M49.116 37.889a7 7 0 0 0-.248-.468l-.826-2.064c-.082-.192-.137-.385-.192-.55.66-.22 1.32-.44 2.008-.633.303 1.046.606 2.091.936 3.165-.578.165-1.128.357-1.678.55M147.649 37.806c-.523-.165-1.018-.302-1.513-.44l.165-3.274c.743.165 1.513.33 2.284.522a132 132 0 0 0-.853 3.137c-.028 0-.055.028-.083.055M51.702 37.118c-.303-1.073-.578-2.118-.853-3.164l2.394-.578c.055 1.073.11 2.174.193 3.275-.578.137-1.156.302-1.734.467M117.437 36.926c-1.1-.11-2.174-.193-3.247-.275-.165-1.239-.33-2.477-.468-3.715 1.706.165 3.412.33 5.146.523a124 124 0 0 0-1.046 3.412c-.137 0-.275.027-.385.055M122.28 36.926c-1.1-.138-2.201-.275-3.302-.385.33-1.129.66-2.257 1.018-3.385 1.128 0 2.312.248 3.412.358-.275 1.018-.77 2.366-.77 3.412zM145.063 36.926c-1.046-.248-2.064-.495-3.082-.743-.027-1.128-.055-2.257-.055-3.357a157 157 0 0 1 3.467.77c-.082 1.101-.165 2.202-.247 3.33zM77.044 36.87c-.055-.082-.082-.164-.11-.22-.248-1.1-.495-2.173-.715-3.246 1.1-.138 2.228-.248 3.357-.358.357 1.128.715 2.256 1.073 3.412-1.211.138-2.422.275-3.605.413M54.454 36.843c-.083-1.1-.165-2.201-.248-3.274l3.467-.826c-.028 1.101-.055 2.202-.055 3.33-1.073.248-2.119.495-3.164.77M81.694 36.54c-.385-1.183-.743-2.338-1.1-3.494l1.568-.248c1.32-.137 2.669-.247 4.017-.357-.165 1.21-.302 2.421-.44 3.66-1.348.137-2.697.275-4.045.44M86.757 35.963c.11-1.211.22-2.394.358-3.577 1.128-.11 2.284-.22 3.44-.33-.056 1.183-.11 2.366-.138 3.577-1.239.11-2.45.22-3.66.33M112.374 35.523c-.963-.056-1.926-.11-2.89-.138-.054-1.128-.11-2.229-.137-3.33l3.302.166c.138 1.1.275 2.2.44 3.302zM155.712 35.495c-.88-.385-1.733-.77-2.587-1.128-.027-.055-.027-.11-.027-.138.468-1.155.963-2.311 1.458-3.467.826.275 1.679.55 2.532.826-.413 1.21-.798 2.421-1.183 3.66-.083.082-.138.164-.193.247M43.805 35.247c-.083-.11-.138-.22-.193-.33-.385-1.183-.77-2.366-1.155-3.522.825-.303 1.65-.605 2.504-.88.468 1.155.963 2.31 1.458 3.494v.138c-.853.275-1.788.77-2.614 1.1M151.887 34.56l-5.53-1.486c.082-1.376.192-2.752.302-4.1 2.256.522 4.54 1.128 6.769 1.76 0 .028 0 .083.027.138-.522 1.21-1.045 2.45-1.568 3.687M47.41 33.899c-.523-1.266-1.046-2.532-1.541-3.797a502 502 0 0 1 6.879-1.844h.165l.247 4.1c-1.926.44-3.88.963-5.75 1.541M157.445 33.761c.193-.605.385-1.21.578-1.788.633.137 1.266.44 1.898.66-.687.138-2.063.523-2.476 1.128M42.072 33.514c-.716-.633-1.624-.88-2.504-1.1.55-.194 1.403-.689 1.98-.689.166.578.331 1.183.524 1.789M164.654 33.376l-.11-.11c-.88-.33-1.761-.66-2.614-.963 0-.77.633-2.064.908-2.807.028-.027.055-.027.083-.027.963.357 1.953.715 2.944 1.1l-1.073 2.807zM34.752 33.129c-.247-.633-.495-1.266-.715-1.872-.11-.22-.33-.687-.33-.935.935-.358 1.87-.716 2.806-1.046h.22c0 .853.688 1.954.909 2.834-.964.33-1.927.66-2.89 1.019M145.311 32.633l-3.467-.825c-.165-.165-.165-.55-.22-.798.275-1.1.55-2.202.825-3.275 1.073.275 2.147.578 3.247.88l-.247 4.018zM54.151 32.606c-.11-1.211-.193-2.394-.275-3.577 0-.166 0-.33.027-.468.99-.303 2.009-.606 3.027-.88h.22l.826 3.219c-.055.247-.11.495-.165.77-1.211.275-2.477.55-3.66.936M123.601 32.606c-1.1-.138-2.201-.275-3.274-.386.302-1.073.605-2.118.935-3.164 1.21.11 2.449.22 3.687.358a21.4 21.4 0 0 0-1.266 3.192zM118.868 32.55c-.688-.11-1.348-.22-2.009-.302.138-1.1.303-2.201.468-3.274.936.082 1.871.192 2.834.302l-.99 3.22a1 1 0 0 0-.303.055M75.916 32.496c-.358-.963-.688-2.147-1.238-3.027v-.11c1.183-.138 2.394-.275 3.604-.413.33 1.046.66 2.091 1.018 3.164-1.128.11-2.256.248-3.384.386M115.649 32.22c-.688-.082-1.376-.137-2.064-.192-.165-1.128-.33-2.256-.495-3.357 1.073.055 2.174.137 3.274.22-.165 1.073-.33 2.174-.467 3.275-.083 0-.165.027-.248.055M80.29 32.11c-.33-1.1-.66-2.2-.962-3.274 1.073-.11 2.174-.22 3.274-.33.138 1.073.275 2.174.44 3.274-.935.11-1.843.22-2.751.33M160.912 31.973c-1.954-.743-3.962-1.486-5.97-2.119.33-.853.66-1.981 1.155-2.752h.192c1.844.66 3.715 1.321 5.586 1.982l.055.055c-.303.935-.688 1.898-.936 2.834zM38.55 31.725c-.33-.935-.66-1.87-.963-2.806a370 370 0 0 1 5.888-2.037c.358.908.743 1.816 1.128 2.724-2.036.688-4.045 1.404-6.053 2.12M84.006 31.725c-.165-1.1-.33-2.201-.468-3.302 1.018-.082 2.036-.165 3.082-.247-.138 1.1-.276 2.2-.386 3.302zM87.225 31.395c.11-1.1.22-2.201.358-3.274 1.21-.11 2.421-.22 3.66-.33-.22 1.1-.441 2.2-.634 3.301-1.128.083-2.256.193-3.384.303M111.686 31.257c-.826-.055-1.624-.11-2.421-.165-.138-1.045-.358-2.256-.66-3.274 1.155.027 2.31.082 3.466.137.028.028.055.055.083.11.137 1.046.275 2.12.413 3.192zM153.785 29.854a53 53 0 0 0-1.596-.523c.33-1.073.66-2.146 1.018-3.22a.5.5 0 0 1 .22-.054c.578.137 1.184.302 1.789.468-.44 1.045-.853 2.118-1.266 3.192-.055.027-.11.082-.165.137M166.113 29.661c-.055-.055-.11-.082-.138-.11-1.788-.66-3.577-1.32-5.338-1.953 0-.633.66-2.064.88-2.724.056-.166.138-.33.221-.468 1.238.44 2.476.88 3.742 1.348.138.055.275.11.44.193.496.165.99.357 1.486.55-.055.165-.11.358-.137.55a74 74 0 0 0-1.018 2.614zM140.963 29.469c-.605-1.046-1.348-1.926-2.366-2.642.908 0 2.036.44 2.944.66zM33.322 29.414c-.083-.22-.166-.413-.248-.606-.33-.825-.66-1.623-.963-2.421v-.11a1232 1232 0 0 1 5.558-2.064c.055 0 .11 0 .165.028.358 1.045.716 2.09 1.1 3.164-.11 0-.192 0-.274.028-1.789.66-3.577 1.32-5.338 1.98M58.581 29.414c-.193-.688-.358-1.349-.523-2.009a87 87 0 0 1 2.862-.688c.027 0 .055 0 .11.028-1.073.688-1.789 1.568-2.449 2.669M45.484 29.166c-.468-1.1-.909-2.174-1.349-3.247.66-.192 1.321-.385 1.981-.55l.166.165c.302 1.046.605 2.091.908 3.164-.578.138-1.156.303-1.706.468M125.169 28.56c-1.21-.164-2.421-.302-3.605-.44.386-1.32.798-2.641 1.211-3.962 1.1.11 2.229.22 3.357.358-.22 1.348-.413 2.697-.605 4.045zM74.155 28.506c-.055-.083-.11-.138-.165-.193-.193-1.293-.358-2.586-.523-3.852.523-.083 1.073-.165 1.624-.248.577-.055 1.155-.11 1.76-.137 0 1.348.991 2.614 1.129 3.934-1.156.11-2.284.248-3.412.386a2.3 2.3 0 0 0-.413.11M120.409 28.396c-2.421-.33-4.925-.496-7.374-.716a211 211 0 0 1-.523-4.127l9.163.825c-.413 1.294-.798 2.614-1.183 3.935zM148.227 28.396c-.523-.165-1.046-.33-1.54-.468l.247-3.22c.633 0 1.87-.027 2.201.633l-.743 3.055zM78.998 27.928c-.413-1.32-.798-2.642-1.184-3.935 1.019-.138 2.037-.275 3.055-.385 2.063-.193 4.127-.386 6.218-.55 0 1.32-.22 2.779-.357 4.1-2.587.247-5.173.495-7.732.77M51.07 27.735l-.744-3.137c.386-.605 1.624-.578 2.284-.633.055 1.074.138 2.147.22 3.247-.605.166-1.183.33-1.76.523M145.696 27.625c-1.156-.33-2.284-.66-3.412-.963-.99-.247-1.954-.495-2.917-.715.248-.963.523-1.899.798-2.834 1.899.495 3.935.935 5.806 1.595-.055.964-.11 1.927-.137 2.917zM53.766 27.598c-.083-1.018-.138-2.009-.193-3 .083-.027.193-.027.303-.027 1.843-.55 3.715-1.1 5.586-1.486.247.935.495 1.899.77 2.862-2.119.468-4.458.88-6.466 1.65M159.591 27.24c-1.018-.358-2.036-.715-3.054-1.046-.028-.055-.055-.082-.055-.11.412-1.018.825-2.036 1.238-3.027 1.018.33 2.036.66 3.082 1.019a142 142 0 0 0-1.1 3.136c-.056 0-.083 0-.111.028M87.665 27.157c.138-1.375.275-2.751.44-4.1 1.129-.11 2.257-.22 3.412-.33l.165 3.908a.4.4 0 0 0-.055.192zM39.87 27.02c-.385-1.046-.77-2.064-1.128-3.082v-.11c.99-.358 2.009-.688 3.027-1.018.385.908.77 1.843 1.183 2.779.028.11.055.22.083.358a421 421 0 0 0-3.165 1.073M111.301 27.02l-3.082-.165a14 14 0 0 0-.247-.606l.165-3.522c1.1.083 2.228.165 3.357.248.165 1.348.357 2.697.55 4.045zM72.834 26.965c-.137-.468-1.403-1.073-1.816-1.293-.248-.11-.495-.22-.743-.303-.385-.083-.743-.165-1.1-.248 1.1-.192 2.2-.385 3.329-.578.11.798.22 1.596.33 2.422M126.765 26.965c.082-.77.193-1.541.303-2.312 1.1.166 2.228.358 3.357.55-1.239.248-2.202.744-3.275 1.432-.137.11-.275.22-.385.33M138.404 25.81c-2.421-.496-4.815-.991-7.21-1.46.139-1.017.276-2.036.441-3.026 2.504.495 5.008 1.018 7.54 1.54-.276.964-.523 1.954-.771 2.945M61.14 25.699c-.248-.99-.468-1.954-.688-2.917 2.477-.523 4.98-1.045 7.484-1.54.138.99.303 2.008.468 3.026-2.421.468-4.843.936-7.264 1.431M167.736 25.617c-.413-.413-1.623-.66-2.201-.881-.083-.028-.165-.028-.248-.028.33-1.073.688-2.146 1.046-3.191.33 0 1.045.357 1.32.495.44.165.881.33 1.349.495-.386 1.018-.77 2.064-1.156 3.11zM31.726 25.369c-.496-.88-.853-2.174-1.211-3.055.88-.357 1.761-.715 2.642-1.045.357 1.046.742 2.119 1.128 3.192zM92.535 25.094c-.055-.826-.082-1.624-.11-2.422.303 0 3.44-.22 3.44-.082-1.1.357-1.954.99-2.78 1.788a7 7 0 0 0-.55.716M107.036 24.791a12 12 0 0 0-.495-.605 9.6 9.6 0 0 0-2.367-1.569c1.018 0 2.036.028 3.055.055a51 51 0 0 0-.193 2.119M164.214 24.323l-.11-.11c-1.844-.66-3.66-1.293-5.476-1.926-.165-.027-.33-.055-.467-.083v-.22c.412-.99.825-1.953 1.265-2.917 1.981.633 3.99 1.404 5.944 2.092-.028.082-.028.192-.028.303-.33.935-.66 1.87-.963 2.806-.055 0-.11.028-.165.055M129.984 24.158c-2.284-.385-4.623-.688-6.934-.963.303-.99.605-1.954.936-2.917 2.2 0 4.567.523 6.74.853-.164.99-.33 2.009-.494 3.027zM35.193 24.13c-.276-.88-1.073-2.366-1.073-3.191l5.86-2.064h.22c.386.99.798 2.009 1.211 3.027-1.21.412-2.421.825-3.632 1.265-.88.303-1.733.633-2.586.964M69.367 24.13c-.165-1.045-.33-2.063-.468-3.081 2.23-.303 4.486-.606 6.742-.88.275.962.578 1.953.88 2.944-2.366.275-4.787.632-7.154 1.018M145.888 23.69c-.385-.137-.77-.275-1.128-.385-.77-.22-1.513-.44-2.256-.633.275-1.073.577-2.146.88-3.22.963.248 1.926.524 2.89.799-.083 1.128-.138 2.284-.193 3.44zM53.546 23.635l-.248-3.467c.963-.275 1.954-.55 2.944-.798.275 1.073.633 2.202.798 3.302-1.183.303-2.339.633-3.494.963M121.812 23.443l-2.229-.248c.138-.908.22-2.642.743-3.44.88 0 1.816.11 2.724.193a130 130 0 0 0-1.045 3.495zM77.512 22.975c-.358-1.156-.716-2.284-1.046-3.412 1.073-.083 2.147-.303 3.22-.303.192.193.247.468.33.743.137.908.275 1.816.44 2.724-.99.083-1.981.165-2.944.248M114.933 22.81c-.853-.083-1.678-.165-2.504-.22-.165-1.101-.303-2.202-.44-3.275.99 0 2.091-.137 3.082.055.302.22.247.606.22.963-.138.826-.248 1.651-.358 2.477M141.486 22.48c-1.871-.468-3.742-.908-5.613-1.349.247-1.1.495-2.174.77-3.247 1.899.165 3.935.826 5.779 1.321a566 566 0 0 0-.826 3.275zM58.003 22.397c-.082-.358-.963-3.164-.798-3.33 1.844-.44 3.715-.88 5.586-1.293a.3.3 0 0 1 .138.028c.247 1.073.495 2.174.77 3.274zM84.914 22.342a144 144 0 0 1-.386-3.192c.083-.192.275-.275.468-.33h2.614a119 119 0 0 0-.385 3.274zM88.188 22.04c.11-1.019.22-2.037.358-3.055 2.256-.22 4.54-.385 6.823-.44.028 1.018.056 2.036.11 3.082-2.42.11-4.87.22-7.291.412M110.833 22.012c-2.036-.138-4.072-.248-6.081-.358.055-1.018.11-2.036.193-3.027 2.008.138 4.044.275 6.08.44.11.964.22 1.954.33 2.945zM169.469 21.654c-3.22-1.266-6.521-2.504-9.823-3.494v-3.715c.66 0 1.348.247 1.981.385a97 97 0 0 1 7.787 2.834c.963.633 2.256.963 3.247 1.624 0 .275-2.67 2.09-3 2.339-.082 0-.137 0-.192.027M96.388 21.627c-.055-1.046-.083-2.064-.11-3.082 2.558 0 5.117.027 7.704.055-.055.99-.11 2.008-.138 3.027zM29.937 21.462c-.99-.744-2.036-1.596-3.054-2.284-.028-.055-.028-.083-.028-.11 2.697-1.569 5.669-2.56 8.558-3.66 1.486-.44 2.972-1.018 4.54-1.21-.028 1.21-.055 2.42-.055 3.659-.853.275-1.679.578-2.504.88-2.504.908-4.98 1.816-7.457 2.725M134.717 20.939c-1.844-.358-3.687-.716-5.503-1.046.165-1.128.358-2.229.55-3.33l5.944 1.074c-.276 1.1-.523 2.201-.77 3.302zM64.662 20.884c-.275-1.101-.523-2.202-.77-3.302 1.953-.358 3.934-.716 5.915-1.046.165 1.1.33 2.229.523 3.357-1.898.33-3.797.66-5.668.99M128.058 19.783c-1.266-.165-2.531-.33-3.797-.468.33-1.1.66-2.201 1.018-3.274 1.156 0 2.394.247 3.55.385-.193 1.1-.358 2.229-.523 3.357zM71.293 19.756c-.165-1.156-.33-2.284-.495-3.413l3.55-.412a208 208 0 0 0 .963 3.274c-1.349.165-2.697.358-4.018.55M146.274 19.26c-1.761-.495-3.55-1.046-5.338-1.43-.028-.083-.028-.166-.028-.22l.826-2.973h.248c1.733.468 3.494.936 5.255 1.404-.192.275-.385.55-.55.825a5 5 0 0 0-.193.578c-.055.605-.11 1.21-.137 1.816zM53.243 19.178c-.11-.743-.193-1.459-.275-2.174-.138-.33-.468-.716-.578-1.046 1.788-.523 3.66-1.046 5.476-1.403.275 1.045.577 2.119.88 3.192-1.843.44-3.715.908-5.503 1.43M173.432 18.627c-.22-.137-.413-.275-.605-.412-1.073-.496-2.12-.991-3.165-1.459 0-.523.55-1.568.88-2.064.138-.412.331-1.073.744-1.265 1.266 0 2.531.99 3.467 1.678.055.083.11.165.165.275-.11 1.046-.798 2.56-1.486 3.247M26.03 18.407c-.193-.413-.716-.853-.798-1.348-.11-.193-.22-.385-.303-.578l-.33-1.32c.523-1.046 2.201-1.597 3.247-1.927.193 0 .385.027.578.055.495 1.046.99 2.091 1.486 3.164-.963.44-1.927.909-2.89 1.376zM110.393 18.105l-3.164-.248c.055-1.156.11-2.312.192-3.467.99.082 2.009.165 3.027.247.138 1.156.275 2.312.44 3.468zM88.628 18.022c.11-1.156.248-2.311.385-3.467l3.578-.248.082 3.357c-1.348.11-2.697.22-4.045.358M105.523 17.774c-1.733-.082-3.44-.137-5.145-.192.027-1.156.082-2.284.137-3.412 1.981 0 3.99.082 5.971.192a133 133 0 0 0-.22 3.412zM93.636 17.664c-.055-1.155-.11-2.284-.137-3.412 2.008-.11 4.044-.082 6.053-.082l-.083 3.412zM139.752 17.582a238 238 0 0 0-3.742-.853c-1.073-.22-2.146-.413-3.22-.606.166-1.1.33-2.174.496-3.247 2.476.413 4.98.99 7.43 1.486 0 .055 0 .11.027.193-.276.99-.55 2.009-.798 3.027zM59.654 17.527l-.825-3.22a593 593 0 0 1 7.456-1.513c.166 1.073.358 2.146.55 3.247zM131.635 15.93c-2.009-.302-4.017-.577-5.998-.852.137-.606.275-1.211.44-1.789 0-.468.027-.908.055-1.348 2.008 0 4.237.44 6.218.715-.165 1.073-.33 2.174-.467 3.275zM67.799 15.903c-.193-1.1-.385-2.201-.55-3.274a72 72 0 0 1 2.586-.44c.77-.11 1.568-.22 2.366-.303h1.266c0 1.128.248 2.063.523 3.137-1.871.082-3.77.467-5.613.715zM147.897 15.27c-2.972-.853-5.998-1.596-8.998-2.284a185 185 0 0 0-3.797-.77c-2.889-.44-5.778-.936-8.667-1.266-.138 0-.276 0-.386.028-.275-1.101-.798-2.23-1.21-3.275 7.677.66 15.436 2.257 22.92 4.018l3.467.908c-.55.688-1.76 1.458-2.448 1.953-.166.248-.606.606-.881.688M51.565 15.215c-.276-.275-.55-.55-.826-.798a30 30 0 0 1-2.394-1.788.4.4 0 0 1 .083-.11c.935-.276 1.898-.523 2.861-.77 7.292-1.707 14.666-3.138 22.096-4.046l1.403-.082c-.385.963-1.073 2.063-1.21 3.109a1.6 1.6 0 0 0-.386.11c-7.1.716-14.088 2.312-20.967 4.128zM164.214 14.692a23.8 23.8 0 0 0-4.513-1.21c.055-1.239.028-2.642 1.019-3.522 1.238 0 2.586.44 3.797.742.412.166.963.33.963.854-.385.963-.77 1.953-1.156 2.944v.192zM35.248 14.445l-1.156-2.972c0-.44.028-.495.413-.77 1.32-.523 2.751-.771 4.155-.991.66.33.798.935.99 1.568.055.633.138 1.294.22 1.954-1.568.248-3.109.743-4.622 1.21M109.76 13.674c-1.706-.11-3.412-.22-5.09-.33.055-1.128.11-2.256.192-3.384 1.899.137 3.797.275 5.723.412-.687.468-.357 2.642-.275 3.302zM89.124 13.592c.027-.633.055-1.266.11-1.899l-.166-1.32 2.064-.248c1.376-.083 2.78-.138 4.182-.193.028 1.1.056 2.201.11 3.302-2.09.083-4.21.138-6.3.358M102.634 13.289c-2.064-.027-4.182-.11-6.246-.055-.055-1.1-.11-2.201-.138-3.302 2.56 0 5.118 0 7.705.027-.083 1.101-.165 2.202-.248 3.33zM151.887 11.858c-1.568-.44-3.137-.88-4.705-1.293.055-.138.137-.275.22-.413.248-1.1.523-2.174.798-3.247 1.403-.33 3.715.495 4.733 1.514.11.357.247.688.247 1.073-.385.77-.77 1.568-1.128 2.366zM47.575 11.693c-.523-.523-.743-1.568-1.156-2.256 0-.55.138-1.156.605-1.486 1.129-.605 2.862-1.459 4.21-1.21.055.027.11.054.165.11.248 1.21.468 2.503.991 3.659-1.568.413-3.22.88-4.815 1.183M111.109 9.492c-1.046-.11-2.064-.193-3.082-.275l-5.393-.248h-7.016c-2.23.11-4.43.248-6.632.385 0-.165-.275-.22-.385-.247-.33-.991-1.21-1.734-1.65-2.642 7.373-.715 14.885-.66 22.287-.523 1.513.083 3.054.193 4.595.303-.248.303-.495.605-.715.935-.743.688-1.376 1.514-2.009 2.312M141.293 9.354c-2.009-.495-4.127-.825-6.163-1.183a.7.7 0 0 1 .137-.165c.22-.99.44-1.981.66-2.944.22-.468.44-.523.908-.523 1.349.247 2.697.495 4.073.77.33.11.523.193.715.468 0 .165 0 .33.028.523-.165.935-.468 2.036-.276 3-.027 0-.054.027-.082.054M58.196 9.244c.22-1.156-.275-2.284-.275-3.44.11-.22.247-.33.44-.467 1.486-.44 3.11-.688 4.65-.908.33.082.44.247.633.495.193.88.385 1.789.578 2.697.055.137.137.275.22.412a419 419 0 0 0-6.246 1.211M128.994 7.235c-1.513-.247-3.027-.357-4.54-.495-.055-1.183-.083-2.366-.11-3.522.688-1.046 4.622-.715 5.228.275a52 52 0 0 0-.385 2.202c0 .385-.11 1.155.055 1.485a.8.8 0 0 0-.248.055M70.33 7.18c0-.495.028-.99.055-1.485-.027-.22-.495-2.037-.275-2.477.275-.138.55-.275.826-.385.963-.22 3.77-.798 4.32.33-.055 1.156-.11 2.311-.138 3.495-.55.027-1.073.055-1.596.082a112 112 0 0 0-3.192.44M86.372 5.53c-.248-1.101-.495-2.202-.743-3.275 0-.77 1.733-1.018 2.229-1.128.688-.055 2.586-.358 2.971.412 0 1.101-.137 2.642.358 3.66-1.623.11-3.22.22-4.815.33M114.19 5.337c-1.568-.11-3.11-.22-4.65-.303a.4.4 0 0 1-.11-.082c.165-.166.192-.991.22-1.239l.082-2.449c.633-.633 2.532-.275 3.357-.137.413.11.826.247 1.266.385.303.137.578.77.743 1.046 0 .715-.33 2.173-.715 2.751-.083 0-.138 0-.193.028M97.158 4.952c.385-1.156-.688-3.495.88-3.88 1.514-.055 3.22-.22 4.706.027.247.11.385.413.44.66 0 .991-.11 2.257.33 3.165-2.118 0-4.237 0-6.356.027" style="font-size:12px;fill:#fde100;fill-opacity:1;stroke:none;stroke-width:1.05830002;stroke-dasharray:none;stroke-opacity:1" transform="matrix(2.36624 0 0 2.13605 13.942 -.29)"/></g><path d="M258.828-401.14h74.505v54.423h-74.505z" style="fill:#d62c26;fill-opacity:1;fill-rule:nonzero;stroke:#000;stroke-width:.92586994;stroke-linecap:square;stroke-linejoin:round;stroke-miterlimit:4;stroke-dasharray:none;stroke-opacity:1" transform="matrix(2.0001 0 0 1.99987 -416.7 953.155)"/><path d="M333.333-401.14h74.505v54.423h-74.505z" style="fill:#fff;fill-opacity:1;fill-rule:nonzero;stroke:#000;stroke-width:.92586994;stroke-linecap:square;stroke-linejoin:round;stroke-miterlimit:4;stroke-dasharray:none;stroke-opacity:1" transform="matrix(2.0001 0 0 1.99987 -416.7 953.155)"/><path d="M258.828-346.718h74.505v54.423h-74.505z" style="fill:#009544;fill-opacity:1;fill-rule:nonzero;stroke:#000;stroke-width:.92586994;stroke-linecap:square;stroke-linejoin:round;stroke-miterlimit:4;stroke-dasharray:none;stroke-opacity:1" transform="matrix(2.0001 0 0 1.99987 -416.7 953.155)"/><path d="M333.333-346.717h74.505v54.423h-74.505z" style="fill:#d62c26;fill-opacity:1;fill-rule:nonzero;stroke:#000;stroke-width:.92586994;stroke-linecap:square;stroke-linejoin:round;stroke-miterlimit:4;stroke-dasharray:none;stroke-opacity:1" transform="matrix(2.0001 0 0 1.99987 -416.7 953.155)"/><path d="M407.838-292.91c0 36.355-33.357 65.826-74.505 65.826s-74.505-29.471-74.505-65.827h149.01z" style="fill:#0072c6;fill-opacity:1;fill-rule:nonzero;stroke:#000;stroke-width:.98289984;stroke-linecap:square;stroke-linejoin:round;stroke-miterlimit:4;stroke-dasharray:none;stroke-opacity:1" transform="matrix(2.0001 0 0 1.99987 -416.7 953.155)"/><path d="M85.18 120.556c8.461 0 12.292 1.542 17.97 2.5 3.255-10.01 8.548-15.944 13.562-22.438-4.6.73-5.775.77-6.375 2.75-1.256.938-3.71-.76-2.688 5.188-6.888-1.846-3.673 4.486-4.25 7.75l-6.375-1.788c-.615-4.062 2.479-4.604 2.813-6.087.33-1.47-2.66-4.313-1-5.438 1.702-1.154 4.394-7.606.812-11.187 0 3.414-1.019 8.548-3.812 8.375-2.86-.178-2.383 4.122-.75 5.937 1.637 1.82-1.214 3.246-1.938 7.688l-6.25-.936c1.141-.86.901-1.663.75-3.814 1.5-1.25 2.634-2.775 1.5-6-2.832-.39-.663-4.114.25-7-.19-2.137-.915-4.541-4.218-8-3.304 3.459-4.029 5.863-4.22 8 .914 2.886 3.083 6.61.25 7-1.133 3.225 0 4.75 1.5 6-.15 2.15-.39 2.955.75 3.814l-6.25.936c-.722-4.442-3.574-5.868-1.937-7.688 1.634-1.815 2.11-6.115-.75-5.937-2.793.173-3.812-4.96-3.812-8.375-3.582 3.581-.89 10.033.812 11.187 1.66 1.125-1.33 3.969-1 5.438.335 1.483 3.428 2.025 2.813 6.087l-6.375 1.788c-.577-3.264 2.638-9.596-4.25-7.75 1.021-5.948-1.432-4.25-2.688-5.188-.6-1.98-1.774-2.02-6.375-2.75 5.014 6.494 10.307 12.428 13.563 22.438 5.973-.845 10.016-2.5 17.969-2.5zM104.405 137.01l-52.15-17.855 9.37 12.198 1.414-5.304 39.598 13.966 1.414 2.828 10.784 4.596-1.547-4.463 4.817-1.9-10.474-4.42z" style="opacity:1;fill:#fff;fill-opacity:1;fill-rule:evenodd;stroke:#000;stroke-width:.5;stroke-linecap:butt;stroke-linejoin:miter;stroke-miterlimit:4;stroke-dasharray:none;stroke-opacity:1" transform="matrix(1.50665 0 0 1.6705 47.155 8.648)"/><path d="m65.956 137.01 52.15-17.855-9.37 12.198-1.414-5.304-39.598 13.966-1.414 2.828-10.784 4.596 1.547-4.463-4.817-1.9 10.474-4.42z" style="opacity:1;fill:#fff;fill-opacity:1;fill-rule:evenodd;stroke:#000;stroke-width:.5;stroke-linecap:butt;stroke-linejoin:miter;stroke-miterlimit:4;stroke-dasharray:none;stroke-opacity:1" transform="matrix(1.50665 0 0 1.6705 47.155 8.648)"/><path d="M156.21 88.786v5.719l-.281.281h-5.719v3.438h5.719l.469.281v6.219h-13.25v.75h.875c.742 0 1.351.114 1.78.375.444.247.733.536.876.875s.219 1.177.219 2.531v17.438c0 1.328-.076 2.156-.22 2.468q-.272.664-.78.938c-.47.273-1.107.406-1.875.406h-.875v.719h13.875v-.719h-.907c-.742 0-1.338-.128-1.78-.375-.43-.26-.72-.568-.876-.906-.143-.339-.187-1.177-.187-2.531v-8.22h9.343v8.22c0 1.328-.075 2.156-.218 2.468-.196.443-.474.755-.813.938-.456.273-1.062.406-1.844.406h-.843v.719h13.812v-.719h-.875c-.742 0-1.307-.128-1.75-.375-.443-.26-.732-.568-.875-.906s-.219-1.177-.219-2.531v-17.438c0-1.328.076-2.125.22-2.437.194-.443.442-.756.78-.938.456-.273 1.063-.406 1.844-.406h.875v-.75h-13.25v-6.219l.469-.281h5.719v-3.438h-5.72l-.28-.281v-5.719zm27.469 15.344c-2.357 0-4.294.734-5.844 2.219s-2.344 3.297-2.344 5.406c0 1.237.284 2.378.844 3.406.573 1.029 1.383 1.948 2.438 2.782 1.054.833 2.81 1.846 5.218 3.03 1.719.847 2.917 1.53 3.594 2.063.677.521 1.175 1.07 1.5 1.657.339.585.5 1.187.5 1.812 0 1.055-.44 1.987-1.312 2.781-.86.795-2.01 1.188-3.47 1.188-1.887 0-3.64-.716-5.28-2.188-1.628-1.484-2.74-3.656-3.313-6.468h-.719v10h.72c.233-.534.528-.928.905-1.188.378-.26.756-.375 1.094-.375.404 0 .906.115 1.531.375 1.12.469 2.04.8 2.782.969s1.541.25 2.375.25c2.656 0 4.843-.787 6.562-2.375 1.732-1.602 2.594-3.505 2.594-5.719 0-1.745-.526-3.302-1.594-4.656-1.08-1.354-3.182-2.79-6.281-4.313-2.214-1.093-3.607-1.851-4.219-2.281-.833-.599-1.435-1.232-1.812-1.844a3 3 0 0 1-.438-1.562c0-.925.388-1.735 1.156-2.438.782-.716 1.828-1.062 3.157-1.062 1.718 0 3.34.677 4.812 2.031 1.484 1.341 2.404 3.13 2.781 5.344h.813l-.219-8.844h-.594c-.169.794-.336 1.292-.53 1.5-.196.208-.475.313-.813.313-.352 0-.99-.209-1.875-.625-.873-.43-1.607-.72-2.22-.875a10 10 0 0 0-2.5-.313zm-56.094.594v.75h.875c.742 0 1.32.114 1.75.375.443.247.732.536.875.875s.219 1.177.219 2.531v17.438c0 1.328-.076 2.156-.219 2.468q-.274.664-.781.938c-.469.273-1.076.406-1.844.406h-.875v.719h13.844v-.719h-.875c-.742 0-1.339-.128-1.781-.375-.43-.26-.72-.568-.875-.906-.144-.339-.22-1.177-.22-2.531v-17.438c0-1.328.076-2.125.22-2.437.195-.443.442-.756.78-.938.47-.273 1.108-.406 1.876-.406h.875v-.75zm28.531.75h.282v9.281h-3.125v-5.5c0-1.328.044-2.125.187-2.437.195-.443.474-.756.813-.938.468-.273 1.075-.406 1.843-.406zm3.344 0h.281c.742 0 1.339.114 1.782.375.442.247.731.536.875.875.143.338.218 1.177.218 2.531v5.5h-3.156z" style="font-size:40px;font-weight:700;fill:#d62c26;fill-opacity:1;stroke:#000;stroke-width:.5;stroke-miterlimit:4;stroke-dasharray:none;stroke-opacity:1" transform="matrix(1.49261 0 0 1.68843 84.47 5.836)"/><g style="fill:#d62c26;fill-opacity:1;stroke:#000;stroke-width:.5;stroke-miterlimit:4;stroke-dasharray:none;stroke-opacity:1"><path d="m160.744 140.364-3.409 4.1h2.817v9.558h1.09v-9.557h3.081z" style="opacity:1;fill:#d62c26;fill-opacity:1;fill-rule:nonzero;stroke:#000;stroke-width:.5;stroke-linecap:square;stroke-linejoin:round;stroke-miterlimit:4;stroke-dasharray:none;stroke-opacity:1" transform="matrix(1.49261 0 0 1.68843 80.328 -7.304)"/><path d="m160.744 140.364-3.409 4.1h2.817v9.558h1.09v-9.557h3.081z" style="opacity:1;fill:#d62c26;fill-opacity:1;fill-rule:nonzero;stroke:#000;stroke-width:.5;stroke-linecap:square;stroke-linejoin:round;stroke-miterlimit:4;stroke-dasharray:none;stroke-opacity:1" transform="matrix(1.49261 0 0 1.68843 80.328 -7.304)"/></g><g style="fill:#d62c26;fill-opacity:1;stroke:#000;stroke-width:.5;stroke-miterlimit:4;stroke-dasharray:none;stroke-opacity:1"><path d="m160.744 140.364-3.409 4.1h2.817v9.558h1.09v-9.557h3.081z" style="opacity:1;fill:#d62c26;fill-opacity:1;fill-rule:nonzero;stroke:#000;stroke-width:.5;stroke-linecap:square;stroke-linejoin:round;stroke-miterlimit:4;stroke-dasharray:none;stroke-opacity:1" transform="scale(1.49261 1.68843)rotate(-30 179.944 57.562)"/><path d="m160.744 140.364-3.409 4.1h2.817v9.558h1.09v-9.557h3.081z" style="opacity:1;fill:#d62c26;fill-opacity:1;fill-rule:nonzero;stroke:#000;stroke-width:.5;stroke-linecap:square;stroke-linejoin:round;stroke-miterlimit:4;stroke-dasharray:none;stroke-opacity:1" transform="scale(1.49261 1.68843)rotate(-30 179.944 57.562)"/></g><g style="fill:#d62c26;fill-opacity:1;stroke:#000;stroke-width:.5;stroke-miterlimit:4;stroke-dasharray:none;stroke-opacity:1"><path d="m160.744 140.364-3.409 4.1h2.817v9.558h1.09v-9.557h3.081z" style="opacity:1;fill:#d62c26;fill-opacity:1;fill-rule:nonzero;stroke:#000;stroke-width:.5;stroke-linecap:square;stroke-linejoin:round;stroke-miterlimit:4;stroke-dasharray:none;stroke-opacity:1" transform="scale(-1.49261 1.68843)rotate(-30 -34.63 858.361)"/><path d="m160.744 140.364-3.409 4.1h2.817v9.558h1.09v-9.557h3.081z" style="opacity:1;fill:#d62c26;fill-opacity:1;fill-rule:nonzero;stroke:#000;stroke-width:.5;stroke-linecap:square;stroke-linejoin:round;stroke-miterlimit:4;stroke-dasharray:none;stroke-opacity:1" transform="scale(-1.49261 1.68843)rotate(-30 -34.63 858.361)"/></g><path d="M291.49-308.258c1.057-10.403-.261-19-5.77-25.757 2.497 8.422 2.764 16.718.996 25.383q-1.337.016-2.675.034c-.892-.01-1.784-.024-2.675-.034-1.817-8.908-1.484-17.426 1.211-26.092-6.01 6.861-7.463 15.696-6.37 26.466-3.658.224-2.467-.157-4.747.458-3.962-17.375 4.868-24.107 11.789-28.949l.044-.125h.135l.24-.168-.04-.281.222.154.22-.154-.039.28.24.169h.519q.086.24.168.481c6.834 4.82 15.146 11.64 11.28 28.593-2.28-.615-1.089-.234-4.747-.458zm-25.302 1.777c-1.072-7.076-.2-13.756 3-18.979 3.103-5.062 8.43-8.738 13.79-11.116-.214-.347 1.044-1.057.831-1.404-15.536 5.667-25.575 18.94-19.735 32.286 1.322-.393.792-.393 2.114-.787zm35.9 0c1.072-7.076.2-13.756-3-18.979-3.103-5.062-8.431-8.738-13.79-11.116.214-.347-1.044-1.057-.831-1.404 15.536 5.667 25.575 18.94 19.735 32.286-1.322-.393-.792-.393-2.114-.787z" style="fill:#f8c300;stroke:#000;stroke-width:.25;stroke-miterlimit:4;stroke-dasharray:none;stroke-opacity:1" transform="matrix(2.19844 0 0 2.08817 -448.783 984.459)"/><path d="M284.504-336.874h-.924c-2.062 9.412-2.403 18.599-1.19 28.242q.826.016 1.652.034c.55-.01 1.101-.024 1.651-.034 1.214-9.643.874-18.83-1.189-28.242zM295.342-309.247c-.818-.162-1.663-.092-2.493-.12.842-10.55-1.166-19.564-8.058-26.476 9.795 5.166 12.907 18.057 10.55 26.596z" style="fill:#fde100;stroke:#000;stroke-width:.25;stroke-miterlimit:4;stroke-dasharray:none;stroke-opacity:1" transform="matrix(2.19844 0 0 2.08817 -448.783 984.459)"/><path d="M303.517-306.48c1.072-7.077.199-13.757-3.001-18.98-3.102-5.062-8.43-8.738-13.789-11.116.103-.167-.134-.417-.384-.67 14.275 5.945 23.235 18.436 18.059 31.076a7 7 0 0 0-.885-.31zM272.392-309.247c.818-.162 1.663-.092 2.493-.12-.842-10.55 1.166-19.564 8.059-26.476-9.796 5.166-12.908 18.057-10.552 26.596z" style="fill:#fde100;stroke:#000;stroke-width:.25;stroke-miterlimit:4;stroke-dasharray:none;stroke-opacity:1" transform="matrix(2.19844 0 0 2.08817 -448.783 984.459)"/><path d="M264.76-306.48c-1.071-7.077-.199-13.757 3.001-18.98 3.102-5.062 8.43-8.738 13.789-11.116-.102-.167.134-.417.384-.67-14.275 5.945-23.235 18.436-18.058 31.076.169-.077.404-.167.885-.31zM265.083-303.448l.857 2.429c11.723-2.77 23.801-2.874 36.26-.133l1.033-2.8-.041-.003c-.631 1.561-3.888 3.261-4.893.193-1.334 1.045-3.408 1.079-4.249-1.528l-.32-.032c-.835.92-2.31 2.14-3.538 1.518-.76-.385-1.157-1.293-1.268-1.584l-.103-.01c-1.37 1.57-3.714 1.898-4.83-.125-1.135 2.058-3.469 1.613-4.827-.027 0 0-.462 1.285-1.373 1.746-1.349.683-2.894-.365-3.685-1.384-.767 2.945-3.037 2.51-4.422 1.426-.895 2.735-3.581 1.681-4.6.314zM284.041-340.809c1.193 0 2.16.934 2.16 2.086s-.967 2.085-2.16 2.085c-1.192 0-2.16-.934-2.16-2.085 0-1.152.968-2.086 2.16-2.086z" style="fill:#fde100;stroke:#000;stroke-width:.25;stroke-miterlimit:4;stroke-dasharray:none;stroke-opacity:1" transform="matrix(2.19844 0 0 2.08817 -448.783 984.459)"/><path d="m121.519 19.146.001.536h-3.433v-.536h1.417v-2.774h-.985l-.31.389v-1.377l.31.389h.985v-.985l-.389-.31h1.377l-.389.31v.985h.984l.311-.39v1.378l-.311-.389h-.984v2.774z" style="fill:#f8c300;stroke:#000;stroke-width:.19950446;stroke-miterlimit:4;stroke-dasharray:none;stroke-opacity:1" transform="matrix(2.80339 0 0 2.57141 -160.19 227.226)"/><path d="M265.578-301.327c5.756-1.234 11.856-2.316 18.185-2.3 6.378.016 12.624 1.122 18.598 2.378-.24.636-.454 1.27-.6 1.909a18 18 0 0 0-.302 1.908c-5.594-.99-11.398-2.062-17.343-2.155-5.913-.094-11.608.946-16.964 2.146a50 50 0 0 0-.75-1.942c-.267-.65-.552-1.296-.824-1.944z" style="fill:#fde100;stroke:#000;stroke-width:.25;stroke-miterlimit:4;stroke-dasharray:none;stroke-opacity:1" transform="matrix(2.19844 0 0 2.08817 -448.783 984.459)"/><path d="M265.688-301.594c6.099-1.306 12.193-2.37 18.3-2.382 6.106-.011 12.2 1.043 18.304 2.38a.37.37 0 0 1 .2.131c.052.063.086.14.086.216a.21.21 0 0 1-.086.174.25.25 0 0 1-.2.033c-6.103-1.256-12.2-2.242-18.304-2.231-6.106.01-12.2 1.01-18.3 2.235-.079.015-.153.003-.201-.036a.22.22 0 0 1-.082-.175.36.36 0 0 1 .082-.215.36.36 0 0 1 .2-.13z" style="fill:#f8c300;stroke:#000;stroke-width:.25;stroke-miterlimit:4;stroke-dasharray:none;stroke-opacity:1" transform="matrix(2.19844 0 0 2.08817 -448.783 984.459)"/><path d="M283.991-305.523c-1.135 2.058-3.47 1.613-4.827-.027 0 0-.462 1.285-1.373 1.746-1.349.683-2.894-.365-3.685-1.384-.768 2.945-3.038 2.51-4.422 1.426-1.008 3.079-4.285 1.357-4.9-.21l-.13-.461.39-.461.477.754c1.758 2.949 4.145.917 3.642-1.467l.39-.084.26.378c.77 3.23 4.638 1.357 3.426-1.76l.694-.043c.465 2.757 4.51 4.028 5.029.503.043-.377.26-.545.26-.545 1.1 3.984 4.619 2.01 4.77-.838.15 2.847 3.67 4.822 4.769.838 0 0 .36.064.403.441.519 3.525 4.421 2.358 4.886-.399l.694.042c-1.212 3.118 2.656 4.99 3.425 1.76l.26-.377.39.084c-.502 2.384 1.885 4.416 3.643 1.467l.476-.754.39.461-.13.461c-.614 1.567-3.891 3.289-4.899.21-1.385 1.084-3.655 1.52-4.422-1.426-.79 1.02-2.336 2.067-3.685 1.384-.911-.461-1.301-1.677-1.301-1.677-1.358 1.64-3.764 2.016-4.9-.042z" style="fill:#f8c300;stroke:#000;stroke-width:.25;stroke-miterlimit:4;stroke-dasharray:none;stroke-opacity:1" transform="matrix(2.19844 0 0 2.08817 -448.783 984.459)"/><path d="M269.38-306.529c.384 0 .694.3.694.67s-.31.67-.694.67a.68.68 0 0 1-.693-.67c0-.37.31-.67.693-.67zM279.005-307.954c.384 0 .694.3.694.67s-.31.67-.694.67a.68.68 0 0 1-.693-.67c0-.37.31-.67.693-.67zM298.604-306.529c-.384 0-.694.3-.694.67s.31.67.694.67c.382 0 .693-.3.693-.67s-.31-.67-.693-.67zM288.979-307.954c-.384 0-.694.3-.694.67s.31.67.694.67c.382 0 .693-.3.693-.67s-.31-.67-.693-.67z" style="fill:#f8c300;stroke:#000;stroke-width:.25;stroke-miterlimit:4;stroke-dasharray:none;stroke-opacity:1" transform="matrix(2.19844 0 0 2.08817 -448.783 984.459)"/><path d="m119.703 48.202 1.127.64 1.125.642-1.125.64-1.127.64-1.126-.64-1.126-.64 1.126-.641z" style="fill:#f8c300;fill-opacity:1;stroke:#000;stroke-width:.19950446;stroke-miterlimit:4;stroke-dasharray:none;stroke-opacity:1" transform="matrix(2.80339 0 0 2.57141 -160.19 227.226)"/><path d="m266.124-300.044 1.707.155-1.096 1.336c-.564.2-1.174-1.144-.611-1.49z" style="fill:#fde100;fill-opacity:1;stroke:#000;stroke-width:.25;stroke-miterlimit:4;stroke-dasharray:none;stroke-opacity:1" transform="matrix(2.19844 0 0 2.08817 -448.783 984.459)"/><path d="m265.824-300.745 3.222.356-2 2.54c-.32-.14-.41-.38-.313-.704l1.099-1.336-1.708-.155q-.462-.189-.3-.701z" style="fill:#f8c300;fill-opacity:1;stroke:#000;stroke-width:.25;stroke-miterlimit:4;stroke-dasharray:none;stroke-opacity:1" transform="matrix(2.19844 0 0 2.08817 -448.783 984.459)"/><path d="m302.04-300.12-1.658.425 1.31 1.143c.59.108.962-1.315.348-1.568z" style="fill:#fde100;fill-opacity:1;stroke:#000;stroke-width:.25;stroke-miterlimit:4;stroke-dasharray:none;stroke-opacity:1" transform="matrix(2.19844 0 0 2.08817 -448.783 984.459)"/><path d="m302.216-300.86-3.118.864 2.407 2.187c.29-.187.34-.439.188-.743l-1.311-1.143 1.658-.425q.423-.26.176-.74zM273.719-302.502l2.184-.23c.821-.085 1.513.61 1.513 1.384v.351c0 .747-.612 1.305-1.36 1.383l-2.185.23c-.82.085-1.512-.61-1.512-1.384v-.351c0-.748.612-1.305 1.36-1.383z" style="fill:#f8c300;fill-opacity:1;stroke:#000;stroke-width:.25;stroke-miterlimit:4;stroke-dasharray:none;stroke-opacity:1" transform="matrix(2.19844 0 0 2.08817 -448.783 984.459)"/><path d="m273.795-301.822 2.185-.229c.398-.041.727.316.727.703v.351c0 .386-.33.661-.727.703l-2.185.229c-.398.041-.727-.316-.727-.703v-.351c0-.387.33-.661.727-.703z" style="fill:#fde100;fill-opacity:1;stroke:#000;stroke-width:.25;stroke-miterlimit:4;stroke-dasharray:none;stroke-opacity:1" transform="matrix(2.19844 0 0 2.08817 -448.783 984.459)"/><path d="m294.049-302.502-2.185-.23c-.821-.085-1.513.61-1.513 1.384v.351c0 .747.612 1.305 1.36 1.383l2.185.23c.82.085 1.512-.61 1.512-1.384v-.351c0-.748-.611-1.305-1.36-1.383z" style="fill:#f8c300;fill-opacity:1;stroke:#000;stroke-width:.25;stroke-miterlimit:4;stroke-dasharray:none;stroke-opacity:1" transform="matrix(2.19844 0 0 2.08817 -448.783 984.459)"/><path d="m293.972-301.822-2.185-.229c-.397-.041-.727.316-.727.703v.351c0 .386.33.661.727.703l2.185.229c.398.041.727-.316.727-.703v-.351c0-.387-.33-.661-.727-.703z" style="fill:#fde100;fill-opacity:1;stroke:#000;stroke-width:.25;stroke-miterlimit:4;stroke-dasharray:none;stroke-opacity:1" transform="matrix(2.19844 0 0 2.08817 -448.783 984.459)"/><path d="M284.02-313.658c.34 0 .623.829.679 1.918.328-.36.672-.589.934-.589.47 0 .5.74.065 1.65s-1.17 1.65-1.64 1.65l-.023-.001h-.051c-.47 0-1.206-.738-1.64-1.649-.436-.91-.406-1.65.064-1.65.262 0 .606.23.934.59.056-1.09.339-1.919.679-1.919z" style="fill:#f8c300;stroke:#000;stroke-width:.25;stroke-miterlimit:4;stroke-dasharray:none;stroke-opacity:1" transform="matrix(2.19844 0 0 2.08817 -448.783 984.459)"/><path d="M279.227-308.357c0-.328.859-.6 1.987-.655-.373-.317-.61-.649-.61-.901 0-.455.765-.483 1.708-.063s1.708 1.13 1.708 1.584v.071c0 .455-.765 1.164-1.708 1.584s-1.708.392-1.708-.063c0-.253.237-.584.61-.901-1.128-.055-1.987-.327-1.987-.656z" style="fill:#f8c300;stroke:#000;stroke-width:.25;stroke-miterlimit:4;stroke-dasharray:none;stroke-opacity:1" transform="matrix(2.19844 0 0 2.08817 -448.783 984.459)"/><path d="M288.813-308.357c0-.328-.858-.6-1.986-.655.372-.317.61-.649.61-.901 0-.455-.766-.483-1.709-.063s-1.708 1.13-1.708 1.584v.071c0 .455.765 1.164 1.708 1.584s1.708.392 1.708-.063c0-.253-.237-.584-.61-.901 1.129-.055 1.987-.327 1.987-.656z" style="fill:#f8c300;stroke:#000;stroke-width:.25;stroke-miterlimit:4;stroke-dasharray:none;stroke-opacity:1" transform="matrix(2.19844 0 0 2.08817 -448.783 984.459)"/><path d="M284.02-309.722c.781 0 1.415.612 1.415 1.366 0 .753-.634 1.365-1.414 1.365-.781 0-1.414-.612-1.414-1.365 0-.754.633-1.366 1.414-1.366z" style="fill:#fde100;fill-opacity:1;stroke:#000;stroke-width:.25;stroke-miterlimit:4;stroke-dasharray:none;stroke-opacity:1" transform="matrix(2.19844 0 0 2.08817 -448.783 984.459)"/><path d="M284.02-309.04c.391 0 .708.306.708.684a.695.695 0 0 1-.707.682.695.695 0 0 1-.707-.682c0-.378.316-.683.707-.683z" style="fill:#f8c300;fill-opacity:1;stroke:#000;stroke-width:.25;stroke-miterlimit:4;stroke-dasharray:none;stroke-opacity:1" transform="matrix(2.19844 0 0 2.08817 -448.783 984.459)"/><path d="M306.586-309.891c-.198-.08-.496.025-.817.268-.317.24-.654.622-.96 1.086-.162-.462-.418-.815-.7-.93-.504-.205-.815.702-.779 1.451s.118.99.26 1.382c.144.395.332.692.54.794l.02.009q.006.005.013.006c.347-.7.716-1.394 1.127-2.067.412-.675.856-1.337 1.296-2z" style="fill:#f8c300;stroke:#000;stroke-width:.25;stroke-miterlimit:4;stroke-dasharray:none;stroke-opacity:1" transform="matrix(2.19844 0 0 2.08817 -448.783 984.459)"/><path d="M303.87-305.173v.001-.001z" style="fill:#fff;stroke:#000;stroke-width:.25;stroke-miterlimit:4;stroke-dasharray:none;stroke-opacity:1" transform="matrix(2.19844 0 0 2.08817 -448.783 984.459)"/><path d="M299.593-307.054c.056-.153.304-.229.671-.223.368.005.857.1 1.387.276-.233-.424-.343-.81-.258-1.042.076-.208.302-.249.604-.142.301.107.673.361 1.037.735.356.377.63.803.787 1.189.157.39.202.735.113.943l-.009.018-.001.004-.006.012v.003l-.004.007-.009.02c-.086.209-.36.394-.724.525a4.1 4.1 0 0 1-1.319.215c-.49.004-.918-.066-1.201-.186s-.42-.294-.34-.5c.088-.23.421-.454.87-.612-.504-.219-.93-.456-1.218-.671s-.434-.419-.38-.571z" style="fill:#f8c300;stroke:#000;stroke-width:.25;stroke-miterlimit:4;stroke-dasharray:none;stroke-opacity:1" transform="matrix(2.19844 0 0 2.08817 -448.783 984.459)"/><path d="M304.473-306.454a1.42 1.42 0 0 0-1.08-.061 1.26 1.26 0 0 0-.75.715c-.137.35-.118.733.024 1.07.144.344.405.646.744.824.143-.439.294-.874.473-1.298.178-.423.38-.838.59-1.25z" style="fill:#fde100;fill-opacity:1;stroke:#000;stroke-width:.25;stroke-miterlimit:4;stroke-dasharray:none;stroke-opacity:1" transform="matrix(2.19844 0 0 2.08817 -448.783 984.459)"/><path d="M304.167-305.835a.657.657 0 0 0-.9.326.77.77 0 0 0 .366.947q.248-.644.534-1.273z" style="fill:#f8c300;fill-opacity:1;stroke:#000;stroke-width:.25;stroke-miterlimit:4;stroke-dasharray:none;stroke-opacity:1" transform="matrix(2.19844 0 0 2.08817 -448.783 984.459)"/><path d="M273.26-312.854c.135-.038.278.119.404.411.128.297.24.736.314 1.255.243-.416.42-.686.738-.766s.52.62.232 1.629-1.058 1.922-1.263 1.957c-.206.034-.013.003-.02.003l-.024.004c-.007.001.181-.03-.02.004-.2.033-1.051-.57-1.456-1.387-.389-.785-.336-1.489-.059-1.558s.48.097.766.374a6 6 0 0 1 .08-1.323c.068-.34.174-.565.309-.603z" style="fill:#f8c300;stroke:#000;stroke-width:.25;stroke-miterlimit:4;stroke-dasharray:none;stroke-opacity:1" transform="matrix(2.19844 0 0 2.08817 -448.783 984.459)"/><path d="M269.985-307.194c-.012-.309.586-.662 1.417-.853-.296-.253-.482-.442-.5-.769-.016-.327.52-.566 1.283-.306.764.26 1.498 1.093 1.519 1.329s0 .015 0 .022l.003.014v.015c.001.008-.017-.216.003.023.021.239-.55 1.295-1.3 1.82-.729.51-1.33.437-1.35.083-.018-.355.15-.604.416-.955-.85.061-1.479-.115-1.491-.423z" style="fill:#f8c300;stroke:#000;stroke-width:.25;stroke-miterlimit:4;stroke-dasharray:none;stroke-opacity:1" transform="matrix(2.19844 0 0 2.08817 -448.783 984.459)"/><path d="M278.289-308.445c-.055-.373-.987-.53-2.107-.404.317-.4.516-.691.469-1.064s-.802-.351-1.605.24c-.804.592-1.365 1.644-1.344 1.88s.002.015.003.022v.014l.002.015c.001.008-.02-.216.002.023.02.239.786 1.136 1.706 1.497.971.381 1.73.156 1.677-.253s-.325-.64-.738-.947c1.13-.213 1.99-.65 1.935-1.023z" style="fill:#f8c300;stroke:#000;stroke-width:.25;stroke-miterlimit:4;stroke-dasharray:none;stroke-opacity:1" transform="matrix(2.19844 0 0 2.08817 -448.783 984.459)"/><path d="M273.591-309.069c.657-.12 1.292.415 1.376 1.22.085.822-.427 1.567-1.125 1.644-.672.075-1.247-.507-1.304-1.283-.055-.762.397-1.46 1.053-1.58z" style="fill:#fde100;fill-opacity:1;stroke:#000;stroke-width:.25;stroke-miterlimit:4;stroke-dasharray:none;stroke-opacity:1" transform="matrix(2.19844 0 0 2.08817 -448.783 984.459)"/><path d="M273.652-308.373c.332-.055.64.219.679.618.038.404-.211.77-.553.814-.336.044-.63-.241-.661-.634-.03-.388.204-.742.535-.798z" style="fill:#f8c300;fill-opacity:1;stroke:#000;stroke-width:.25;stroke-miterlimit:4;stroke-dasharray:none;stroke-opacity:1" transform="matrix(2.19844 0 0 2.08817 -448.783 984.459)"/><path d="M294.563-312.854c-.135-.038-.278.119-.404.411-.127.297-.24.736-.314 1.255-.243-.416-.42-.686-.738-.766s-.52.62-.232 1.629 1.059 1.922 1.264 1.957c.205.034.013.003.019.003l.024.004c.007.001-.18-.03.02.004.2.033 1.052-.57 1.456-1.387.39-.785.336-1.489.06-1.558-.278-.069-.482.097-.766.374a6 6 0 0 0-.08-1.323c-.068-.34-.175-.565-.31-.603z" style="fill:#f8c300;stroke:#000;stroke-width:.25;stroke-miterlimit:4;stroke-dasharray:none;stroke-opacity:1" transform="matrix(2.19844 0 0 2.08817 -448.783 984.459)"/><path d="M297.84-307.194c.012-.309-.587-.662-1.417-.853.296-.253.482-.442.499-.769s-.52-.566-1.283-.306-1.497 1.093-1.518 1.329 0 .015-.001.022l-.002.014-.001.015c0 .008.018-.216-.003.023s.55 1.295 1.301 1.82c.728.51 1.33.437 1.349.083.019-.355-.149-.604-.416-.955.85.061 1.48-.115 1.492-.423z" style="fill:#f8c300;stroke:#000;stroke-width:.25;stroke-miterlimit:4;stroke-dasharray:none;stroke-opacity:1" transform="matrix(2.19844 0 0 2.08817 -448.783 984.459)"/><path d="M289.535-308.445c.054-.373.987-.53 2.106-.404-.317-.4-.516-.691-.468-1.064s.802-.351 1.605.24c.803.592 1.364 1.644 1.343 1.88-.02.236-.002.015-.003.022v.014l-.002.015c0 .008.02-.216-.001.023s-.786 1.136-1.707 1.497c-.971.381-1.73.156-1.677-.253s.325-.64.739-.947c-1.13-.213-1.99-.65-1.935-1.023z" style="fill:#f8c300;stroke:#000;stroke-width:.25;stroke-miterlimit:4;stroke-dasharray:none;stroke-opacity:1" transform="matrix(2.19844 0 0 2.08817 -448.783 984.459)"/><path d="M294.234-309.069c-.657-.12-1.293.415-1.376 1.22-.085.822.427 1.567 1.125 1.644.672.075 1.247-.507 1.304-1.283.055-.762-.397-1.46-1.053-1.58z" style="fill:#fde100;fill-opacity:1;stroke:#000;stroke-width:.25;stroke-miterlimit:4;stroke-dasharray:none;stroke-opacity:1" transform="matrix(2.19844 0 0 2.08817 -448.783 984.459)"/><path d="M294.171-308.373c-.331-.055-.64.219-.679.618-.038.404.211.77.554.814.335.044.629-.241.66-.634.031-.388-.203-.742-.535-.798z" style="fill:#f8c300;fill-opacity:1;stroke:#000;stroke-width:.25;stroke-miterlimit:4;stroke-dasharray:none;stroke-opacity:1" transform="matrix(2.19844 0 0 2.08817 -448.783 984.459)"/><path d="M267.03-297.737a91 91 0 0 1 4.571-1.007 70 70 0 0 1 4.575-.697 67 67 0 0 1 4.574-.386 58 58 0 0 1 4.582-.077c3.05.086 5.521.271 7.982.608 2.473.338 4.937.854 7.989 1.557a.38.38 0 0 1 .285.344.3.3 0 0 1-.024.102.2.2 0 0 1-.06.074.25.25 0 0 1-.201.035c-3.052-.648-5.517-1.121-7.99-1.429-2.46-.307-4.932-.472-7.98-.544a64 64 0 0 0-4.583.078 74 74 0 0 0-4.574.358c-1.528.17-3.055.375-4.575.634-1.525.26-3.048.575-4.57.908a.24.24 0 0 1-.203-.037.2.2 0 0 1-.059-.075.25.25 0 0 1-.017-.103.3.3 0 0 1 .076-.213.37.37 0 0 1 .202-.13zM261.34-309.891c.199-.08.497.025.817.268.317.24.655.622.96 1.086.163-.462.42-.815.7-.93.504-.205.816.702.78 1.451-.037.75-.119.99-.261 1.382-.143.395-.332.692-.54.794q-.01.005-.02.009l-.012.006c-.348-.7-.717-1.394-1.127-2.067-.412-.675-.856-1.337-1.297-2z" style="fill:#f8c300;stroke:#000;stroke-width:.25;stroke-miterlimit:4;stroke-dasharray:none;stroke-opacity:1" transform="matrix(2.19844 0 0 2.08817 -448.783 984.459)"/><path d="M264.057-305.173v.001l.003.005-.003-.006z" style="fill:#fff;stroke:#000;stroke-width:.25;stroke-miterlimit:4;stroke-dasharray:none;stroke-opacity:1" transform="matrix(2.19844 0 0 2.08817 -448.783 984.459)"/><path d="M268.334-307.054c-.056-.153-.305-.229-.671-.223-.368.005-.858.1-1.388.276.234-.424.344-.81.259-1.042-.076-.208-.303-.249-.604-.142-.302.107-.673.361-1.038.735-.355.377-.63.803-.786 1.189-.158.39-.203.735-.113.943l.008.018.002.004.005.012.001.003.004.007.009.02c.086.209.359.394.724.525s.827.21 1.318.215c.491.004.918-.066 1.202-.186.282-.12.42-.294.34-.5-.089-.23-.422-.454-.87-.612.503-.219.93-.456 1.217-.671s.435-.419.38-.571z" style="fill:#f8c300;stroke:#000;stroke-width:.25;stroke-miterlimit:4;stroke-dasharray:none;stroke-opacity:1" transform="matrix(2.19844 0 0 2.08817 -448.783 984.459)"/><path d="M263.453-306.454c.355-.167.746-.18 1.08-.061.333.118.608.369.75.715.138.35.118.733-.023 1.07a1.65 1.65 0 0 1-.744.824 17 17 0 0 0-.473-1.298 20 20 0 0 0-.59-1.25z" style="fill:#fde100;fill-opacity:1;stroke:#000;stroke-width:.25;stroke-miterlimit:4;stroke-dasharray:none;stroke-opacity:1" transform="matrix(2.19844 0 0 2.08817 -448.783 984.459)"/><path d="M263.76-305.835a.657.657 0 0 1 .899.326.77.77 0 0 1-.365.947q-.247-.644-.535-1.273z" style="fill:#f8c300;fill-opacity:1;stroke:#000;stroke-width:.25;stroke-miterlimit:4;stroke-dasharray:none;stroke-opacity:1" transform="matrix(2.19844 0 0 2.08817 -448.783 984.459)"/><path d="m119.703 48.823.609.33.608.33-.608.33-.609.33-.608-.33-.608-.33.608-.33z" style="fill:#fde100;fill-opacity:1;stroke:#000;stroke-width:.19950446;stroke-miterlimit:4;stroke-dasharray:none;stroke-opacity:1" transform="matrix(2.80339 0 0 2.57141 -160.19 227.226)"/><path d="M157.179 155.532a25 25 0 0 0-2.656.563c.092.325.187.677.187 1.031 0 2.07-1.68 3.75-3.75 3.75-1.382 0-2.6-.762-3.25-1.875a25 25 0 0 0-2.125 1.469c.3.538.5 1.153.5 1.812 0 2.07-1.68 3.75-3.75 3.75a3.75 3.75 0 0 1-1.719-.437 25 25 0 0 0-1.375 2.125 3.751 3.751 0 0 1-2.125 6.844c-.206 0-.427-.03-.625-.063a25 25 0 0 0-.406 2.125c1.8.275 3.188 1.811 3.188 3.687s-1.39 3.412-3.188 3.688c.106.71.242 1.404.406 2.094a3.7 3.7 0 0 1 1.032-.157c2.07 0 3.75 1.68 3.75 3.75 0 1.436-.814 2.652-2 3.282.377.638.788 1.243 1.218 1.843a3.74 3.74 0 0 1 1.938-.562c2.07 0 3.75 1.68 3.75 3.75 0 .76-.235 1.471-.625 2.062.676.523 1.397.985 2.125 1.438.605-1.258 1.855-2.125 3.344-2.125a3.75 3.75 0 0 1 3.5 5.094c.85.221 1.71.4 2.593.531.289-1.784 1.823-3.156 3.688-3.156 1.876 0 3.413 1.387 3.687 3.187.916-.135 1.807-.33 2.688-.562a3.6 3.6 0 0 1-.219-1.25c0-2.07 1.68-3.75 3.75-3.75 1.451 0 2.69.824 3.313 2.031a25 25 0 0 0 1.968-1.375 3.73 3.73 0 0 1-.687-2.125c0-2.07 1.68-3.75 3.75-3.75.75 0 1.444.244 2.031.625.448-.62.86-1.278 1.25-1.938a3.74 3.74 0 0 1-1.687-3.125c0-2.07 1.68-3.75 3.75-3.75.248 0 .484.017.718.063.158-.656.27-1.323.375-2a3.71 3.71 0 0 1-3.25-3.688 3.737 3.737 0 0 1 3.313-3.718 25 25 0 0 0-.438-2.219 3.8 3.8 0 0 1-1.187.219c-2.07 0-3.75-1.68-3.75-3.75 0-1.49.898-2.77 2.156-3.375a25 25 0 0 0-1.344-2 3.7 3.7 0 0 1-1.78.468 3.751 3.751 0 0 1-3.25-5.625 25 25 0 0 0-2.532-1.687 3.751 3.751 0 0 1-7-1.875c0-.319.081-.61.156-.906a25 25 0 0 0-2.187-.407c-.43 1.598-1.861 2.782-3.594 2.782a3.756 3.756 0 0 1-3.625-2.813zm3.656 6.75c9.936 0 17.969 8.064 17.969 18s-8.033 18-17.969 18-18-8.064-18-18 8.064-18 18-18z" style="fill:#fde100;fill-opacity:1;fill-rule:nonzero;stroke:#000;stroke-width:.5;stroke-linecap:square;stroke-linejoin:round;stroke-miterlimit:4;stroke-dasharray:none;stroke-opacity:1;display:inline" transform="matrix(2.00282 0 0 1.99985 2.418 -46.353)"/><path d="M160.813 166.25c-1.098 0-1.97.902-1.97 2 0 .728.385 1.341.97 1.688l.062 2.062c-1.157-.5-2.237-.94-2.906-1.156-1.988-.711-2.775-1.936-5.063-1.938-2.018-.001-3.65.95-4 4.063 1.92 1.162 3.888.357 5.781-.375.615.156.833.736 2.747 1.666l5.368-2.934.073-1.42c.561-.351.938-.945.938-1.656 0-1.098-.903-2-2-2zm8.937 2.656c-2.288.002-3.075 1.227-5.062 1.938-.577.187-1.47.527-2.438.937l-5.625 3.094c-2.737 2.07-4.332 4.575-.604 7.184l5.663-2.323.035-2.517c1.542 1.163 2.102 2.283.281 3.062l-5.531 2.25c-4.967 2.823-2.42 5.284.844 7.219l2.937-1.562c-2.003-1.102-3.153-2.303-.85-3.74l5.902-2.26c3.978-2.625 2.562-5.12-.146-7.22l-5.125 2.876.063 2.594-.438-.157c-1.628-.696-1.404-1.689-.225-2.715 1.76-1.179 4-2.301 5.923-3.337 1.766-.889 2.018-1.484 2.615-1.635 1.893.732 3.861 1.538 5.781.375-.35-3.113-1.981-4.064-4-4.063zm-9.5 19.281 1.219-.625.094-3.28-1.407.53zm1.313-3.906.656.25c2.147 1.34 1.405 2.434-.34 3.462-1.925 1.136-4.042 2.049-5.935 3.226-3.471 2.446.13 3.06 3.789.944l4.232-2.201c3.392-1.928 6.267-4.342 1.535-7.212zm-11.813-12.969c.244 0 .469.18.469.407s-.225.406-.469.406-.437-.18-.437-.406.193-.407.437-.406zm22.156 0c.245 0 .438.18.438.407s-.193.406-.438.406c-.244 0-.469-.18-.469-.406s.225-.406.47-.406zm-7.382 19.014-4.18 2.174.062 1.844h.938l.062-2.344c.128.07.29.151.406.219 3.659 2.115 7.44 1.322 3.97-1.125a12 12 0 0 0-1.258-.768z" style="fill:#fff;fill-opacity:1;fill-rule:evenodd;stroke:#000;stroke-width:.5;stroke-linecap:butt;stroke-linejoin:miter;stroke-miterlimit:4;stroke-dasharray:none;stroke-opacity:1" transform="matrix(2.00282 0 0 1.99985 2.418 -46.353)"/><g style="stroke:#000;stroke-width:2.41352463;stroke-miterlimit:4;stroke-dasharray:none;stroke-opacity:1;display:inline"><path d="M60.46 361.788c-7.571-7.916 37.8-29.897 55.253-42.034 1.679-10.825 17.65-31.832 36.199-28.356 4.896-.458 2.797-3.915 2.413-6.636-1.488-2.615 3.336-5.229 7.24-7.843-10.466-12.871-4.14-25.742-3.62-38.612-2.849-4.542-.51-6.49 3.016-7.843-3.053-6.119.797-13.004 4.827-19.91 3.347-12.825 1.272-24.746 0-36.802-.615-11.008-2.634-22.271 13.876-30.165-.21-14.583 4-12.95 6.033-19.306 4.01-7.792 19.11-.799 29.563 0 19.22 7.579 29.157 14.314 39.818 21.115 11.585 7.017 27.978 10.957 20.513 30.166 33.279 12.308 4.255 57.184 5.43 86.274 4.46 3.767 9.802 6.211 9.653 16.893.416 4.841 16.96 5.26 19.909 21.719-2.423 3.216 10.936 1.684 16.893 14.48 6.716-8.956 15.408-.092 33.785 3.62 13.739 5.736 30.137 7.483 47.059 8.446 14.549 6.69 20.264 9.282 35.594 12.066 15.392-3.845 19.27 2.483 24.434 9.653l-19.155 13.273z" style="opacity:1;fill:#f8c300;fill-opacity:1;fill-rule:evenodd;stroke:#000;stroke-width:2.41352463;stroke-linecap:butt;stroke-linejoin:miter;stroke-miterlimit:4;stroke-dasharray:none;stroke-opacity:1" transform="matrix(.40814 0 0 .36056 145.904 347.353)"/><path d="M218.413 160.742c18.194 28.547 42.74 27.564 57.824 20.204M190.385 184.99c31.915-11.798 37.306 26.897 33.568 65.975M193.192 253.822c52.214 5.187 63.74 28.341 77.331 55.735M160.275 290.714c18.543 1.807 33.438 7.991 47.374 15.327 9.001 6.591 8.488 20.276 21.597 26.474 11.418.845 37.888 13.884 61.308 25.08" style="opacity:1;fill:none;fill-opacity:1;fill-rule:evenodd;stroke:#000;stroke-width:1.20676231;stroke-linecap:butt;stroke-linejoin:miter;stroke-miterlimit:4;stroke-dasharray:none;stroke-opacity:1;display:inline" transform="matrix(.40814 0 0 .36056 145.904 347.353)"/></g><path d="M304.18-236.415s7.288 2.122 14.576 2.122 7.289-2.122 14.577-2.122 7.288 2.122 14.577 2.122c7.212 1.05 14.577-2.122 14.577-2.122M318.756-229.891c7.289 0 7.289-2.123 14.577-2.123s7.288 2.123 14.577 2.123" style="fill:none;fill-rule:evenodd;stroke:#fff;stroke-width:1.5;stroke-linecap:butt;stroke-linejoin:miter;stroke-miterlimit:4;stroke-dasharray:none;stroke-opacity:1" transform="matrix(2.0001 0 0 1.99987 -416.7 953.155)"/></svg>