<svg xmlns="http://www.w3.org/2000/svg" xml:space="preserve" width="300.547" height="304.889"><g fill="#008B3B"><path d="M250.99 163.64c.05-1.183-.452-5.996-2.971-4.727-1.375.689-1.787 1.602-2.065 3.076-.494 2.673-5.128 2.047-7.145 2.451-4.147.832-3.037 6.668-2.822 9.437.502 6.472-.617 19.658 9.021 21.086a.83.83 0 0 0 .724-.223c.198-.039.371-.157.478-.404 1.506-3.331 6.066-4.194 6.288-8.199.082-1.515-1.474-2.506-2.519-3.308-2.222-1.705 2.601-6.708 3.433-8.135 2.76-4.78-2.61-6.64-2.43-11.06zM263.41 79.91c-.732-.579-1.67-.928-2.502-1.348-2.699-1.356-2.099-3.442-.831-5.448 1.688-2.656 7.242-6.962 3.358-10.032a.88.88 0 0 0-.626-.19c-4.848-2.617-8.32 4.583-9.967 8.255-1.391 3.109-5.646 1.8-7.588 4.623-2.157 3.133.551 7.645-1.383 10.968-1.688 2.902-2.856 4.98-2.1 8.477.955 4.417 3.235 8.175 2.898 12.854-.132 1.8-.173 10.769 4.14 6.939 1.588-1.412 1.875-4.076 2.683-5.9.938-2.149 2.172-4.544 3.803-6.265 1.555-1.633 3.497-2.855 4.971-4.583 1.145-1.34 1.729-3.981.288-5.345-4.239-4.004 1.193-6.05 3.366-8.985 1.06-1.401.83-2.963-.51-4.017zM221.35 102.76c-.886.163-1.705.609-2.521.938-2.639 1.071-3.972-.623-4.856-2.736-1.168-2.805-1.441-9.334-6.14-8.474a.76.76 0 0 0-.512.323c-4.887 1.813-1.09 8.642.918 12.037 1.702 2.872-1.792 5.065-.637 8.151 1.28 3.425 6.462 4.271 8.025 7.656 1.363 2.955 2.365 5.043 5.611 6.643 4.099 2.021 8.431 2.709 11.998 5.797 1.372 1.189 8.561 6.685 7.954 1.319-.223-1.976-2.2-3.803-3.203-5.481-1.19-1.969-2.407-4.296-2.855-6.491-.421-2.089-.288-4.199-.832-6.288-.422-1.621-2.209-3.641-4.133-3.46-5.651.539-4.181-4.527-5.293-7.842-.52-1.61-1.9-2.4-3.52-2.1zM211.04 125.2c-.762.465-1.354 1.17-1.986 1.764-2.046 1.931-3.932.829-5.561-.824-2.157-2.195-4.902-8.17-8.943-5.707a.73.73 0 0 0-.352.481c-3.854 3.417 2.283 8.424 5.444 10.87 2.678 2.069.266 5.345 2.517 7.807 2.499 2.731 7.64 1.683 10.385 4.277 2.396 2.265 4.123 3.853 7.753 4.189 4.583.429 8.874-.466 13.37 1.143 1.728.619 10.512 3.184 7.9-1.591-.961-1.758-3.496-2.756-5.07-3.963-1.857-1.409-3.878-3.143-5.132-5.024-1.188-1.794-1.869-3.804-3.173-5.554-1.011-1.357-3.442-2.604-5.162-1.753-5.052 2.502-5.616-2.729-7.914-5.418-1.1-1.32-2.69-1.57-4.08-.71zM297.85 154.52c-1.192-1.363-2.403-2.601-3.844-3.727-3.604-2.824.313-2.625.108-4.687-.289-2.824-3.243-3.822-5.697-4.583-2.378-.746-4.098-1.594-5.48-3.632-.568-.84-.972-1.745-1.3-2.688.559-2.324 1.588-2.966 3.242-2.649.741.174 1.456.396 2.156.666 2.403.825 5.901 1.697 7.777-.705 1.26-1.602 1.407-3.965-.337-5.417-1.087-.889-2.297-1.768-3.795-1.84-2.649-.126-7.02 1.61-8.881-.904-1.341-1.808-1.176-4.25-3.744-4.924-3.341-.881-4.889 3.33-8.065 3.291.238-.46.338-.96.379-1.673.214-3.648 3.061-4.354 5.95-5.448 1.992-.754 3.334-1.808 3.777-3.561a.71.71 0 0 0 .453-.682c-.008-1.903-.297-4.005 1.004-5.623 1.095-1.348 3.713-1.84 5.275-2.688 2.132-1.158 3.572-2.998 2.856-5.369-.707-2.363-3.474-2.561-5.465-1.975-3.284.952-8.017 7.677-11.3 4.14-1.383-1.483-3.399-2.498-5.128-.746-2.848 2.879-3.563 6.629-7.028 9.111-2.988 2.158-6.354 3.593-8.025 7.019-.608 1.245-.592 2.72-.584 4.06.024 2.665-.28 5.17-1.152 7.693-.297.15-.485.443-.329.848 1.563 4.013.955 7.938 3.547 11.618 2.148 3.045 5.391 6.352 8.23 8.818 2.188 1.912 5.069 1.879 7.835 1.777 4.938-.19 5.621 4.837 8.971 7.073.561.373 1.819.531 2.453.317 3.251-1.07 5.679-.81 7.811 1.959 1.819 2.354 3.077 4.346 6.123 5.282 1.63.49 3.934-.049 4.535-1.77 1.04-3.03-.32-6.08-2.35-8.4z"/><path d="M286.49 159.08c-1.68-.864-3.613-.618-5.111.382-2.789 1.862-3.054 4.955-6.831 6.002-2.914.81-5.827-.08-8.51 1.609-2.362 1.491-2.938 4.561-5.357 6.17-2.898 1.927-4.815 3.402-6.355 6.574-1.62 3.347-2.567 6.955-4.131 10.324-1.77 3.815-3.145 9.041 2.922 9.374.04 0 .074-.015.106-.015.419.205 1.036.117 1.234-.438.939-2.664 5.515-4.18 7.959-5.234 2.453-1.055 5.136-1.348 7.384-2.822 1.629-1.071 1.966-2.902 1.975-4.664.016-4.377 4.567-4.955 7.744-6.914 1.407-.872 2.42-2.229 1.942-3.895-.691-2.41-2.313-3.449-.024-5.859 1.161-1.223 3.087-1.936 4.601-2.649 3.66-1.72 4.08-6.08.47-7.93z"/><path d="M283.11 181.56c-2.256 1.42-3.367 3.901-5.778 5.266-2.519 1.419-5.597.293-8.04 1.999-1.614 1.125-1.959 3.433-2.313 5.154-.847 4.179-3.794 6.795-5.762 10.451-.032.064-.04.127-.057.182-.42.088-.749.429-.535.928 1.062 2.46 2.56 4.576 4.247 6.678 1.662 2.078 3.292 4.894 5.654 6.273.996.579 2.058-.262 2.699-.889.822-.801 1.383-1.935 2.147-2.791.988-1.111 2.182-1.483 3.005-2.744 1.176-1.784-1.737-3.49-1.334-5.289.428-1.982 3.77-3.314 5.333-4.338 2.296-1.499 3.68-3.441 2.074-5.939-.683-1.071-4.42-2.244-1.021-4.465 1.029-.666 1.91-1.642 2.782-2.475 1.671-1.617 3.309-3.544 3.712-5.844.69-3.92-4.68-3.51-6.81-2.16zM198.9 226.95c.98 2.238 3.168 3.64 4.07 6.007.938 2.471-.652 5.016.571 7.47.808 1.619 2.955 2.311 4.542 2.912 3.854 1.448 5.865 4.5 9.032 6.855.055.04.115.057.163.08.015.389.286.736.799.63 2.528-.532 4.803-1.511 7.093-2.656 2.262-1.129 5.226-2.106 6.938-3.974.721-.787.094-1.869-.397-2.544-.63-.862-1.62-1.549-2.312-2.372-.896-1.061-1.054-2.183-2.123-3.123-1.51-1.342-3.623.96-5.278.303-1.824-.71-2.54-3.899-3.259-5.456-1.05-2.288-2.677-3.841-5.332-2.832-1.139.429-2.883 3.549-4.438.162-.465-1.024-1.252-1.97-1.902-2.88-1.269-1.755-2.837-3.529-4.969-4.27-3.62-1.28-4.12 3.56-3.19 5.68zM238.06 103.25c.873-4.393 1.119-8.754 1.267-13.227.041-1.253-.329-2.157-1.053-3.165-1.276-1.776-5.005-1.039-3.876-4.98.954-3.347.601-5.329-.881-8.461-.223-.468-.691-.492-1.054-.278-1.803-.825-4.132-1.3-4.247-3.664-.091-1.912.354-3.791.165-5.726-.198-2.102-1.876-4.869-4.387-4.925-2.897-.055-4.725 1.745-5.398 4.37-.362 1.404.361 3.054.79 4.346 1.135 3.425-.058 4.576-2.65 6.495-2.478 1.84-.963 5.845-.141 8.025 1.59 4.234.881 8.779 3.087 12.799 2.461 4.48 8.329 5.36 10.412 10.23a172 172 0 0 0 6.394 13.275c.183.349.503.444.808.38.493.04 1.077-.365.971-.991-.85-4.99-1.2-9.48-.2-14.5zM231.99 207.02c-3.259-1.333-6.593-.952-10.023-1.476-4.732-.722-3.68-5.639-6.774-7.883-3.653-2.648-9.95-3.798-9.753 2.085.189 5.465 1.778 12.546 6.107 16.32 1.424 1.238 2.93 2.094 3.868 3.791.979 1.744 1.35 3.728 2.395 5.473 2.082 3.473 6.865 4.606 9.358 7.748.387.49 1.07.389 1.398.047 4.996 1.182 3.433-19.397 2.922-24.671.8.02 1.35-1.08.49-1.43z"/></g><g fill="#2C2C2B"><path d="M281.16 188.72c-3.515 2.135-6.007 4.684-7.461 8.472-1.008 2.63-1.403 5.379-2.516 7.968-.319-1.145-.861-2.238-.977-3.461-.111-1.183-.539-1.959-1.525-2.669-.426-.307-.835.382-.415.685 1.251.899.978 1.978 1.251 3.266.249 1.178.955 2.189 1.062 3.389-1.072 1.752-2.809 3.066-3.188 5.189-.09.5.703.714.794.211.338-1.893 1.808-3.286 2.925-4.825.171-.032.318-.151.313-.37-.001-.027-.007-.053-.008-.08.07-.106.145-.21.21-.318 1.06-1.767 1.504-3.862 1.993-5.843a.43.43 0 0 0 .286-.166c1.212-1.577 3.443-1.185 5.199-.993.527.059.521-.735 0-.793-1.784-.195-3.692-.396-5.111.615 1.262-4.221 3.648-7.201 7.582-9.591.46-.29.05-.98-.4-.71zM278.18 172.33c-1.95.75-4.078.38-6.082.758 1.476-1.834 3.225-3.689 5.164-4.492.487-.202.066-.885-.415-.686-2.411 1-4.339 3.563-5.941 5.467q-.023.03-.046.057c-.026.012-.055.016-.082.027-.173.072-.227.205-.209.337-1.873 2.28-3.538 4.722-5.247 7.116l-.014.02c.168-1.045.162-2.111.352-3.182.327-1.857 1.18-3.636 1.504-5.528.086-.5-.707-.714-.794-.21-.292 1.707-.707 3.334-1.337 4.956-.657 1.692-.214 3.56-.926 5.253a.3.3 0 0 0 .061.347c-1.516 2.198-3.038 4.427-4.987 6.263-2.158 2.034-4.705 3.486-6.594 5.805-.323.398.255.963.583.562 1.727-2.12 3.953-3.628 6.069-5.353.146-.119.28-.249.42-.373a.37.37 0 0 0 .217-.061c.915-.596 2.146-.473 3.193-.654.522-.092.3-.854-.218-.766-.629.109-1.295.127-1.936.229 1.435-1.606 2.561-3.441 3.855-5.174 1.856-2.481 3.576-5.054 5.452-7.521.333-.439.691-.919 1.071-1.415 2.25-.889 4.819-.14 7.104-1.017.52-.21.31-.98-.18-.79zM256.68 79.224c-1.724.868-2.947 2.089-3.781 3.59.484-3.518 1.32-6.952 3.041-10.118.246-.453-.465-.853-.71-.4-2.916 5.363-3.301 11.371-3.749 17.317a5 5 0 0 0-.845-.846c-1.324-1.058-2.642-2.339-2.664-4.111-.007-.511-.83-.511-.823 0 .017 1.283.596 2.269 1.388 3.271.832 1.055 2.549 1.709 2.728 3.14.01.082.046.146.089.202-.19 2.362-.4 4.73-.71 7.08a10 10 0 0 0-.34 1.772.33.33 0 0 0 .05.209c-.712 4.47-1.868 8.844-4.04 12.939-.24.455.47.856.711.401 2.528-4.768 3.725-9.911 4.425-15.155a7.9 7.9 0 0 1 1.582-2.86c.822-.944 2.084-1.462 2.634-2.604.223-.46-.486-.864-.71-.4-.329.683-.924 1.05-1.513 1.506-.636.493-1.158 1.105-1.643 1.732-.018.022-.028.051-.046.074q.075-.703.142-1.407c.266-2.792.392-5.66.644-8.508a.4.4 0 0 0 .081-.163c.61-2.65 1.937-4.695 4.476-5.975.46-.239.05-.923-.42-.686zM235.54 108.74c-.744-2.981-1.407-5.999-2.29-8.936a.35.35 0 0 0 .11-.277c-.13-3.991-.161-7.983-.549-11.961-.049-.504-.873-.509-.823 0 .32 3.283.398 6.576.489 9.87a35 35 0 0 0-1.653-3.911c.146-.107.22-.287.079-.475-.42-.567-.854-1.157-1.318-1.724-.114-.183-.225-.367-.345-.548-2.131-3.214-1.188-6.676-1.861-10.189a56 56 0 0 0-.817-3.689.34.34 0 0 0 .146-.303c-.034-.879.417-1.54.904-2.245.296-.427-.418-.824-.711-.401-.315.457-.604.909-.793 1.395-.43-1.351-.955-2.675-1.65-3.972-.244-.454-.955-.053-.711.4 1.6 2.983 2.492 6.308 2.916 9.642q.05.418.083.833c-1.27-1.911-3.622-3.292-5.66-4.144-.481-.202-.901.481-.414.685 2.312.967 5.21 2.652 5.982 5.116a.37.37 0 0 0 .202.236c.074 1.783.14 3.528.775 5.264-.107-.079-.213-.161-.325-.234-.841-.55-1.706-.875-2.667-1.194-.889-.295-2.491-.071-3.195-.625-.408-.32-.994.237-.582.561 1.144.899 2.745.559 4.124 1.016 1.658.551 2.869 1.641 3.93 2.891.492.73 1.01 1.448 1.423 2.215.881 1.639 1.301 3.608 1.898 5.357 1.082 3.164 1.705 6.34 2.51 9.559.11.49.9.28.78-.21zM280.34 101.45c-2.883 1.074-5.273 2.896-7.337 5.048.169-1.189-.14-2.49-.167-3.674-.012-.511-.835-.511-.823 0 .032 1.456.756 3.522-.291 4.775a.39.39 0 0 0-.066.4 46 46 0 0 0-2.66 3.51c-1.699 2.458-3.462 4.875-5.342 7.2.979-2.548 1.584-5.214 1.261-7.954-.06-.502-.882-.508-.823 0 .412 3.496-.719 6.863-2.207 10.01-.014.029-.014.056-.021.084-1.732 1.997-3.571 3.907-5.572 5.684-.392.348.191.906.582.561 4.244-3.768 7.957-8.179 11.208-12.774 1.554-1.428 3.768-1.041 5.478-2.231.426-.296.016-.985-.415-.685-.993.691-2.05.82-3.214 1.047q-.347.07-.666.187c2.969-4.236 6.153-8.507 11.295-10.423.48-.18.27-.95-.22-.77zM228.59 140c-2.563.12-4.52-.507-6.401-1.776a.435.435 0 0 0-.429-.298 18 18 0 0 1-1.096-.864c-1.723-1.479-3.347-2.709-5.647-3.194-.518-.109-.737.655-.218.765 2.619.552 4.177 2.2 6.107 3.729-.768.474-1.474 1.034-2.255 1.497-1.426.845-3.289.452-4.876.637-.521.061-.526.854 0 .792 1.614-.188 3.263.096 4.797-.508 1.112-.438 1.998-1.287 3.02-1.894 2.074 1.503 4.425 2.027 6.998 1.906.54-.04.54-.83.01-.81zM285.35 129.59c-1.643.01-3.162-.693-4.801-.793-2.09-.127-4.401.16-6.491.312-.037.003-.071.012-.108.016 1.256-.913 2.695-1.624 4.268-1.781.522-.052.528-.846 0-.793-2.147.215-4.037 1.277-5.641 2.627a.35.35 0 0 0-.119.202c-2.595.628-4.969 2.109-7.655 2.471-.523.07-.3.835.219.764 1.188-.16 2.312-.521 3.418-.929 2.073 1.743 3.209 4.039 6.211 4.38.526.06.521-.734 0-.793-2.536-.289-3.675-2.366-5.356-3.908 1.747-.671 3.48-1.371 5.392-1.509 1.935-.141 3.923-.229 5.863-.266 1.645-.032 3.143.803 4.801.793.54 0 .54-.79.01-.79zM290.23 150.92c-.573-.158-1.124-.375-1.724-.421-.51-.038-.961.187-1.355.473a26 26 0 0 0-.726-.386c-2.462-1.257-4.398-3.313-6.548-4.988-1.452-1.132-3.139-1.935-4.786-2.789 2.851-1.044 5.416.901 8.026 1.937.491.194.702-.573.219-.765-3.062-1.214-5.808-3.274-9.147-1.653a22 22 0 0 1-1.484-.875c-1.863-1.213-3.475-2.574-5.835-2.542-.531.007-.532.8 0 .793 2.16-.03 3.756 1.288 5.42 2.434 2.032 1.399 4.398 2.37 6.512 3.657.56.342 1.097.729 1.62 1.142-.146.11-.231.298-.122.5.837 1.554 1.42 3.208 2.637 4.542.352.385.931-.178.582-.56-.993-1.088-1.536-2.431-2.172-3.723 1.104.936 2.174 1.93 3.302 2.781 1.528 1.152 3.619 1.447 4.355 3.409.179.477.974.271.794-.211-.382-1.014-1.045-1.681-1.862-2.23.67-.279 1.332.035 2.076.24.49.13.7-.63.2-.77zM222.57 243.59c-1.013-2.149-2.461-3.975-4.5-5.252a.4.4 0 0 0-.091-.182c-1.605-1.796-1.624-4.855-3.787-6.208-.446-.28-.858.407-.415.685 1.113.696 1.58 2.244 2.063 3.36.232.537.474 1.07.76 1.578-.974-.403-1.984-.704-2.933-1.2a.37.37 0 0 0-.186-.1c-.101-.057-.204-.102-.303-.164-1.386-.869-2.604-1.947-4.027-2.771-.455-.264-.868.422-.414.685 1.057.612 2.021 1.342 3.009 2.036-1.168-.066-2.34-.008-3.521 0-.53.004-.531.797 0 .793 1.677-.011 3.341-.152 4.996.179.571.345 1.165.66 1.803.913 1.673.662 2.975 1.122 4.316 2.361.193.178.364.375.538.57-1.267.206-2.405.936-3.731.834-.53-.04-.526.753 0 .793 1.549.119 2.819-.874 4.328-.887.543.746.999 1.553 1.386 2.375.2.45.91.05.69-.41zM228.59 223.96c-1.51-.173-2.422-1.779-3.159-3.1-.174-.31-.338-.606-.498-.862a262 262 0 0 0-1.835-2.904.38.38 0 0 0-.016-.271c-1.047-2.342.085-4.971-1.029-7.336-.218-.465-.928-.063-.71.399.803 1.708.419 3.577.567 5.383-.159-.241-.314-.486-.475-.728-2.232-3.361-5.074-6.092-8.089-8.803-.387-.349-.971.211-.582.561 3.799 3.416 6.889 6.898 9.606 11.183.496.781.978 1.575 1.464 2.366-.473-.236-.979-.377-1.736-.355-1.222.033-1.31-1.102-2.148-1.525-.7-.354-1.413-.643-2.057-1.09-.432-.3-.842.389-.415.685.709.493 1.643.729 2.281 1.306.428.387.739.836 1.216 1.173.409.288 1.09.245 1.556.231.988-.025 1.521.62 2.246 1.086q.468.737.963 1.452c.703 1.012 1.573 1.798 2.85 1.942.52.04.52-.75-.01-.81zM231.97 123.17c-1.536-1.186-2.627-2.8-4.302-3.829q-.245-.148-.491-.292a.33.33 0 0 0-.254-.15c-.699-.405-1.396-.801-2.037-1.309-1.036-.822-1.464-2.112-2.077-3.214a13.6 13.6 0 0 0-2.768-3.47.4.4 0 0 0-.044-.146c-.481-.901-.502-1.895-.804-2.848-.286-.898-.986-1.506-1.813-1.953-.463-.251-.878.434-.414.685.993.539 1.421 1.218 1.631 2.272.07.349.142.688.228 1.021a13.2 13.2 0 0 0-4.732-2.134c-.516-.118-.735.646-.219.764 4.785 1.091 7.126 4.347 9.307 8.276.518.932 1.399 1.597 2.326 2.167-1.632.15-3.189.244-4.804-.424-1.284-.532-2.421-1.078-3.839-1.183-.529-.04-.525.754 0 .792 1.931.144 3.459 1.331 5.323 1.686 1.45.276 3.038-.055 4.5-.184l.023.013c1.867 1.064 3.013 2.733 4.678 4.019.39.3.97-.26.56-.57zM251.33 170.58c-1.202.69-2.667.573-3.962 1.03-.036-1.439-.512-2.945-.783-4.263-.104-.501-.897-.289-.795.21.284 1.377.853 3.013.737 4.477a.38.38 0 0 0-.064.465 3.16 3.16 0 0 1-.93 1.742c-1.092 1.054-2.34 1.664-3.096 3.023-.251.449.459.85.711.399.918-1.649 3.152-2.305 3.885-4.017.158-.371.24-.76.291-1.154 1.387-.686 3.063-.449 4.421-1.229.45-.25.03-.94-.42-.68z"/></g><path fill="#008B3B" d="M61.967 260.69c-4.358-5.608-12.505-28.394-12.505-28.394l.115-.35s2.063-2.918 2.753-4.791c.687-1.869 4.129-4.906 4.702-5.139.576-.233.688.819.461 1.635-.229.817.683 3.036 1.259 4.439.575 1.402 2.183 5.026 2.183 5.842 0 .819-.346 4.326-.346 4.326s1.378-1.871 1.72-2.221c.345-.35 3.325-3.273 3.896-3.974.575-.702 8.835-6.543 9.636-6.895.802-.353 2.753-.816 2.753-.816s.111 2.454 0 4.786c-.113 2.338-1.721 7.718-2.292 8.416-.576.703-1.723 5.49-1.723 5.49s2.98-1.751 4.126-2.451c1.147-.705 3.101-.938 4.473-1.285 1.377-.35 6.881 0 7.934-.026 1.053-.028 2.619.493 2.619.843s-.802 1.402-1.377 1.986c-.576.584-2.981 4.09-3.44 4.558-.462.467-7.107 8.062-8.6 9.696-1.491 1.634-7.688 3.856-9.977 4.323-2.295.46-8.37-.01-8.37-.01z"/><path fill="#C1D2E3" d="M273.326 162.212s-5.554-.235-6.713-.473c-1.159-.234-7.987-2.357-8.917-2.711-.924-.354-2.893-3.778-3.477-4.13-.577-.354.233 1.062-.69 3.54-.93 2.475-.12 12.855 6.717 27.249 0 0 13.313 22.179 16.558 33.738 0 0 7.986 21.585-1.16 42.82 0 0 .351 2.835 8.451-2.118 0 0-3.356 6.723-5.902 9.909 0 0-.584 2.594 3.005 1.06 3.593-1.533 4.06-1.65 4.636-.59.581 1.062 1.62 5.079 1.392 5.666-.233.584-1.05 1.058-1.74 1.293-.694.236-4.633 1.18-4.633 1.18s-.81 1.418-.81 2.358c0 .946 1.04 3.427 1.621 4.13.578.708 4.055 1.652 4.055 1.652l-.462.827-2.899.826-.347.705 1.155 1.772s6.72 5.425 7.07 6.369c.342.944.342 5.665.342 5.665s-1.159-.474-1.504-.592c-.35-.118-2.429 0-2.429 0s-3.36-.118-3.824-.59c-.464-.473-1.157-1.416-1.623-2.008-.459-.587-2.08-2.83-2.774-3.066s-1.752-.647-2.442-.44c-.686.204-2.42.44-3.233.678-.813.236-4.165 1.298-4.63 1.298-.46 0-5.097-1.652-6.144-2.005-1.034-.355-6.94-2.835-7.52-2.835s-3.704.709-4.515.944c-.81.236-19.407 3.802-26.398 3.896 0 0-15.975 1.47-27.442-6.96 0 0-6.828 7.19-14.47 8.136 0 0-7.187-.472-13.088-3.305-5.904-2.83-7.759-1.767-7.759-1.767s-7.984.592-9.376-1.65c-1.394-2.245-1.852-3.776 4.164-6.963 6.028-3.185 25.824-9.202 25.824-9.202l3.934-1.77s3.592-10.145 4.983-11.442c1.385-1.295 9.605-4.955 9.605-4.955s11.002-5.307 12.043-5.662c1.045-.35 4.051-2.832 4.515-3.185s2.894-3.067 3.36-3.305c.463-.233 2.201-1.064 2.547-1.298.345-.234 1.736-2.831 2.08-3.418.351-.592 3.594-9.673 3.707-27.604l-.344-17.225s-.699-5.541-.58-6.958c.114-1.416 1.617-11.796 1.734-12.622.12-.825 3.008-19.113 3.24-19.937.232-.827 3.706-16.986 4.518-18.875.813-1.888 1.848-6.961 1.848-6.961s.351-2.003.117-2.946c-.23-.944-1.965-5.896-.808-9.91 1.157-4.011 3.126-11.09 3.474-12.034.347-.946 1.041-3.303 1.621-3.303s1.158 1.65 1.274 2.357c.114.709.928 10.854.928 10.854s1.151-.824 1.731-.944c.58-.118 3.243-1.414 3.243-1.414l1-.067s-.885 7.264-.885 7.97c0 .712.7 3.304 1.157 3.893.466.592 1.393 1.653 1.275 2.362-.115.709-.924 3.066-.229 3.538.693.469 4.861 2.24 5.438 2.24.58 0 1.626-.47 2.203-.827.578-.354 1.694-1.935 2.351-2.146.662-.21 9.575-.447 9.924-.447.347 0 2.086.12.81 1.416s-5.327 3.892-6.37 4.01c-1.044.12-2.08.59-3.126 1.062-1.039.474-2.547 1.887-2.43 3.068.116 1.179 1.157 4.364 1.157 5.308s.812 3.54 1.508 4.483c.688.942 2.55 3.066 2.89 3.538.35.473 2.662 4.72 4.287 5.899 1.6 1.16 2.41 2.46 2.17 2.93z"/><g fill="none" stroke="#2C2C2B" stroke-width="1.094"><path d="M493 505.87s-8.245 7.746 14.325 43.353c22.568 35.612 8.592 61.418 8.592 61.418" transform="matrix(.9427 0 0 1 -210.207 -349.308)"/><path d="M459.5 593.44c8.595-12.899 4.836-47.141 4.72-53.651-.124-6.508 7.457-45.27 8.173-46.991.721-1.718 2.513-7.914 3.765-11.357 1.252-3.439-1.434-4.988-1.434-10.15 0-5.158 4.655-15.481 5.195-17.543.537-2.065 1.971-3.099 2.862 6.363.897 9.464 0 6.539.717 5.849.717-.686 5.915-3.44 5.915-2.75 0 .686-.538 4.815-.72 8.428-.178 3.615 1.791 4.473 2.508 5.505.72 1.033-3.046 3.612 2.863 5.675 5.919 2.067 4.479-1.89 7.348-2.578 2.864-.687 9.674-.347 11.823-.347s-2.692 4.134-6.091 4.991c-3.407.861-3.223.347-5.909 2.411-2.691 2.063-.359 4.125 0 6.71.355 2.577.536 4.988 2.863 6.364 2.331 1.375 2.15 4.642 5.55 7.397 3.402 2.749 3.586 3.956 3.586 3.956-3.402.687-15.942-2.408-17.373-3.441-1.435-1.028-2.864-3.958-5.013-5.504-1.95-1.404-6.106.302-6.87.635-.078.033-.117.054-.117.054s-.654.558-1.59-.901c-.929-1.458-1.164-3.139-1.751-3.923M513.42 608.58s.534 1.892 1.438 2.924c.888 1.031 2.502 1.033 4.473.344 1.97-.69 5.555-2.58 5.555-2.58s-1.792 3.785-3.584 6.021c-1.793 2.237-5.014 5.16-2.503 5.503 2.503.346 6.624-4.643 7.875.346 1.255 4.991 1.07 5.16-.537 5.505-1.614.344-4.836 1.203-5.551 1.549-.72.347-.897 6.197 2.146 7.227 3.053 1.031 7.348.514 6.806.688-.535.174-6.622 1.204-7.698 2.065-1.079.857 9.134 6.362 9.311 9.976.178 3.615 0 5.507 0 5.507s-.537-2.581-3.578-2.237c-3.05.346-5.194-.171-5.733-1.202-.539-1.033-1.61-4.477-6.094-4.646-4.473-.173-6.088 2.576-10.388 1.545-4.293-1.027-11.641-4.646-13.969-4.124-2.325.516-27.406 5.678-38.687 4.645-11.285-1.034-19.343-5.682-20.597-6.196" transform="matrix(.9427 0 0 1 -210.207 -349.308)"/><path d="M420.28 624.06s1.072-10.493 6.804-12.902c5.731-2.409 21.496-8.946 24.538-11.355 3.045-2.409 4.839-5.675 8.237-5.849 3.406-.172 11.469-4.127 12.541-7.569 0 0 .899 3.099.359 5.505-.538 2.409-3.582 6.71-3.401 8.258.178 1.547.357 3.612 1.614 3.956 1.249.345 4.473 0 4.293 1.72-.175 1.722-1.072 13.597 1.619 13.767 2.681.17 2.502.517 4.116-.689 1.609-1.202 3.58-2.41 5.551-2.41 1.97 0 6.265-1.201 7.703-1.201 1.433 0 2.865-.86 5.017.86 2.147 1.719 5.554 1.889 6.443 1.371.897-.514 3.585-1.2 4.656-5.672 1.077-4.478 2.152-5.854 3.403-3.786M396.63 644.19s7.527 2.067 9.314 2.928c1.791.859 6.986 2.407 10.928 1.549 3.935-.861 13.073-5.678 14.684-8.431 1.61-2.756 3.224-6.883.72-8.604-2.511-1.72-5.555-3.093-6.804-4.471-1.259-1.378-4.122-3.098-4.122-3.098s-27.944 8.771-30.986 10.147c-3.049 1.382-7.348 3.613-7.706 4.995-.356 1.376.72 3.611 2.509 3.955 1.791.346 8.777 1.032 13.792-.172 5.014-1.204 13.792-5.161 20.057-1.892" transform="matrix(.9427 0 0 1 -210.207 -349.308)"/><path d="M419.08 641.38s.651 1.773-1.674 1.773c-2.331 0-6.283-2.9-9.324-2.388M418.84 632.14s-5.193 3.788-10.93 4.304c-5.729.514-6.091 1.027-11.104 1.205-5.014.17-12 1.376-13.614 2.234M450.37 623.54s-1.432-1.894-4.301-1.894c-2.863 0-5.555.176-7.347-.516-1.793-.688-3.942-2.749-4.652-3.957M465.06 595.33s-2.153 4.645-.898 7.054c1.257 2.409 1.614 3.957 3.406 3.957s3.407-1.546 5.014.689c1.614 2.235 2.152 3.439 2.152 3.439M467.02 612.02c.365 3.269-1.607 7.399 0 8.945 1.615 1.549 7.528 4.134 10.932 6.368 3.402 2.235 4.124 2.062 5.731 2.062 1.614 0 8.598-3.78 9.672-2.409 1.072 1.377 2.687 1.552 2.864.174.18-1.378 2.329-9.982 3.05-11.011M479.38 628.54s-.72-.521-4.655.514c-3.943 1.031-5.194 1.719-8.065 2.065-2.863.347-6.807.69-8.236 2.755-1.432 2.06-2.151 3.955-1.614 5.849.54 1.892 2.154 3.955 3.043 4.129" transform="matrix(.9427 0 0 1 -210.207 -349.308)"/><path d="M474.37 641.44s.36 1.204-2.863 1.375c-3.225.173-11.648-4.986-4.12-6.363 0 0 20.956-1.552 23.999-1.552s10.388-1.028 10.928-5.331M496.76 635.42s0 2.755 1.433 3.615c1.431.858 17.729 3.611 18.633 5.674" transform="matrix(.9427 0 0 1 -210.207 -349.308)"/><path d="M503.74 617.87s-4.833 2.06 1.256 2.752c6.094.689 9.136-.172 7.701 2.407-1.43 2.586-7.521 6.71-6.264 8.775 1.249 2.067 2.686 3.957 5.192 4.991 2.507 1.031-8.783.17-11.106.344-2.33.172-3.402.172-3.402.172M485.11 628.36s-1.433-.337-1.254-1.889c.182-1.551 1.254-7.053-.532-6.71-1.791.344-2.148.167-2.328-.862M476.52 478.53s2.732 11.452 2.732 15.593c0 4.139.719 2.763 1.581 5.108M518.91 601.77s-10.06 4-10.632-5.108c0 0-8.478 5.105-9.775.555 0 0-3.447 7.59-6.467 3.727M491.89 600.39s-3.013 7.038-8.19 2.758c0 0-2.01-2.068-2.155-3.45-.142-1.378.145 2.348-1.438 2.899-1.578.551-4.161 1.655-5.027 1.655" transform="matrix(.9427 0 0 1 -210.207 -349.308)"/><path d="M509.42 601.22s-2.301 3.999-4.745 3.86c-2.44-.14-5.173-2.342-5.746-3.31s-1.005-2.622-1.005-2.622 2.587 6.485-.287 8.004-4.17 1.376-5.176.41c-1.003-.963-3.013-4.277-3.013-4.277s2.729 4.421.428 6.076c-2.294 1.653-4.59 1.518-5.461.688-.858-.826-2.729-4.278-2.729-4.969s-.141-3.173-.141-3.173M481.26 605.91s-1.006 1.518-1.727 2.759c-.715 1.24-1.717 3.175-.858 5.244.858 2.07 2.281 3.844 2.299 4.415" transform="matrix(.9427 0 0 1 -210.207 -349.308)"/><path d="M491.03 609.49s.727 4.137-2.582 5.104c-3.306.966-5.027.416-5.459-.827-.432-1.241-.432-5.521-.432-5.521M499.51 606.6s2.588 7.314-.141 8.144M493.04 608.53s-1.145 4.831 1.296 6.351M510.86 608.25s-6.325 6.211-10.057 1.934" transform="matrix(.9427 0 0 1 -210.207 -349.308)"/><path d="M509.28 602.18s1.436 6.487-1.288 8.006M508.28 596.66c2.312 3.59 11.505-1.537 11.505-1.537M519.67 584.98s-2.472 4.425-5.054 4.425c-2.586 0-5.503-2.049-5.39-4.855 0 0-.789 5.612-5.507 5.612-4.719 0-4.944-4.643-4.832-5.502 0 0 .223 8.305-5.394 8.198 0 0-4.155 1.404-5.277-4.425 0 0 2.134 7.881-3.483 7.881 0 0-5.734 1.832-6.406-5.075 0 0 .227 8.849-3.371 8.632-3.594-.217-4.827-.864-4.717-2.589" transform="matrix(.9427 0 0 1 -210.207 -349.308)"/><path d="M509.22 586.27s2.804 8.309-2.023 10.9M498.88 586.81s-3.146 9.389 1.349 12.086M488.44 589.94s1.911 9.71 4.492 11.33M481.14 595.98s.112 4.748 1.124 5.396M519.44 579.26s-1.909 5.074-5.171 5.287c-3.253.216-5.839.541-6.287-6.906" transform="matrix(.9427 0 0 1 -210.207 -349.308)"/><path d="M508.32 580.98s-6.296 7.014-9.439 1.078c0 0-.899-3.888-.45-4.748M499.22 582.92s-1.685 3.451-5.167 2.375c0 0-3.815.211-3.707-5.398" transform="matrix(.9427 0 0 1 -210.207 -349.308)"/><path d="M490.91 583.57s-.232 6.256-6.63 3.777c0 0-2.249-.758-2.921-1.62" transform="matrix(.9427 0 0 1 -210.207 -349.308)"/><path d="M481.25 581.63s.56 8.418-3.934 8.957c0 0-3.818.434-4.83-1.834M475.97 576.77s2.022 7.664-4.493 9.068c0 0-6.633.645-7.867-2.591" transform="matrix(.9427 0 0 1 -210.207 -349.308)"/><path d="M472.6 570.52s1.456 8.307-3.263 8.955c0 0-4.043.323-4.829-2.807M473.04 575.8s4.268 1.831 7.641-.541c0 0 2.733-1.235 1.671-8.935M482.71 572.57s2.81 3.021 7.191.971c0 0 4.264-2.803 3.707-6.904M493.94 569s2.697 2.806 5.844 2.051c0 0 3.818-.863 3.705-4.209 0 0-.474-3.351-.807-4.219M503.72 568.25s2.472 1.62 6.514.973c0 0 4.27-.324 4.946-4.211" transform="matrix(.9427 0 0 1 -210.207 -349.308)"/><path d="M506.3 569.22s-3.709 8.845 4.834 7.874c0 0 6.509-1.183 6.174-5.067" transform="matrix(.9427 0 0 1 -210.207 -349.308)"/><path d="M511.13 577.1s4.376-6.687.215-8.091M505.63 575.15s-4.154 3.564-7.304 2.482c0 0-4.047-1.945-3.819-7.66M495.74 576.02s-2.248 4.207-5.391 3.883c-3.146-.322-5.28-5.072-5.394-5.936" transform="matrix(.9427 0 0 1 -210.207 -349.308)"/><path d="M486.97 577.85s-1.794 4.425-7.301 3.13c0 0-2.134-1.296-3.036-4.534M513.07 560.38s-1.664 2.652-3.6 2.785c-1.932.134-5.39-.133-6.356-2.522" transform="matrix(.9427 0 0 1 -210.207 -349.308)"/><path d="M503.25 557.06s.964 5.976-4.425 8.23c0 0-4.97 2.256-7.876-1.328" transform="matrix(.9427 0 0 1 -210.207 -349.308)"/><path d="M490.67 559.32s3.178 5.182-4.281 7.036c0 0-8.573 1.567-8.421-7.147" transform="matrix(.9427 0 0 1 -210.207 -349.308)"/><path d="M479.63 565.02s-2.363 7.574-7.75 3.723" transform="matrix(.9427 0 0 1 -210.207 -349.308)"/><path d="M471.74 564.5s2.352 7.568-6.908 7.303M508.91 552.29s-1.103 5.708-6.912 4.113c0 0-2.901-1.855-3.309-4.248M486.74 553.07s1.999 6.653 6.284 5.855c0 0 5.669-2.252 5.803-5.705M487.5 555.74s-1.243 3.578-5.391 3.318c0 0-3.588.396-4.42-4.383" transform="matrix(.9427 0 0 1 -210.207 -349.308)"/><path d="M478.38 557.59c-.14.532-2.901 7.7-8.571 6.64 0 0-3.456-.934-4.424-3.85M476.67 547.76s3.269 7.736-3.96 8.912c0 0-5.946 1.061-7.742-2.92" transform="matrix(.9427 0 0 1 -210.207 -349.308)"/><path d="M486.67 549.37s1.809 5.557-9.52 4.363" transform="matrix(.9427 0 0 1 -210.207 -349.308)"/><path d="M497.45 547.78s.551 7.301-11.469 4.377" transform="matrix(.9427 0 0 1 -210.207 -349.308)"/><path d="M506.56 548.7s-4.556 4.912-9.812 1.594M504.92 545.62s-6.418 6.057-9.449-2.13" transform="matrix(.9427 0 0 1 -210.207 -349.308)"/><path d="M496.4 545.74s-7.001 6.278-11.206 1.458M485.66 540.8s2.569 6.955-4.55 7.289c0 0-5.517-1.037-5.517-6.643M476.44 545.85s.704 4.376-6.179 4.263l-5.611-2.805M472.4 492.8s3.445 8.081 6.873 3.08M480.64 500.22s-1.643 8.688-9.728.657" transform="matrix(.9427 0 0 1 -210.207 -349.308)"/><path d="M476.39 504.56s-1.643 8.424-7.403 4.608M478.59 504.43s5.346 6.189 6.166-1.054" transform="matrix(.9427 0 0 1 -210.207 -349.308)"/><path d="M484.48 504.96s4.527 4.871 7.13 2.499" transform="matrix(.9427 0 0 1 -210.207 -349.308)"/><path d="M491.2 509.83s-5.485 4.478-4.937-3.029" transform="matrix(.9427 0 0 1 -210.207 -349.308)"/><path d="M486.54 510.49s-3.154 2.893-4.796.262M481.74 507.59s1.133 3.909-3.011 4.022c-4.032.111-4.032-2.908-4.032-2.908" transform="matrix(.9427 0 0 1 -210.207 -349.308)"/><path d="M476.21 511.13s.184 4.892-3.928 4.761c0 0-3.016-.396-3.975-2.77M501.94 540.86s-4.316 6.057-7.512.831c0 0-5.445 6.557-8.211.664M500.56 538.71s-4.234 4.317-6.916.42c0 0-.606-.333-.256-2.822M493.22 538.46s-3.113 4.646-8.123 1.326c0 0-2.159-2.07-1.988-4.395M483.45 538.13s-.952 2.819-6.307 2.321c0 0-3.888-.83-4.841-4.563M475.85 540.2s-1.644 7.801-11.402 3.57" transform="matrix(.9427 0 0 1 -210.207 -349.308)"/><path d="M470.92 530.14s5.114 10.758-6.222 6.843" transform="matrix(.9427 0 0 1 -210.207 -349.308)"/><path d="M467.62 520.63s4.79 2.428 3.757 6.842c0 0-.585 5.285-6.219 3.296M497.41 532.26s-1.043 3.173-4.602 2.736c0 0-4.012-.685-3.753-5.412M489.38 532.75s-2.913 3.05-6.995 1.431c0 0-4.274-1.683-2.328-6.777M479.53 531.82s-.644 4.912-7.376 2.486M471.44 528.15s9.519 2.922 8.614-5.35" transform="matrix(.9427 0 0 1 -210.207 -349.308)"/><path d="M486.72 523.61s-1.034 5.908-7.054 2.735" transform="matrix(.9427 0 0 1 -210.207 -349.308)"/><path d="M485.88 526.1s3.692 6.84 9.064 1.058M493.45 522.55s-7.061 3.483-9.07-1.548" transform="matrix(.9427 0 0 1 -210.207 -349.308)"/><path d="M485.38 516.46s.409 8.715-6.654 5.325" transform="matrix(.9427 0 0 1 -210.207 -349.308)"/><path d="M477.82 517.81s4.537 7.455-6.955 5.809M483.36 512.19s1.317 3.387-2.616 3.584c0 0-3.126.291-3.126-3.874" transform="matrix(.9427 0 0 1 -210.207 -349.308)"/><path d="M491.43 513.45s-3.222 6.686-8.166.871M479.03 515.58s-.704 4.16-4.937.286" transform="matrix(.9427 0 0 1 -210.207 -349.308)"/></g><path fill="#FD0" d="M96.276 70.282s12.225-17.676 61.126-16.871c0 0 33.124 1.605 45.743 13.459l7.692 2.207 10.257-34.752.701-4.015 4.297-2.62 4.417-12.002-6.646-2.751-3.574 6.968-3.52-.22 1.078-8.86-6.47-2.14-5.256 11.506 1.508 4.762-.39 1.803-10.968-2.612 4.1-3.44 1.87-14.576-6.403-1.285-2.729 9.05-3.665-.951.29-9.083-5.684-1.098-2.659 8.642-3.09-.732-.79-8.497-7.19-.658-1.842 10.286 1.336 2.898-.212 4.979-9.2-.367-.075-2.417 2.66-6.15-1.295-9.451-6.467-.803-.29 8.492-3.236-.073-1.867-8.495h-6.04l-1.653 8.789-2.229.075-2.729-8.426-5.175.46.546 11.07 4.268 3.997.143 2.858-10.564 1.244.43-8.421-2.806-10.111-5.389.736-.288 10.032-2.375.513-1.223-1.975-2.153-7.984-6.47 1.61-1.297 10.474-2.514.442-3.885-9.304-8.122 2.487 2.517 12.889 4.244 2.129.572 2.122-10.352 3.515-.5-2.05-.65-6.517-3.378-9.741-7.763 3.294-.217 5.932-4.817-4.027-4.745 2.342 2.446 8.207 6.04 4.392 1.628 1.057 3.404 10.662 6.975 19.558 3.593 10.254c-.01.02 5.93-2.12 6.95-2.7z"/><g fill="none" stroke="#2C2C2B" stroke-width="1.094"><path d="M437.39 414.42c-12.897-7.252-32.275-11.871-53.945-11.871-21.674 0-41.05 4.619-53.95 11.871M453.43 395.54l-1.794 5.943M454.99 390.38l-1.564 5.164M451.64 401.48l-.959 3.154M450.68 404.64l-1.989 6.577M454.99 390.38l2.803-9.234M448.69 411.21l-1.635 5.396M457.8 381.14l.461-1.523 4.558-2.62 4.685-12.002M467.5 365a166 166 0 0 0-7.049-2.751M460.45 362.24l-4.09 7.201-3.23-.388 1.249-8.9" transform="matrix(.9427 0 0 1 -210.207 -349.308)"/><path d="M454.38 360.16a187 187 0 0 0-7.165-2.157" transform="matrix(.9427 0 0 1 -210.207 -349.308)"/><path d="m447.22 358-5.575 10.862 1.813 5.229-.628 1.978M430.69 373.31l4.984-3.461 1.989-14.245M437.66 355.6a204 204 0 0 0-6.924-1.448M430.74 354.16l-2.984 8.768-3.762-1.493.541-8.375M424.53 353.06c-2.193-.357-4.403-.69-6.645-.987M417.88 352.07l-2.097 8.296-3.766-.85-.446-8.198M411.57 351.32a243 243 0 0 0-7.675-.711M403.9 350.61l-2.189 10.508 1.166 2.063-.207 6.005M393.84 374.24l-.595-7.901 2.828-6.002-1.542-10.258M394.53 350.08a297 297 0 0 0-6.717-.188M387.81 349.9l-.815 8.509-3.401-.19-1.177-8.36" transform="matrix(.9427 0 0 1 -210.207 -349.308)"/><path d="M382.42 349.86c-2.285.009-4.566.034-6.82.097M375.6 349.95l-1.91 8.257h-2.625l-2.33-7.962M368.73 350.25c-1.917.104-3.815.241-5.71.382" transform="matrix(.9427 0 0 1 -210.207 -349.308)"/><path d="m363.02 350.63.579 11.069 4.233 4.26 1.815 11.817M357.18 369.95l.078-3.799.493-5.035-2.878-9.739" transform="matrix(.9427 0 0 1 -210.207 -349.308)"/><path d="M354.88 351.38c-1.975.216-3.929.457-5.876.716M349 352.09l-.121 9.023-3.833 1.164-2.533-9.233M342.51 353.04a230 230 0 0 0-7.33 1.311M335.18 354.36l-.619 9.47-3.227.775-3.624-8.637M327.71 355.96a192 192 0 0 0-9.161 2.361M318.55 358.33l2.905 12.859 3.863 1.691.572.25M303.52 383.51c21.234-9.583 48.885-15.225 79.924-15.225 21.814 0 41.961 2.791 59.385 7.779 5.242 1.499 10.248 3.186 14.971 5.071" transform="matrix(.9427 0 0 1 -210.207 -349.308)"/><path d="M306.92 392.74c19.474-9.939 46.183-15.882 76.524-15.882 27.843 0 52.618 5.011 71.553 13.518" transform="matrix(.9427 0 0 1 -210.207 -349.308)"/><path d="M308.92 398.16c17.93-11.176 44.212-18.012 74.521-18.012 27.851 0 52.289 5.783 69.989 15.387" transform="matrix(.9427 0 0 1 -210.207 -349.308)"/><path d="M311.08 404.05c16.692-11.089 42.404-17.969 72.358-17.969 27.559 0 51.532 5.829 68.194 15.402" transform="matrix(.9427 0 0 1 -210.207 -349.308)"/><path d="M450.68 404.64c-16.083-9.464-39.828-15.261-67.235-15.261-29.773 0-55.209 6.834-71.211 17.783" transform="matrix(.9427 0 0 1 -210.207 -349.308)"/><path d="M448.69 411.21c-14.933-9.327-38.373-15.251-65.246-15.251-29.132 0-54.236 6.958-68.826 17.667M306.92 392.74l2.003 5.424M303.52 383.51l3.4 9.225M308.92 398.16l2.163 5.885M303.52 383.51l-.614-1.674-7.87-4.84-2.704-8.849M292.34 368.15a150 150 0 0 1 5.394-2.453M297.73 365.7l4.326 4.085.094-5.898M302.15 363.88a171 171 0 0 1 8.805-3.227M310.96 360.66l3.199 9.996 1.247 8.09M312.23 407.16l2.385 6.473M311.08 404.05l1.147 3.109M295.06 375.94l19.094-5.284M301.34 380.33l13.45-3.993M321.12 366.65l36.798-6.273M356.84 366.75c-22.166 2.343-30.95 6.375-30.95 6.375M367.7 365.47s19.179-1.239 25.543.872M364.1 359.19s25.352-1.907 31.811 0M373.12 359.23l1.078 5.616M385.56 357.88l.328 7.325M412.35 359.5l-.172 6.259M424.46 361.67l-.167 6.257M453.88 369.35l-2.168 5.905M332.6 365.21l1.073 5.069M306 373.04l1.072 5.07M402.84 358.43s26.714 4.243 33.393 7.502M402.5 363.76s23.543 3.479 32.603 5.982M443.26 366.8s10.072 1.303 20.828 6.524M443.37 372.78s10.531 2.502 16.527 5.547M326.65 375.17l-1.09-2.567M315.18 379.25c1.187 2.09 4.05 8.164 4.05 8.164M350.11 370.32c.76 2.265 2.389 8.748 2.389 8.748M335.76 372.94c.662 2.29 2.037 8.828 2.037 8.828M373.1 368.39c.34 2.308.795 8.838.795 8.838M388.5 368.32c.34 2.311.792 8.838.792 8.838M356.73 369.66c.754 2.261 2.384 8.744 2.384 8.744" transform="matrix(.9427 0 0 1 -210.207 -349.308)"/><path d="M388.7 373.67s16.607 1.085 19.02 1.521" transform="matrix(.9427 0 0 1 -210.207 -349.308)"/><path d="M408.93 369.61s-1.507 5.8-1.809 8.264M402.06 374.54l-.148 3.19M325.72 400l1.992 6.317M345.04 393.88l1.999 6.314M366.27 390.48l.171 6.594M387.99 389.52l.17 6.598M410.56 391.48l-1.15 6.506M432.13 396.25l-2.473 6.154M435.39 405l-3.14 6.98M418.95 399.8l-1.737 7.418M336.59 403.24l3.118 6.517M334.2 387.35l.924 5.701M321.98 391.66l1.791 5.505M359.59 397.82l.77 7.137M378.9 396.23l-.451 7.158M398.71 396.4l-.459 7.16M325.9 384.85l1.911 4.129M358.62 381.64l.715 6.192M370.08 380.65v5.43M363.32 377.51l.319 3.673M395.16 380.42l-.318 5.74M427.88 385.47l-1.675 5.274M439.03 389.36l-2.391 5.127M440.3 384.93l2.545-9.022M431.3 373.31l-1.989 8.485M322.64 409.02l4.614 8.029" transform="matrix(.9427 0 0 1 -210.207 -349.308)"/></g><g fill="#2C2C2B"><path d="M110.666 41.482s-6.219-19.292-1.838-21.31c0 0 6.751-2.994 9.012-1.264s5.828 20.416 5.828 20.416-10.32 1-13 2.15zM142.996 36.972s-3.173-20.05 1.47-21.338c0 0 7.136-1.808 9.105.263 1.964 2.07 2.601 21.022 2.601 21.022s-10.35-.64-13.18.06zM173.406 38.322s2.186-21.2 6.986-21.236c0 0 6.761-.263 8.145 2.252 1.382 2.514-2.182 21.379-2.182 21.379s-10.04-2.34-12.95-2.39zM76.036 33.852s3.251-3.456 8.197 3.024l5.935 13.246s-6.782 3.023-7.35 4.317l-6.79-20.59zM221.446 31.412s-6.07-1.01-8.05 4.317c-1.975 5.328-4.664 12.816-4.664 12.816s4.944 2.16 6.5 3.74l6.21-20.88z"/><path fill="none" d="m87.316 67.012-.937-2.686"/><path fill="#008B3B" d="M32.596 197.832s-6.075.468-8.369 0c-2.289-.468-8.485-2.69-9.976-4.324-1.493-1.634-8.139-9.23-8.6-9.696-.459-.467-2.865-3.973-3.44-4.557s-1.377-1.637-1.377-1.987 1.566-.87 2.618-.843c1.053.027 6.557-.323 7.934.027 1.372.347 3.325.58 4.473 1.284 1.146.7 4.127 2.452 4.127 2.452s-1.147-4.787-1.724-5.49c-.57-.7-2.178-6.078-2.292-8.416-.11-2.332 0-4.786 0-4.786s1.952.464 2.753.815c.801.353 9.061 6.193 9.636 6.895.57.7 3.551 3.624 3.896 3.975.342.35 1.72 2.22 1.72 2.22s-.345-3.507-.345-4.325c0-.815 1.606-4.44 2.182-5.842s1.488-3.622 1.26-4.44c-.228-.815-.116-1.868.46-1.634.573.23 4.016 3.27 4.702 5.138.69 1.874 2.754 4.792 2.754 4.792l.115.35c0 .01-8.15 22.79-12.5 28.4zM37.966 142.082s-2.68.93-3.104 1.239c-.427.313-6.21 2.919-6.88 3.166s-8.338 0-9.803 0c-1.462 0-10.473-.56-11.262-.621-.789-.063-3.042.06-3.042.06s1.522-1.11 2.737-2.104c1.223-.995 6.15-7.814 7.182-8.375 1.035-.561 5.3-3.6 6.7-3.537 1.396.063 3.346-.554 3.346-.554s-1.949-1.305-3.103-1.488c-1.159-.19-5.179-2.486-5.908-3.167-.727-.681-1.58-2.355-1.7-3.038-.118-.682-.91-1.302-1.463-1.488-.549-.188-4.625-2.793-5.476-3.043-.855-.246-3.475-2.915-3.535-3.474-.059-.555-.059-2.353.73-2.663.794-.314 5.176-1.674 5.783-1.674.61 0 3.166-.19 4.934-.063 1.764.126 3.408.62 4.75 1.116 1.334.496 5.112 1.489 6.758 2.048 1.638.559 2.31.929 2.31.929s-1.825-2.727-2.255-3.284c-.422-.56-4.928-7.324-5.72-9.06-.796-1.736-2.094-4.478-2.082-5.53.015-1.041-.173-6.317-.415-6.81-.243-.496-.73-2.915-1.093-3.91-.366-.99-.125-2.17.3-2.23.428-.061 2.923-.311 3.594-.125.668.186 4.686.873 5.906 2.483 1.218 1.61 2.434 3.41 2.434 3.41s.122-4.16.247-4.72c.12-.556 1.46-3.778 1.643-4.214.182-.432.121-3.223-.308-3.66-.423-.434-1.823-3.848-1.764-5.148.06-1.303.15-3.957.23-4.246.074-.282.563-3.63.626-4.003.06-.372.375-2.32 1.278-2.247.911.075 4.26.075 4.626.075.364 0 3.835 2.109 4.14 3.039.303.933 1.215 5.893 1.458 6.387.246.5 3.653 8.936 3.653 9.43 0 .495 1.764 6.576 1.826 7.01.067.434 1.035 3.967 1.035 3.967s.732-3.04.913-4.093c.186-1.057.612-3.473 1.035-3.846.425-.371 1.95-2.605 2.314-3.286.362-.683 1.278-2.107 1.403-2.791.117-.681 1.272-2.107 1.212-3.848-.058-1.734 0-2.291.612-3.346.604-1.057.362-2.295 1.033-3.971.67-1.674 1.952-4.153 2.008-4.525.063-.371 1.707-3.35 2.071-3.972.367-.62 2.011-2.667 2.131-2.915.122-.248.792-.122.851.186.063.312 2.557 12.778 2.557 14.019 0 1.239-.727 4.525-.789 5.58s-1.155 5.52-.852 6.206c.3.68 1.215 4.029 1.4 4.524.178.5.791 5.398.73 6.577-.067 1.176 1.154 1.983 1.458 2.543.305.557 3.836 5.95 1.948 15.688 0 0-3.226 11.04-3.474 12.034-.238.994.433 2.355.433 2.729 0 .372.604 8.869.604 9.553s-.242 4.217-.305 4.467c-.058.247-.975 5.766-.975 5.766l-.789.497s-3.04-9.988-3.349-11.041c-.307-1.058-1.156-3.165-1.095-4.587.058-1.43.67-1.802 1.036-3.537.366-1.736.73-4.218.484-5.15-.243-.93-1.218-6.51-1.34-7.07-.123-.556-1.155-5.207-1.583-6.326-.423-1.117-1.825-4.4-2.066-4.588-.248-.186-7.736 27.195-7.736 27.195l-11.2 11.45z"/><path fill="#C1D2E3" d="M26.046 162.212s5.56-.235 6.718-.473c1.16-.234 7.991-2.357 8.915-2.711.926-.354 2.898-3.778 3.476-4.13.572-.354-.237 1.062.693 3.54.925 2.475.115 12.855-6.713 27.249 0 0-13.317 22.179-16.557 33.738 0 0-7.99 21.585 1.153 42.82 0 0-.349 2.835-8.45-2.118 0 0 3.357 6.723 5.905 9.909 0 0 .58 2.594-3.014 1.06-3.586-1.533-4.052-1.65-4.627-.59-.58 1.062-1.624 5.079-1.389 5.666.23.584 1.038 1.058 1.734 1.293.695.236 4.628 1.18 4.628 1.18s.813 1.418.813 2.358c0 .946-1.043 3.427-1.623 4.13-.579.708-4.049 1.652-4.049 1.652l.46.827 2.896.826.348.705-1.159 1.772s-6.718 5.425-7.065 6.369-.347 5.665-.347 5.665 1.16-.474 1.51-.592c.346-.118 2.43 0 2.43 0s3.361-.118 3.822-.59c.462-.473 1.155-1.416 1.618-2.008.466-.587 2.086-2.83 2.78-3.066.695-.236 1.752-.647 2.438-.44.687.204 2.426.44 3.234.678.81.236 4.17 1.298 4.632 1.298.465 0 5.095-1.652 6.138-2.005 1.041-.355 6.946-2.835 7.521-2.835.58 0 3.71.709 4.52.944.81.236 19.405 3.802 26.398 3.896 0 0 15.974 1.47 27.44-6.96 0 0 6.831 7.19 14.472 8.136 0 0 7.18-.472 13.085-3.305 5.905-2.83 7.756-1.767 7.756-1.767s7.992.592 9.38-1.65c1.39-2.245 1.854-3.776-4.166-6.963-6.023-3.185-25.82-9.202-25.82-9.202l-3.938-1.77s-3.589-10.145-4.979-11.442c-1.39-1.295-9.612-4.955-9.612-4.955s-10.998-5.307-12.039-5.662c-1.04-.35-4.053-2.832-4.513-3.185-.466-.353-2.894-3.067-3.358-3.305-.465-.233-2.199-1.064-2.548-1.298-.347-.234-1.735-2.831-2.086-3.418-.349-.592-3.587-9.673-3.703-27.604l.346-17.225s.694-5.541.58-6.958c-.115-1.416-1.62-11.796-1.735-12.622-.115-.825-3.014-19.113-3.243-19.937-.23-.827-3.704-16.986-4.514-18.875-.812-1.888-1.854-6.961-1.854-6.961s-.346-2.003-.117-2.946c.232-.944 1.967-5.896.813-9.91-1.16-4.011-3.129-11.09-3.475-12.034-.349-.946-1.039-3.303-1.619-3.303s-1.159 1.65-1.273 2.357c-.115.709-.926 10.854-.926 10.854s-1.16-.824-1.74-.944c-.58-.118-3.242-1.414-3.242-1.414l-.99-.067s.875 7.264.875 7.97c0 .712-.69 3.304-1.155 3.893-.466.592-1.389 1.653-1.274 2.362s.926 3.066.23 3.538c-.695.469-4.862 2.24-5.442 2.24-.579 0-1.624-.47-2.2-.827-.58-.354-1.688-1.935-2.347-2.146-.662-.21-9.578-.447-9.923-.447-.35 0-2.089.12-.814 1.416s5.328 3.892 6.37 4.01c1.042.12 2.086.59 3.125 1.062 1.045.474 2.551 1.887 2.43 3.068-.114 1.179-1.155 4.364-1.155 5.308s-.813 3.54-1.504 4.483c-.694.942-2.549 3.066-2.896 3.538-.346.473-2.665 4.72-4.284 5.899-1.64 1.16-2.46 2.46-2.23 2.93z"/><path d="M91.196 272.602s-5.997-1.81-2.75-6.652c2.1-3.135 12.39-2.71 8.85 5.067l-6.1 1.58z"/></g><g fill="none" stroke="#2C2C2B" stroke-width="1.094"><path d="M257.23 547.25s-7.322.352-11.734-.857c-6.614-1.805-11.73-7.646-14.223-10.587-2.151-2.527-5.338-7.173-7.117-8.368-1.777-1.194.888-1.705 2.489-1.705 1.599 0 8.088-1.188 12.801.683 1.69.671 6.933 4.269 8.001 4.953 1.07.683 8.181 5.125 9.603 5.979 1.426.85 4.026 3.025 4.026 3.025M244.05 528.95s-3.961-9.73-4.038-12.738c-.084-3.008-.167-4.831-.414-5.461-.244-.63 1.73.236 2.8.713 1.071.475 6.101 2.613 9.143 5.459 3.051 2.848 7.006 6.568 8.738 9.652 1.727 3.09 3.126 6.883 3.539 7.674M258.87 523.65c-.083-.317-.58-4.034.659-6.488 1.234-2.453 2.719-5.3 2.966-6.014.248-.713-1.318-3.641.905-1.979 2.225 1.662 5.932 6.254 6.096 8.23.166 1.979.759 3.804.759 3.804" transform="matrix(.9427 0 0 1 -210.207 -349.308)"/><path d="M235.48 531.64s11.943 7.6 13.508 8.15c1.566.555 3.957 1.346 4.448 1.422" transform="matrix(.9427 0 0 1 -210.207 -349.308)"/><path d="M247.84 539.24s-.989-1.587-1.653-4.195M241.08 535.36s-2.226 1.265-2.883 1.977M247.75 539.63s-2.471 1.03-2.88 1.901M256.82 533.85s-4.944-7.04-7.499-9.415c-2.551-2.375-3.707-4.51-4.284-6.093M250.14 524.75s-.577-3.161-.088-4.351" transform="matrix(.9427 0 0 1 -210.207 -349.308)"/><path d="M253.19 529.26s-2.888-.235-3.876-.077M264.23 528.71v-5.539s.414-5.064.414-6.807M263.82 521.12s-1.645-1.661-1.812-2.69M264.39 525.23s.167-1.11 1.235-2.059" transform="matrix(.9427 0 0 1 -210.207 -349.308)"/><path d="M270.54 505.87s8.239 7.746-14.328 43.353c-22.568 35.612-8.599 61.418-8.599 61.418" transform="matrix(.9427 0 0 1 -210.207 -349.308)"/><path d="M304.04 593.44c-8.594-12.899-4.837-47.141-4.72-53.651.121-6.508-7.461-45.27-8.176-46.991-.715-1.718-2.507-7.914-3.767-11.357-1.246-3.439 1.44-4.988 1.44-10.15 0-5.158-4.656-15.481-5.197-17.543-.537-2.065-1.971-3.099-2.865 6.363-.895 9.464 0 6.539-.716 5.849-.716-.686-5.909-3.44-5.909-2.75 0 .686.536 4.815.712 8.428.183 3.615-1.788 4.473-2.504 5.505-.715 1.033 3.044 3.612-2.868 5.675-5.909 2.067-4.479-1.89-7.339-2.578-2.871-.687-9.675-.347-11.826-.347-2.145 0 2.687 4.134 6.093 4.991 3.401.861 3.222.347 5.912 2.411 2.681 2.063.352 4.125-.004 6.71-.357 2.577-.537 4.988-2.869 6.364-2.319 1.375-2.146 4.642-5.55 7.397-3.401 2.749-3.581 3.956-3.581 3.956 3.402.687 15.943-2.408 17.378-3.441 1.43-1.028 2.863-3.958 5.014-5.504 1.945-1.404 6.101.302 6.863.635.079.033.124.054.124.054s.653.558 1.582-.901c.939-1.458 1.167-3.139 1.753-3.923M250.13 608.58s-.54 1.892-1.435 2.924c-.896 1.031-2.511 1.033-4.477.344-1.975-.69-5.554-2.58-5.554-2.58s1.79 3.785 3.578 6.021c1.793 2.237 5.02 5.16 2.513 5.503-2.513.346-6.628-4.643-7.885.346-1.251 4.991-1.072 5.16.542 5.505 1.609.344 4.83 1.203 5.55 1.549.719.347.894 6.197-2.151 7.227-3.042 1.031-7.346.514-6.805.688s6.628 1.204 7.704 2.065c1.072.857-9.136 6.362-9.314 9.976-.18 3.615 0 5.507 0 5.507s.538-2.581 3.58-2.237c3.044.346 5.198-.171 5.734-1.202.531-1.033 1.61-4.477 6.088-4.646 4.477-.173 6.087 2.576 10.39 1.545 4.3-1.027 11.64-4.646 13.966-4.124 2.332.516 27.408 5.678 38.69 4.645 11.286-1.034 19.348-5.682 20.599-6.196" transform="matrix(.9427 0 0 1 -210.207 -349.308)"/><path d="M343.27 624.06s-1.071-10.493-6.805-12.902c-5.736-2.409-21.493-8.946-24.541-11.355-3.045-2.409-4.833-5.675-8.238-5.849-3.4-.172-11.466-4.127-12.538-7.569 0 0-.896 3.099-.356 5.505.532 2.409 3.579 6.71 3.402 8.258-.179 1.547-.358 3.612-1.615 3.956-1.255.345-4.476 0-4.293 1.72.176 1.722 1.071 13.597-1.615 13.767-2.69.17-2.506.517-4.121-.689-1.612-1.202-3.583-2.41-5.554-2.41-1.967 0-6.267-1.201-7.699-1.201-1.433 0-2.867-.86-5.017.86-2.146 1.719-5.553 1.889-6.449 1.371-.895-.514-3.581-1.2-4.653-5.672-1.077-4.478-2.151-5.854-3.406-3.786M366.91 644.19s-7.521 2.067-9.314 2.928c-1.787.859-6.98 2.407-10.922 1.549-3.943-.861-13.076-5.678-14.691-8.431-1.608-2.756-3.222-6.883-.716-8.604 2.509-1.72 5.551-3.093 6.807-4.471s4.122-3.098 4.122-3.098 27.942 8.771 30.985 10.147c3.048 1.382 7.345 3.613 7.7 4.995.363 1.376-.715 3.611-2.508 3.955-1.787.346-8.773 1.032-13.79-.172-5.014-1.204-13.788-5.161-20.061-1.892" transform="matrix(.9427 0 0 1 -210.207 -349.308)"/><path d="M344.46 641.38s-.66 1.773 1.674 1.773c2.327 0 6.279-2.9 9.322-2.388M344.7 632.14s5.194 3.788 10.925 4.304c5.734.514 6.091 1.027 11.106 1.205 5.014.17 12.005 1.376 13.612 2.234M313.18 623.54s1.43-1.894 4.294-1.894c2.871 0 5.553.176 7.344-.516 1.791-.688 3.943-2.749 4.657-3.957M298.49 595.33s2.15 4.645.898 7.054c-1.256 2.409-1.614 3.957-3.405 3.957-1.792 0-3.402-1.546-5.016.689s-2.148 3.439-2.148 3.439M296.52 612.02c-.356 3.269 1.614 7.399 0 8.945-1.612 1.549-7.52 4.134-10.929 6.368-3.4 2.235-4.115 2.062-5.729 2.062-1.608 0-8.599-3.78-9.671-2.409-1.077 1.377-2.687 1.552-2.863.174-.179-1.378-2.335-9.982-3.049-11.011M284.16 628.54s.715-.521 4.656.514c3.942 1.031 5.193 1.719 8.056 2.065 2.871.347 6.808.69 8.243 2.755 1.43 2.06 2.15 3.955 1.614 5.849-.538 1.892-2.15 3.955-3.049 4.129" transform="matrix(.9427 0 0 1 -210.207 -349.308)"/><path d="M289.17 641.44s-.356 1.204 2.866 1.375c3.222.173 11.642-4.986 4.121-6.363 0 0-20.959-1.552-24.006-1.552-3.044 0-10.386-1.028-10.922-5.331M266.78 635.42s0 2.755-1.435 3.615c-1.431.858-17.73 3.611-18.622 5.674" transform="matrix(.9427 0 0 1 -210.207 -349.308)"/><path d="M259.8 617.87s4.839 2.06-1.253 2.752c-6.09.689-9.135-.172-7.704 2.407 1.435 2.586 7.526 6.71 6.276 8.775-1.26 2.067-2.691 3.957-5.197 4.991-2.509 1.031 8.776.17 11.106.344 2.323.172 3.401.172 3.401.172M278.43 628.36s1.433-.337 1.256-1.889c-.18-1.551-1.256-7.053.536-6.71 1.791.344 2.148.167 2.328-.862M262.18 491.65s-6.799 2.781-8.385 3.752c-1.597.974-6.511.694-10.415.557-3.904-.14-12.151-.697-13.888-.697-1.734 0-5.78.142-4.775 0 1.016-.137 1.735 1.945 6.511-3.887 4.775-5.833 9.692-9.586 12.728-10.003 3.038-.417 5.499-.834 5.499-.834s-8.825-2.916-10.273-4.304c-1.443-1.392-2.894-2.918-2.167-3.755.724-.828-13.16-4.582-11.281-9.581 0 0 5.495-4.585 16.631-1.251 11.137 3.333 16.2 6.113 18.803 7.36 2.603 1.253 6.797 3.753 6.797 3.753M252.2 464.29s-10.12-13.06-10.265-17.508c-.147-4.443-.435-6.247-.867-8.191-.435-1.945-2.022-3.89-.724-4.587 1.299-.695 6.219-.833 10.269 2.642 4.046 3.472 6.362 9.167 7.085 12.084.727 2.915 3.477 6.111 4.339 7.363.869 1.251 6.364 7.643 8.102 8.613M253.64 439.29s-1.154-2.361 0-5.417c1.157-3.058 2.896-3.197 1.016-6.808-1.879-3.613-2.028-5.28-1.301-9.449.717-4.165.866-5.69 2.021-6.249 1.16-.554 8.822-.413 9.545 3.335.724 3.752 2.315 8.889 3.615 11.249 1.309 2.364 4.627 15.005 4.775 17.229.145 2.219 2.171 10.553 3.039 13.056" transform="matrix(.9427 0 0 1 -210.207 -349.308)"/><path d="M273.32 443.18s0-6.116 1.883-9.446c1.881-3.336 4.623-6.253 4.77-9.308.145-3.055 1.881-5.14 2.313-7.917.435-2.778 2.602-6.252 3.613-7.641 1.015-1.39 2.896-5.278 3.621-4.305.719.972 3.47 12.225 2.889 15.697-.575 3.472-1.448 8.332-1.736 9.583-.286 1.251 3.765 7.781 1.885 13.754-1.885 5.968 3.034 1.388-2.028 10.832 0 0 .143 3.89-.724 5.975M294 443.73c.724 1.529 3.758 6.807 3.469 10.696-.288 3.89-3.322 14.309-3.469 15.144-.145.833-4.05 7.775-4.05 7.775M293.13 472.76s1.013 11.251.87 13.196c-.145 1.944-2.024 9.169-2.024 9.169M246.13 441.79s10.413 16.668 14.177 19.724c3.759 3.056 6.5 6.252 7.086 6.671" transform="matrix(.9427 0 0 1 -210.207 -349.308)"/><path d="M251.05 449.43s-1.01-4.862-.289-7.224M254.23 454.7s-1.012-1.11-3.322-1.11M259.72 418.73s3.758 23.755 9.833 34.31" transform="matrix(.9427 0 0 1 -210.207 -349.308)"/><path d="M262.62 431.79s.436-3.752 2.895-5.143M265.78 443.78s-1.57-2.13-4.173-2.55M282.29 445.68s-.432-15.557.723-18.474c1.155-2.918 3.901-5.421 3.901-7.226" transform="matrix(.9427 0 0 1 -210.207 -349.308)"/><path d="M282.43 434.86s-.287-1.405 3.327-2.379M282.43 441.32s.144-1.201 2.603-2.174M257.99 476.93s-4.775.14-7.952-3.056c-3.183-3.194-4.054-5.137-7.523-6.389-3.47-1.249-7.088-2.363-7.088-2.363" transform="matrix(.9427 0 0 1 -210.207 -349.308)"/><path d="M246.71 470.4s-4.529-.066-4.775 2.638M240.26 466.75s-1.503-1.352-1.364-3.573M255.67 487.49s-14.03 2.219-16.056 2.915c-2.025.694-4.627 1.807-4.627 1.807M253.65 487.35s.067-1.239-4.851-1.933M244.31 489.21s-3.541-.888-4.404-2.279" transform="matrix(.9427 0 0 1 -210.207 -349.308)"/><path d="M247.58 489.02s-1.448 1.251-1.593 2.639M287.02 478.53s-2.73 11.452-2.73 15.593c0 4.139-.716 2.763-1.579 5.108M262.74 492.47s2.298 1.104 4.163 1.104c1.867 0 5.895-1.658 7.473 3.036M244.64 601.77s10.06 4 10.636-5.108c0 0 8.478 5.105 9.768.555 0 0 3.45 7.59 6.467 3.727M271.65 600.39s3.017 7.038 8.189 2.758c0 0 2.016-2.068 2.155-3.45.148-1.378-.139 2.348 1.44 2.899 1.582.551 4.163 1.655 5.025 1.655" transform="matrix(.9427 0 0 1 -210.207 -349.308)"/><path d="M254.12 601.22s2.299 3.999 4.746 3.86c2.441-.14 5.172-2.342 5.742-3.31.577-.968 1.008-2.622 1.008-2.622s-2.586 6.485.288 8.004 4.164 1.376 5.172.41c1.005-.963 3.017-4.277 3.017-4.277s-2.731 4.421-.431 6.076c2.298 1.653 4.599 1.518 5.458.688.864-.826 2.735-4.278 2.735-4.969s.139-3.173.139-3.173M282.28 605.91s1.005 1.518 1.725 2.759 1.723 3.175.86 5.244c-.86 2.07-2.272 3.844-2.297 4.415" transform="matrix(.9427 0 0 1 -210.207 -349.308)"/><path d="M272.51 609.49s-.72 4.137 2.586 5.104c3.3.966 5.029.416 5.46-.827.431-1.241.431-5.521.431-5.521M264.03 606.6s-2.586 7.314.149 8.144M270.5 608.53s1.151 4.831-1.29 6.351M252.69 608.25s6.322 6.211 10.056 1.934" transform="matrix(.9427 0 0 1 -210.207 -349.308)"/><path d="M254.26 602.18s-1.44 6.487 1.296 8.006M255.27 596.66c-2.314 3.59-11.507-1.537-11.507-1.537M243.87 584.98s2.473 4.425 5.058 4.425c2.582 0 5.503-2.049 5.389-4.855 0 0 .789 5.612 5.508 5.612 4.717 0 4.94-4.643 4.83-5.502 0 0-.227 8.305 5.395 8.198 0 0 4.156 1.404 5.279-4.425 0 0-2.135 7.881 3.481 7.881 0 0 5.731 1.832 6.405-5.075 0 0-.226 8.849 3.372 8.632 3.592-.217 4.831-.864 4.718-2.589" transform="matrix(.9427 0 0 1 -210.207 -349.308)"/><path d="M254.32 586.27s-2.803 8.309 2.023 10.9M264.66 586.81s3.145 9.389-1.349 12.086M275.11 589.94s-1.908 9.71-4.495 11.33M282.41 595.98s-.109 4.748-1.121 5.396M244.1 579.26s1.911 5.074 5.167 5.287c3.256.216 5.843.541 6.292-6.906" transform="matrix(.9427 0 0 1 -210.207 -349.308)"/><path d="M255.22 580.98s6.292 7.014 9.435 1.078c0 0 .898-3.888.45-4.748M264.32 582.92s1.689 3.451 5.172 2.375c0 0 3.82.211 3.708-5.398" transform="matrix(.9427 0 0 1 -210.207 -349.308)"/><path d="M272.64 583.57s.227 6.256 6.633 3.777c0 0 2.244-.758 2.92-1.62" transform="matrix(.9427 0 0 1 -210.207 -349.308)"/><path d="M282.3 581.63s-.559 8.418 3.932 8.957c0 0 3.82.434 4.834-1.834M287.58 576.77s-2.024 7.664 4.491 9.068c0 0 6.633.645 7.867-2.591" transform="matrix(.9427 0 0 1 -210.207 -349.308)"/><path d="M290.95 570.52s-1.461 8.307 3.259 8.955c0 0 4.046.323 4.829-2.807M290.5 575.8s-4.273 1.831-7.645-.541c0 0-2.729-1.235-1.67-8.935M280.84 572.57s-2.807 3.021-7.191.971c0 0-4.269-2.803-3.708-6.904M269.6 569s-2.7 2.806-5.847 2.051c0 0-3.816-.863-3.703-4.209 0 0 .472-3.351.811-4.219M259.83 568.25s-2.474 1.62-6.515.973c0 0-4.273-.324-4.945-4.211" transform="matrix(.9427 0 0 1 -210.207 -349.308)"/><path d="M257.25 569.22s3.708 8.845-4.832 7.874c0 0-6.517-1.183-6.181-5.067" transform="matrix(.9427 0 0 1 -210.207 -349.308)"/><path d="M252.42 577.1s-4.382-6.687-.226-8.091M257.92 575.15s4.157 3.564 7.3 2.482c0 0 4.046-1.945 3.82-7.66M267.8 576.02s2.25 4.207 5.394 3.883c3.143-.322 5.28-5.072 5.393-5.936" transform="matrix(.9427 0 0 1 -210.207 -349.308)"/><path d="M276.57 577.85s1.796 4.425 7.299 3.13c0 0 2.137-1.296 3.034-4.534M250.48 560.38s1.656 2.652 3.592 2.785c1.933.134 5.389-.133 6.355-2.522" transform="matrix(.9427 0 0 1 -210.207 -349.308)"/><path d="M260.29 557.06s-.972 5.976 4.418 8.23c0 0 4.98 2.256 7.879-1.328" transform="matrix(.9427 0 0 1 -210.207 -349.308)"/><path d="M272.87 559.32s-3.175 5.182 4.286 7.036c0 0 8.569 1.567 8.42-7.147" transform="matrix(.9427 0 0 1 -210.207 -349.308)"/><path d="M283.91 565.02s2.368 7.574 7.753 3.723" transform="matrix(.9427 0 0 1 -210.207 -349.308)"/><path d="M291.8 564.5s-2.35 7.568 6.911 7.303M254.63 552.29s1.106 5.708 6.911 4.113c0 0 2.906-1.855 3.32-4.248M276.81 553.07s-2.009 6.653-6.29 5.855c0 0-5.662-2.252-5.803-5.705M276.05 555.74s1.241 3.578 5.384 3.318c0 0 3.594.396 4.422-4.383" transform="matrix(.9427 0 0 1 -210.207 -349.308)"/><path d="M285.17 557.59c.138.532 2.904 7.7 8.566 6.64 0 0 3.459-.934 4.422-3.85M286.87 547.76s-3.269 7.736 3.963 8.912c0 0 5.944 1.061 7.736-2.92" transform="matrix(.9427 0 0 1 -210.207 -349.308)"/><path d="M276.88 549.37s-1.815 5.557 9.517 4.363" transform="matrix(.9427 0 0 1 -210.207 -349.308)"/><path d="M266.1 547.78s-.553 7.301 11.473 4.377" transform="matrix(.9427 0 0 1 -210.207 -349.308)"/><path d="M256.98 548.7s4.561 4.912 9.811 1.594M258.62 545.62s6.424 6.057 9.459-2.13" transform="matrix(.9427 0 0 1 -210.207 -349.308)"/><path d="M267.14 545.74s7.009 6.278 11.214 1.458M277.88 540.8s-2.569 6.955 4.552 7.289c0 0 5.516-1.037 5.516-6.643M287.1 545.85s-.702 4.376 6.188 4.263l5.603-2.805M291.14 492.8s-3.448 8.081-6.871 3.08M282.9 500.22s1.644 8.688 9.732.657" transform="matrix(.9427 0 0 1 -210.207 -349.308)"/><path d="M287.15 504.56s1.645 8.424 7.4 4.608M284.96 504.43s-5.345 6.189-6.169-1.054" transform="matrix(.9427 0 0 1 -210.207 -349.308)"/><path d="M279.06 504.96s-4.527 4.871-7.126 2.499" transform="matrix(.9427 0 0 1 -210.207 -349.308)"/><path d="M272.35 509.83s5.481 4.478 4.937-3.029" transform="matrix(.9427 0 0 1 -210.207 -349.308)"/><path d="M277.01 510.49s3.148 2.893 4.796.262M281.81 507.59s-1.134 3.909 3.008 4.022c4.034.111 4.038-2.908 4.038-2.908" transform="matrix(.9427 0 0 1 -210.207 -349.308)"/><path d="M287.34 511.13s-.185 4.892 3.925 4.761c0 0 3.016-.396 3.974-2.77M261.6 540.86s4.322 6.057 7.518.831c0 0 5.441 6.557 8.207.664M262.99 538.71s4.229 4.317 6.906.42c0 0 .606-.333.263-2.822M270.33 538.46s3.109 4.646 8.121 1.326c0 0 2.164-2.07 1.984-4.395M280.09 538.13s.951 2.819 6.308 2.321c0 0 3.887-.83 4.837-4.563M287.69 540.2s1.64 7.801 11.402 3.57" transform="matrix(.9427 0 0 1 -210.207 -349.308)"/><path d="M292.62 530.14s-5.117 10.758 6.217 6.843" transform="matrix(.9427 0 0 1 -210.207 -349.308)"/><path d="M295.92 520.63s-4.79 2.428-3.753 6.842c0 0 .58 5.285 6.213 3.296M266.14 532.26s1.034 3.173 4.595 2.736c0 0 4.016-.685 3.756-5.412M274.17 532.75s2.914 3.05 6.991 1.431c0 0 4.272-1.683 2.331-6.777M284.01 531.82s.646 4.912 7.379 2.486M292.1 528.15s-9.513 2.922-8.607-5.35" transform="matrix(.9427 0 0 1 -210.207 -349.308)"/><path d="M276.82 523.61s1.037 5.908 7.059 2.735" transform="matrix(.9427 0 0 1 -210.207 -349.308)"/><path d="M277.66 526.1s-3.688 6.84-9.065 1.058M270.1 522.55s7.055 3.483 9.075-1.548" transform="matrix(.9427 0 0 1 -210.207 -349.308)"/><path d="M278.16 516.46s-.402 8.715 6.654 5.325" transform="matrix(.9427 0 0 1 -210.207 -349.308)"/><path d="M285.72 517.81s-4.535 7.455 6.959 5.809M280.18 512.19s-1.307 3.387 2.622 3.584c0 0 3.126.291 3.126-3.874" transform="matrix(.9427 0 0 1 -210.207 -349.308)"/><path d="M272.11 513.45s3.226 6.686 8.16.871M284.51 515.58s.705 4.16 4.944.286M281.9 437.83s-.109-1.332-2.032-3.18c-1.917-1.843-.745-2.972-.745-2.972" transform="matrix(.9427 0 0 1 -210.207 -349.308)"/></g><path fill="#FFF" d="M96.196 267.012c0 .362-.349.657-.777.657-.426 0-.77-.295-.77-.657 0-.361.344-.655.77-.655.44 0 .78.3.78.66zM93.256 267.272c0 .453-.432.817-.963.817-.529 0-.958-.364-.958-.817 0-.451.428-.817.958-.817s.96.37.96.82z"/><path fill="#2C2C2B" d="M208.193 272.602s5.993-1.81 2.746-6.652c-2.1-3.135-12.391-2.71-8.851 5.067l6.109 1.58z"/><path fill="#FFF" d="M203.178 267.012c0 .362.35.657.777.657.43 0 .778-.295.778-.657 0-.361-.349-.655-.778-.655-.433 0-.782.3-.782.66zM206.128 267.272c0 .453.431.817.96.817s.961-.364.961-.817c0-.451-.43-.817-.96-.817s-.962.37-.962.82z"/><path fill="#00A9E2" stroke="#2C2C2B" stroke-width="1.062" d="M71.966 190.482c0 43.74 34.811 79.188 77.725 79.188 42.916 0 77.724-35.447 77.724-79.188V65.112H71.965v125.37l.002.002z"/><g fill="#FD0" stroke="#2C2C2B" stroke-width="1.094"><path d="M372.01 594.7v7.503l8.462-4.062v-7.502l-8.46 4.06zM372.01 587.19v7.504l8.462-4.061v-7.504l-8.46 4.06z" transform="matrix(.9427 0 0 1 -210.207 -349.308)"/><path d="M372.01 579.69v7.506l8.462-4.061v-7.504l-8.46 4.05zM394.43 594.7v7.503l-8.47-4.062v-7.502zM394.43 587.19v7.504l-8.47-4.061v-7.504l8.47 4.06z" transform="matrix(.9427 0 0 1 -210.207 -349.308)"/><path d="M394.43 579.69v7.506l-8.47-4.061v-7.504l8.47 4.05z" transform="matrix(.9427 0 0 1 -210.207 -349.308)"/><path d="m392.87 441.04-9.646-15.112-9.65 15.112h6.902v156.88h5.489V441.04h6.909zM313.82 563.46l-5.523 5.306 8.972 2.881 5.527-5.305-8.98-2.88z" transform="matrix(.9427 0 0 1 -210.207 -349.308)"/><path d="m319.35 558.16-5.525 5.309 8.975 2.882 5.529-5.308-8.98-2.88zM324.88 552.85l-5.527 5.302 8.979 2.883 5.524-5.309-8.97-2.87zM329.68 578.7l-5.52 5.305-3.004-8.627 5.525-5.3 3 8.63z" transform="matrix(.9427 0 0 1 -210.207 -349.308)"/><path d="m335.2 573.39-5.523 5.309-3-8.622 5.526-5.308 2.99 8.62zM340.73 568.08l-5.526 5.307-2.998-8.621 5.525-5.306 3.01 8.62z" transform="matrix(.9427 0 0 1 -210.207 -349.308)"/><path d="m441.7 468.98 4.303-17.242-17.942 4.138 4.881 4.687-115.5 110.92 3.883 3.728 115.49-110.93 4.89 4.69z" transform="matrix(.9427 0 0 1 -210.207 -349.308)"/><path d="M369.67 562.54c2.695.492 5.461.818 8.273.979-5.717-6.59-20.243-26.108-20.243-54.479 0-27.574 13.702-46.761 19.724-53.865a66 66 0 0 0-8.264 1.051c-7.098 9.537-17.639 27.872-17.639 52.814 0 25.54 11.06 44.17 18.15 53.5zM388.69 563.29a67 67 0 0 0 8.582-1.435c7.106-9.534 17.647-27.871 17.647-52.818 0-24.361-10.046-42.394-17.13-52.109a66 66 0 0 0-8.559-1.505c6.126 7.311 19.508 26.369 19.508 53.615 0 28.08-14.21 47.46-20.05 54.25z" transform="matrix(.9427 0 0 1 -210.207 -349.308)"/><path d="M339.55 548.11a60 60 0 0 0 6.978 5.271h70.68a59 59 0 0 0 6.976-5.271h-84.639zM327.72 533.54h108.31a51 51 0 0 0 2.569-5.27h-113.45a50 50 0 0 0 2.571 5.27zM433.32 480.77h-102.9a52 52 0 0 0-3.213 5.268h109.34c-.97-1.82-2.04-3.58-3.22-5.27zM418.6 466.2a62 62 0 0 0-9.315-5.27h-54.841a62.3 62.3 0 0 0-9.31 5.27h73.473z" transform="matrix(.9427 0 0 1 -210.207 -349.308)"/><path d="M426.59 545.89c-26.612-25.275-66.367-63.043-82.858-78.705a58.3 58.3 0 0 0-9.891 9.135c16.122 15.316 55.299 52.53 82.021 77.92 3.93-2.4 7.53-5.2 10.73-8.35zM434.46 577.78l5.551 5.277 2.943-8.642-5.546-5.276-2.94 8.64zM428.9 572.5l5.561 5.277 2.948-8.641-5.561-5.278-2.95 8.64z" transform="matrix(.9427 0 0 1 -210.207 -349.308)"/><path d="m423.35 567.23 5.555 5.279 2.948-8.642-5.549-5.271-2.95 8.63zM450.22 562.47l5.561 5.277-8.962 2.925-5.554-5.272 8.95-2.94z" transform="matrix(.9427 0 0 1 -210.207 -349.308)"/><path d="m444.67 557.19 5.549 5.274-8.954 2.93-5.557-5.274 8.96-2.93z" transform="matrix(.9427 0 0 1 -210.207 -349.308)"/><path d="m439.12 551.92 5.555 5.274-8.962 2.93-5.553-5.278 8.95-2.92z" transform="matrix(.9427 0 0 1 -210.207 -349.308)"/><path d="m335.38 455.48-17.969-4.04 4.398 17.22 4.857-4.715 116.14 110.32 3.855-3.746-116.13-110.32 4.85-4.71z" transform="matrix(.9427 0 0 1 -210.207 -349.308)"/><path d="M381.87 449.74c-36.404 0-66.014 26.732-66.014 59.586 0 32.857 29.61 59.59 66.014 59.59 36.401 0 66.013-26.732 66.013-59.59 0-32.86-29.61-59.59-66.01-59.59zm0 113.9c-33.375 0-60.525-24.363-60.525-54.318 0-29.95 27.149-54.316 60.525-54.316 33.369 0 60.522 24.366 60.522 54.316.01 29.96-27.14 54.32-60.51 54.32z" transform="matrix(.9427 0 0 1 -210.207 -349.308)"/><path d="M321.36 509.79h121.02q.01-.23.012-.465c0-1.622-.091-3.223-.249-4.807h-120.55a49 49 0 0 0-.249 4.807c.01.16.02.32.02.47z" transform="matrix(.9427 0 0 1 -210.207 -349.308)"/></g><path fill="#DB221B" stroke="#2C2C2B" stroke-width="1.062" d="M148.426 148.052c-4.92-.902-15.97 1.235-14.113 19.966 4.435 1.479 8.84-.39 15.685 2.663 6.843 3.05 12.142 7.996 14.554 6.292 2.102-1.476.112-5.171-.883-7.64-1.002-2.471 1.756-13.921-2.907-21.197-4.22-6.59-19.542-11.473-22.937-2.308-.372 1.01-.66 2.793-.112 3.904.58 1.18 3.54-4.3 10.72-1.67z"/><path fill="#FD0" stroke="#2C2C2B" stroke-width=".694" d="M154.236 158.112c0 2.564-2.127 4.64-4.759 4.64-2.623 0-4.757-2.075-4.757-4.64 0-2.566 2.134-4.645 4.757-4.645 2.63 0 4.76 2.08 4.76 4.64z"/><g fill="#FF0" stroke="#2C2C2B" stroke-width=".238"><path d="M379.58 507.42c0 1.039.878 1.893 1.966 1.893 1.086 0 1.969-.854 1.969-1.893 0-1.047-.884-1.895-1.969-1.895-1.09.01-1.97.86-1.97 1.9z" transform="matrix(.9427 0 0 1 -210.207 -349.308)"/><path d="M380.78 507.32c-1.281-.493-2.747-2.648-2.747-2.648l-.401-.154c-.701.797-1.138 1.799-1.138 2.906 0 2.466 2.097 4.461 4.741 4.609 0-.095.605-.225.578-.338-.48-2.52.26-3.89-1.03-4.38z" transform="matrix(.9427 0 0 1 -210.207 -349.308)"/></g></svg>